<svg xmlns="http://www.w3.org/2000/svg" xmlns:xlink="http://www.w3.org/1999/xlink" width="300" zoomAndPan="magnify" viewBox="0 0 224.87999 225" height="300" preserveAspectRatio="xMidYMid meet" version="1.0"><defs><g/><clipPath id="3e20704e81"><path d="M 54.78125 55.535156 L 99.757812 55.535156 L 99.757812 100.511719 L 54.78125 100.511719 Z M 54.78125 55.535156 " clip-rule="nonzero"/></clipPath></defs><path fill="#a6a6a6" d="M 125.390625 95.019531 C 125.265625 95.144531 125.121094 95.257812 124.960938 95.347656 C 123.984375 95.902344 122.75 95.5625 122.195312 94.589844 C 121.300781 93.011719 120.1875 91.554688 118.890625 90.257812 C 118.097656 89.464844 118.097656 88.183594 118.890625 87.390625 C 119.683594 86.601562 120.964844 86.601562 121.757812 87.390625 C 123.3125 88.945312 124.644531 90.691406 125.71875 92.585938 C 126.179688 93.394531 126.019531 94.390625 125.390625 95.019531 " fill-opacity="1" fill-rule="nonzero"/><path fill="#a6a6a6" d="M 115.257812 85.734375 C 114.675781 86.316406 113.773438 86.507812 112.980469 86.144531 C 108.253906 83.984375 102.722656 83.734375 97.804688 85.460938 C 96.75 85.832031 95.59375 85.277344 95.222656 84.21875 C 94.851562 83.164062 95.40625 82.007812 96.464844 81.636719 C 102.445312 79.535156 108.910156 79.828125 114.664062 82.457031 C 115.683594 82.921875 116.132812 84.125 115.667969 85.144531 C 115.5625 85.371094 115.421875 85.570312 115.257812 85.734375 " fill-opacity="1" fill-rule="nonzero"/><path fill="#a6a6a6" d="M 104.542969 131.628906 C 97.324219 131.628906 90.539062 128.816406 85.4375 123.714844 C 80.332031 118.609375 77.519531 111.824219 77.519531 104.605469 C 77.519531 97.386719 80.332031 90.597656 85.4375 85.496094 C 90.539062 80.390625 97.324219 77.582031 104.542969 77.582031 C 111.761719 77.582031 118.550781 80.390625 123.652344 85.496094 C 128.757812 90.597656 131.570312 97.386719 131.570312 104.605469 C 131.570312 111.824219 128.757812 118.609375 123.652344 123.714844 C 118.550781 128.816406 111.761719 131.628906 104.542969 131.628906 Z M 154.621094 145.835938 L 131.410156 125.085938 C 141.53125 111.84375 140.539062 92.828125 128.429688 80.71875 C 115.238281 67.527344 93.851562 67.527344 80.660156 80.71875 C 67.464844 93.910156 67.464844 115.296875 80.660156 128.492188 C 92.769531 140.601562 111.785156 141.59375 125.027344 131.46875 L 145.777344 154.683594 C 148.171875 157.363281 152.332031 157.480469 154.875 154.9375 C 157.421875 152.394531 157.304688 148.234375 154.621094 145.835938 " fill-opacity="1" fill-rule="nonzero"/><g clip-path="url(#3e20704e81)"><path fill="#b65458" d="M 63.207031 100.511719 L 54.796875 92.105469 L 91.375 55.53125 L 99.785156 63.9375 L 63.207031 100.511719 " fill-opacity="1" fill-rule="nonzero"/><path fill="#b65458" d="M 91.375 100.511719 L 99.785156 92.105469 L 63.207031 55.53125 L 54.796875 63.9375 L 91.375 100.511719 " fill-opacity="1" fill-rule="nonzero"/></g><g fill="#a6a6a6" fill-opacity="1"><g transform="translate(64.576863, 175.389931)"><g><path d="M 3.515625 0.140625 C 3.003906 0.140625 2.535156 0.0820312 2.109375 -0.03125 C 1.679688 -0.15625 1.316406 -0.320312 1.015625 -0.53125 C 0.710938 -0.75 0.488281 -0.992188 0.34375 -1.265625 L 1.390625 -2.390625 L 1.53125 -2.390625 C 1.78125 -2.054688 2.078125 -1.804688 2.421875 -1.640625 C 2.765625 -1.472656 3.132812 -1.390625 3.53125 -1.390625 C 3.90625 -1.390625 4.1875 -1.453125 4.375 -1.578125 C 4.5625 -1.710938 4.65625 -1.90625 4.65625 -2.15625 C 4.65625 -2.34375 4.585938 -2.5 4.453125 -2.625 C 4.316406 -2.757812 4.097656 -2.863281 3.796875 -2.9375 L 2.796875 -3.171875 C 2.054688 -3.347656 1.515625 -3.617188 1.171875 -3.984375 C 0.828125 -4.359375 0.65625 -4.828125 0.65625 -5.390625 C 0.65625 -5.859375 0.769531 -6.265625 1 -6.609375 C 1.238281 -6.953125 1.578125 -7.210938 2.015625 -7.390625 C 2.453125 -7.578125 2.957031 -7.671875 3.53125 -7.671875 C 4.207031 -7.671875 4.769531 -7.570312 5.21875 -7.375 C 5.664062 -7.1875 6.015625 -6.925781 6.265625 -6.59375 L 5.25 -5.5 L 5.125 -5.5 C 4.914062 -5.738281 4.675781 -5.910156 4.40625 -6.015625 C 4.144531 -6.128906 3.851562 -6.1875 3.53125 -6.1875 C 2.789062 -6.1875 2.421875 -5.953125 2.421875 -5.484375 C 2.421875 -5.296875 2.488281 -5.140625 2.625 -5.015625 C 2.757812 -4.890625 3.003906 -4.789062 3.359375 -4.71875 L 4.28125 -4.5 C 5.050781 -4.34375 5.613281 -4.082031 5.96875 -3.71875 C 6.320312 -3.351562 6.5 -2.867188 6.5 -2.265625 C 6.5 -1.785156 6.378906 -1.363281 6.140625 -1 C 5.898438 -0.632812 5.554688 -0.351562 5.109375 -0.15625 C 4.660156 0.0390625 4.128906 0.140625 3.515625 0.140625 Z M 3.515625 0.140625 "/></g></g></g><g fill="#a6a6a6" fill-opacity="1"><g transform="translate(71.521426, 175.389931)"><g><path d="M 2.03125 -8.4375 C 1.6875 -8.4375 1.40625 -8.535156 1.1875 -8.734375 C 0.976562 -8.941406 0.875 -9.210938 0.875 -9.546875 C 0.875 -9.867188 0.976562 -10.132812 1.1875 -10.34375 C 1.40625 -10.550781 1.6875 -10.65625 2.03125 -10.65625 C 2.257812 -10.65625 2.460938 -10.601562 2.640625 -10.5 C 2.816406 -10.40625 2.953125 -10.273438 3.046875 -10.109375 C 3.148438 -9.941406 3.203125 -9.753906 3.203125 -9.546875 C 3.203125 -9.328125 3.148438 -9.132812 3.046875 -8.96875 C 2.953125 -8.800781 2.816406 -8.671875 2.640625 -8.578125 C 2.460938 -8.484375 2.257812 -8.4375 2.03125 -8.4375 Z M 1.078125 0 L 1.078125 -7.53125 L 2.984375 -7.53125 L 2.984375 0 Z M 1.078125 0 "/></g></g></g><g fill="#a6a6a6" fill-opacity="1"><g transform="translate(75.577542, 175.389931)"><g><path d="M 1.078125 0 L 1.078125 -7.53125 L 2.90625 -7.53125 L 2.90625 -6.421875 L 3.046875 -6.390625 C 3.515625 -7.242188 4.273438 -7.671875 5.328125 -7.671875 C 6.191406 -7.671875 6.828125 -7.429688 7.234375 -6.953125 C 7.648438 -6.484375 7.859375 -5.796875 7.859375 -4.890625 L 7.859375 0 L 5.96875 0 L 5.96875 -4.65625 C 5.96875 -5.164062 5.863281 -5.53125 5.65625 -5.75 C 5.457031 -5.96875 5.140625 -6.078125 4.703125 -6.078125 C 4.160156 -6.078125 3.738281 -5.898438 3.4375 -5.546875 C 3.132812 -5.203125 2.984375 -4.65625 2.984375 -3.90625 L 2.984375 0 Z M 1.078125 0 "/></g></g></g><g fill="#a6a6a6" fill-opacity="1"><g transform="translate(84.399936, 175.389931)"><g/></g></g><g fill="#a6a6a6" fill-opacity="1"><g transform="translate(87.698091, 175.389931)"><g><path d="M 1.078125 0 L 1.078125 -7.53125 L 2.921875 -7.53125 L 2.921875 -6.40625 L 3.0625 -6.390625 C 3.25 -6.804688 3.488281 -7.109375 3.78125 -7.296875 C 4.082031 -7.492188 4.441406 -7.59375 4.859375 -7.59375 C 5.285156 -7.59375 5.613281 -7.519531 5.84375 -7.375 L 5.515625 -5.75 L 5.375 -5.71875 C 5.25 -5.769531 5.128906 -5.804688 5.015625 -5.828125 C 4.898438 -5.847656 4.765625 -5.859375 4.609375 -5.859375 C 4.078125 -5.859375 3.671875 -5.671875 3.390625 -5.296875 C 3.117188 -4.929688 2.984375 -4.335938 2.984375 -3.515625 L 2.984375 0 Z M 1.078125 0 "/></g></g></g><g fill="#a6a6a6" fill-opacity="1"><g transform="translate(93.604725, 175.389931)"><g><path d="M 7.4375 -3.34375 L 2.609375 -3.34375 C 2.660156 -2.6875 2.84375 -2.207031 3.15625 -1.90625 C 3.476562 -1.613281 3.914062 -1.46875 4.46875 -1.46875 C 4.894531 -1.46875 5.242188 -1.546875 5.515625 -1.703125 C 5.785156 -1.867188 6.003906 -2.113281 6.171875 -2.4375 L 6.3125 -2.4375 L 7.5625 -1.625 C 7.320312 -1.101562 6.953125 -0.675781 6.453125 -0.34375 C 5.953125 -0.0195312 5.289062 0.140625 4.46875 0.140625 C 3.6875 0.140625 3.007812 -0.00390625 2.4375 -0.296875 C 1.875 -0.597656 1.4375 -1.039062 1.125 -1.625 C 0.820312 -2.207031 0.671875 -2.921875 0.671875 -3.765625 C 0.671875 -4.617188 0.832031 -5.335938 1.15625 -5.921875 C 1.476562 -6.515625 1.914062 -6.953125 2.46875 -7.234375 C 3.019531 -7.523438 3.640625 -7.671875 4.328125 -7.671875 C 5.390625 -7.671875 6.203125 -7.390625 6.765625 -6.828125 C 7.335938 -6.265625 7.625 -5.4375 7.625 -4.34375 C 7.625 -3.945312 7.613281 -3.640625 7.59375 -3.421875 Z M 5.8125 -4.5625 C 5.800781 -5.132812 5.671875 -5.550781 5.421875 -5.8125 C 5.171875 -6.070312 4.804688 -6.203125 4.328125 -6.203125 C 3.367188 -6.203125 2.804688 -5.65625 2.640625 -4.5625 Z M 5.8125 -4.5625 "/></g></g></g><g fill="#a6a6a6" fill-opacity="1"><g transform="translate(101.792071, 175.389931)"><g><path d="M 3.515625 0.140625 C 3.003906 0.140625 2.535156 0.0820312 2.109375 -0.03125 C 1.679688 -0.15625 1.316406 -0.320312 1.015625 -0.53125 C 0.710938 -0.75 0.488281 -0.992188 0.34375 -1.265625 L 1.390625 -2.390625 L 1.53125 -2.390625 C 1.78125 -2.054688 2.078125 -1.804688 2.421875 -1.640625 C 2.765625 -1.472656 3.132812 -1.390625 3.53125 -1.390625 C 3.90625 -1.390625 4.1875 -1.453125 4.375 -1.578125 C 4.5625 -1.710938 4.65625 -1.90625 4.65625 -2.15625 C 4.65625 -2.34375 4.585938 -2.5 4.453125 -2.625 C 4.316406 -2.757812 4.097656 -2.863281 3.796875 -2.9375 L 2.796875 -3.171875 C 2.054688 -3.347656 1.515625 -3.617188 1.171875 -3.984375 C 0.828125 -4.359375 0.65625 -4.828125 0.65625 -5.390625 C 0.65625 -5.859375 0.769531 -6.265625 1 -6.609375 C 1.238281 -6.953125 1.578125 -7.210938 2.015625 -7.390625 C 2.453125 -7.578125 2.957031 -7.671875 3.53125 -7.671875 C 4.207031 -7.671875 4.769531 -7.570312 5.21875 -7.375 C 5.664062 -7.1875 6.015625 -6.925781 6.265625 -6.59375 L 5.25 -5.5 L 5.125 -5.5 C 4.914062 -5.738281 4.675781 -5.910156 4.40625 -6.015625 C 4.144531 -6.128906 3.851562 -6.1875 3.53125 -6.1875 C 2.789062 -6.1875 2.421875 -5.953125 2.421875 -5.484375 C 2.421875 -5.296875 2.488281 -5.140625 2.625 -5.015625 C 2.757812 -4.890625 3.003906 -4.789062 3.359375 -4.71875 L 4.28125 -4.5 C 5.050781 -4.34375 5.613281 -4.082031 5.96875 -3.71875 C 6.320312 -3.351562 6.5 -2.867188 6.5 -2.265625 C 6.5 -1.785156 6.378906 -1.363281 6.140625 -1 C 5.898438 -0.632812 5.554688 -0.351562 5.109375 -0.15625 C 4.660156 0.0390625 4.128906 0.140625 3.515625 0.140625 Z M 3.515625 0.140625 "/></g></g></g><g fill="#a6a6a6" fill-opacity="1"><g transform="translate(108.736633, 175.389931)"><g><path d="M 3.453125 0.140625 C 2.597656 0.140625 1.96875 -0.0859375 1.5625 -0.546875 C 1.164062 -1.015625 0.96875 -1.679688 0.96875 -2.546875 L 0.96875 -7.53125 L 2.859375 -7.53125 L 2.859375 -2.78125 C 2.859375 -2.320312 2.957031 -1.984375 3.15625 -1.765625 C 3.351562 -1.554688 3.660156 -1.453125 4.078125 -1.453125 C 4.597656 -1.453125 5.003906 -1.625 5.296875 -1.96875 C 5.585938 -2.3125 5.734375 -2.851562 5.734375 -3.59375 L 5.734375 -7.53125 L 7.625 -7.53125 L 7.625 0 L 5.8125 0 L 5.8125 -1.109375 L 5.671875 -1.140625 C 5.429688 -0.703125 5.132812 -0.378906 4.78125 -0.171875 C 4.4375 0.0351562 3.992188 0.140625 3.453125 0.140625 Z M 3.453125 0.140625 "/></g></g></g><g fill="#a6a6a6" fill-opacity="1"><g transform="translate(117.449772, 175.389931)"><g><path d="M 3.125 0.140625 C 2.445312 0.140625 1.925781 -0.0390625 1.5625 -0.40625 C 1.207031 -0.769531 1.03125 -1.328125 1.03125 -2.078125 L 1.03125 -10.5625 L 2.921875 -10.5625 L 2.921875 -2.15625 C 2.921875 -1.695312 3.113281 -1.46875 3.5 -1.46875 C 3.613281 -1.46875 3.726562 -1.484375 3.84375 -1.515625 L 3.953125 -1.484375 L 4.125 -0.03125 C 4.007812 0.0195312 3.863281 0.0625 3.6875 0.09375 C 3.519531 0.125 3.332031 0.140625 3.125 0.140625 Z M 3.125 0.140625 "/></g></g></g><g fill="#a6a6a6" fill-opacity="1"><g transform="translate(121.779027, 175.389931)"><g><path d="M 5.203125 -1.796875 L 5.6875 -0.390625 C 5.476562 -0.222656 5.21875 -0.09375 4.90625 0 C 4.601562 0.09375 4.253906 0.140625 3.859375 0.140625 C 3.046875 0.140625 2.425781 -0.078125 2 -0.515625 C 1.582031 -0.960938 1.375 -1.609375 1.375 -2.453125 L 1.375 -6.03125 L 0.21875 -6.03125 L 0.21875 -7.53125 L 1.375 -7.53125 L 1.375 -9 L 3.265625 -9.3125 L 3.265625 -7.53125 L 5.40625 -7.53125 L 5.40625 -6.03125 L 3.265625 -6.03125 L 3.265625 -2.59375 C 3.265625 -2.21875 3.34375 -1.941406 3.5 -1.765625 C 3.65625 -1.597656 3.878906 -1.515625 4.171875 -1.515625 C 4.503906 -1.515625 4.796875 -1.609375 5.046875 -1.796875 Z M 5.203125 -1.796875 "/></g></g></g><g fill="#a6a6a6" fill-opacity="1"><g transform="translate(127.631033, 175.389931)"><g><path d="M 2.9375 0.140625 C 2.457031 0.140625 2.035156 0.0507812 1.671875 -0.125 C 1.316406 -0.300781 1.046875 -0.5625 0.859375 -0.90625 C 0.671875 -1.25 0.578125 -1.660156 0.578125 -2.140625 C 0.578125 -2.585938 0.671875 -2.960938 0.859375 -3.265625 C 1.046875 -3.566406 1.335938 -3.8125 1.734375 -4 C 2.140625 -4.195312 2.664062 -4.347656 3.3125 -4.453125 C 3.769531 -4.523438 4.113281 -4.601562 4.34375 -4.6875 C 4.582031 -4.78125 4.738281 -4.878906 4.8125 -4.984375 C 4.894531 -5.097656 4.9375 -5.238281 4.9375 -5.40625 C 4.9375 -5.644531 4.851562 -5.828125 4.6875 -5.953125 C 4.519531 -6.085938 4.238281 -6.15625 3.84375 -6.15625 C 3.425781 -6.15625 3.03125 -6.0625 2.65625 -5.875 C 2.28125 -5.6875 1.953125 -5.441406 1.671875 -5.140625 L 1.53125 -5.140625 L 0.75 -6.328125 C 1.125 -6.753906 1.585938 -7.082031 2.140625 -7.3125 C 2.691406 -7.550781 3.296875 -7.671875 3.953125 -7.671875 C 4.941406 -7.671875 5.660156 -7.457031 6.109375 -7.03125 C 6.554688 -6.613281 6.78125 -6.015625 6.78125 -5.234375 L 6.78125 -1.96875 C 6.78125 -1.632812 6.925781 -1.46875 7.21875 -1.46875 C 7.332031 -1.46875 7.445312 -1.484375 7.5625 -1.515625 L 7.65625 -1.5 L 7.796875 -0.171875 C 7.691406 -0.109375 7.546875 -0.0546875 7.359375 -0.015625 C 7.171875 0.0234375 6.960938 0.046875 6.734375 0.046875 C 6.285156 0.046875 5.9375 -0.0351562 5.6875 -0.203125 C 5.4375 -0.378906 5.253906 -0.648438 5.140625 -1.015625 L 5 -1.03125 C 4.625 -0.25 3.9375 0.140625 2.9375 0.140625 Z M 3.53125 -1.265625 C 3.96875 -1.265625 4.316406 -1.410156 4.578125 -1.703125 C 4.847656 -2.003906 4.984375 -2.414062 4.984375 -2.9375 L 4.984375 -3.703125 L 4.84375 -3.734375 C 4.726562 -3.640625 4.578125 -3.5625 4.390625 -3.5 C 4.210938 -3.4375 3.953125 -3.375 3.609375 -3.3125 C 3.191406 -3.25 2.894531 -3.132812 2.71875 -2.96875 C 2.539062 -2.800781 2.453125 -2.566406 2.453125 -2.265625 C 2.453125 -1.941406 2.546875 -1.691406 2.734375 -1.515625 C 2.929688 -1.347656 3.195312 -1.265625 3.53125 -1.265625 Z M 3.53125 -1.265625 "/></g></g></g><g fill="#a6a6a6" fill-opacity="1"><g transform="translate(135.572554, 175.389931)"><g><path d="M 3.71875 0.140625 C 3.125 0.140625 2.597656 0 2.140625 -0.28125 C 1.679688 -0.570312 1.320312 -1.007812 1.0625 -1.59375 C 0.800781 -2.1875 0.671875 -2.910156 0.671875 -3.765625 C 0.671875 -4.617188 0.800781 -5.335938 1.0625 -5.921875 C 1.332031 -6.515625 1.703125 -6.953125 2.171875 -7.234375 C 2.648438 -7.523438 3.195312 -7.671875 3.8125 -7.671875 C 4.28125 -7.671875 4.6875 -7.585938 5.03125 -7.421875 C 5.375 -7.265625 5.664062 -7.015625 5.90625 -6.671875 L 6.046875 -6.71875 L 6.046875 -10.5625 L 7.9375 -10.5625 L 7.9375 0 L 6.046875 0 L 6.046875 -0.96875 L 5.90625 -1 C 5.695312 -0.644531 5.410156 -0.363281 5.046875 -0.15625 C 4.679688 0.0390625 4.238281 0.140625 3.71875 0.140625 Z M 4.34375 -1.46875 C 4.875 -1.46875 5.289062 -1.65625 5.59375 -2.03125 C 5.90625 -2.414062 6.0625 -2.992188 6.0625 -3.765625 C 6.0625 -4.535156 5.90625 -5.113281 5.59375 -5.5 C 5.289062 -5.882812 4.875 -6.078125 4.34375 -6.078125 C 3.78125 -6.078125 3.351562 -5.890625 3.0625 -5.515625 C 2.769531 -5.140625 2.625 -4.554688 2.625 -3.765625 C 2.625 -2.972656 2.769531 -2.390625 3.0625 -2.015625 C 3.351562 -1.648438 3.78125 -1.46875 4.34375 -1.46875 Z M 4.34375 -1.46875 "/></g></g></g><g fill="#a6a6a6" fill-opacity="1"><g transform="translate(144.599802, 175.389931)"><g><path d="M 4.375 0.140625 C 3.632812 0.140625 2.984375 -0.0078125 2.421875 -0.3125 C 1.867188 -0.613281 1.4375 -1.054688 1.125 -1.640625 C 0.820312 -2.222656 0.671875 -2.929688 0.671875 -3.765625 C 0.671875 -4.585938 0.820312 -5.289062 1.125 -5.875 C 1.4375 -6.46875 1.867188 -6.914062 2.421875 -7.21875 C 2.984375 -7.519531 3.632812 -7.671875 4.375 -7.671875 C 5.113281 -7.671875 5.757812 -7.519531 6.3125 -7.21875 C 6.875 -6.914062 7.304688 -6.46875 7.609375 -5.875 C 7.921875 -5.289062 8.078125 -4.585938 8.078125 -3.765625 C 8.078125 -2.929688 7.921875 -2.222656 7.609375 -1.640625 C 7.304688 -1.054688 6.875 -0.613281 6.3125 -0.3125 C 5.757812 -0.0078125 5.113281 0.140625 4.375 0.140625 Z M 4.375 -1.46875 C 5.539062 -1.46875 6.125 -2.234375 6.125 -3.765625 C 6.125 -4.554688 5.972656 -5.140625 5.671875 -5.515625 C 5.378906 -5.890625 4.945312 -6.078125 4.375 -6.078125 C 3.207031 -6.078125 2.625 -5.304688 2.625 -3.765625 C 2.625 -2.234375 3.207031 -1.46875 4.375 -1.46875 Z M 4.375 -1.46875 "/></g></g></g><g fill="#a6a6a6" fill-opacity="1"><g transform="translate(153.353911, 175.389931)"><g><path d="M 3.515625 0.140625 C 3.003906 0.140625 2.535156 0.0820312 2.109375 -0.03125 C 1.679688 -0.15625 1.316406 -0.320312 1.015625 -0.53125 C 0.710938 -0.75 0.488281 -0.992188 0.34375 -1.265625 L 1.390625 -2.390625 L 1.53125 -2.390625 C 1.78125 -2.054688 2.078125 -1.804688 2.421875 -1.640625 C 2.765625 -1.472656 3.132812 -1.390625 3.53125 -1.390625 C 3.90625 -1.390625 4.1875 -1.453125 4.375 -1.578125 C 4.5625 -1.710938 4.65625 -1.90625 4.65625 -2.15625 C 4.65625 -2.34375 4.585938 -2.5 4.453125 -2.625 C 4.316406 -2.757812 4.097656 -2.863281 3.796875 -2.9375 L 2.796875 -3.171875 C 2.054688 -3.347656 1.515625 -3.617188 1.171875 -3.984375 C 0.828125 -4.359375 0.65625 -4.828125 0.65625 -5.390625 C 0.65625 -5.859375 0.769531 -6.265625 1 -6.609375 C 1.238281 -6.953125 1.578125 -7.210938 2.015625 -7.390625 C 2.453125 -7.578125 2.957031 -7.671875 3.53125 -7.671875 C 4.207031 -7.671875 4.769531 -7.570312 5.21875 -7.375 C 5.664062 -7.1875 6.015625 -6.925781 6.265625 -6.59375 L 5.25 -5.5 L 5.125 -5.5 C 4.914062 -5.738281 4.675781 -5.910156 4.40625 -6.015625 C 4.144531 -6.128906 3.851562 -6.1875 3.53125 -6.1875 C 2.789062 -6.1875 2.421875 -5.953125 2.421875 -5.484375 C 2.421875 -5.296875 2.488281 -5.140625 2.625 -5.015625 C 2.757812 -4.890625 3.003906 -4.789062 3.359375 -4.71875 L 4.28125 -4.5 C 5.050781 -4.34375 5.613281 -4.082031 5.96875 -3.71875 C 6.320312 -3.351562 6.5 -2.867188 6.5 -2.265625 C 6.5 -1.785156 6.378906 -1.363281 6.140625 -1 C 5.898438 -0.632812 5.554688 -0.351562 5.109375 -0.15625 C 4.660156 0.0390625 4.128906 0.140625 3.515625 0.140625 Z M 3.515625 0.140625 "/></g></g></g></svg>