<svg xmlns="http://www.w3.org/2000/svg" xmlns:xlink="http://www.w3.org/1999/xlink" width="50" zoomAndPan="magnify" viewBox="0 0 37.5 37.499999" height="50" preserveAspectRatio="xMidYMid meet" version="1.0"><defs><clipPath id="fb0ee8e988"><path d="M 12.582031 3.699219 L 24.425781 3.699219 L 24.425781 33.304688 L 12.582031 33.304688 Z M 12.582031 3.699219 " clip-rule="nonzero"/></clipPath></defs><g clip-path="url(#fb0ee8e988)"><path fill="#000000" d="M 23.582031 10.804688 L 21.082031 7.152344 L 21.320312 7.152344 C 21.679688 7.152344 21.996094 6.875 21.996094 6.480469 L 21.996094 4.375 C 21.996094 4.019531 21.71875 3.699219 21.320312 3.699219 L 15.6875 3.699219 C 15.328125 3.699219 15.011719 3.976562 15.011719 4.375 L 15.011719 6.480469 C 15.011719 6.835938 15.289062 7.152344 15.6875 7.152344 L 15.921875 7.152344 L 13.421875 10.765625 C 13.382812 10.804688 12.589844 11.796875 12.589844 14.296875 L 12.589844 29.773438 C 12.589844 29.8125 12.628906 33.304688 16.28125 33.304688 L 20.726562 33.304688 C 24.375 33.304688 24.417969 29.8125 24.417969 29.773438 L 24.417969 14.296875 C 24.417969 11.796875 23.621094 10.84375 23.582031 10.804688 Z M 15.6875 6.796875 C 15.527344 6.796875 15.40625 6.675781 15.40625 6.519531 L 15.40625 4.414062 C 15.40625 4.257812 15.527344 4.136719 15.6875 4.136719 L 21.320312 4.136719 C 21.480469 4.136719 21.597656 4.257812 21.597656 4.414062 L 21.597656 6.519531 C 21.597656 6.675781 21.480469 6.796875 21.320312 6.796875 Z M 24.019531 29.8125 C 24.019531 29.933594 23.980469 32.949219 20.726562 32.949219 L 16.28125 32.949219 C 13.027344 32.949219 12.988281 29.933594 12.988281 29.8125 L 12.988281 14.335938 C 12.988281 11.996094 13.703125 11.082031 13.742188 11.042969 L 16.398438 7.191406 L 20.644531 7.191406 L 23.304688 11.082031 C 23.304688 11.082031 24.019531 11.996094 24.019531 14.375 Z M 24.019531 29.8125 " fill-opacity="1" fill-rule="nonzero"/></g></svg>