<svg xmlns="http://www.w3.org/2000/svg" xmlns:xlink="http://www.w3.org/1999/xlink" width="50" zoomAndPan="magnify" viewBox="0 0 37.5 37.499999" height="50" preserveAspectRatio="xMidYMid meet" version="1.0"><defs><clipPath id="8c0425f224"><path d="M 2.265625 7.300781 L 34.832031 7.300781 L 34.832031 29.503906 L 2.265625 29.503906 Z M 2.265625 7.300781 " clip-rule="nonzero"/></clipPath></defs><g clip-path="url(#8c0425f224)"><path fill="#010101" d="M 33.496094 24.25 C 33.496094 24.246094 33.496094 24.242188 33.5 24.242188 C 34.082031 23.046875 34.832031 17.609375 32.359375 13.363281 C 30.675781 10.472656 27.902344 8.703125 24.101562 8.074219 L 24.113281 7.964844 C 24.140625 7.699219 23.945312 7.464844 23.675781 7.4375 L 22.621094 7.328125 C 22.351562 7.300781 22.113281 7.492188 22.085938 7.757812 L 22.074219 7.855469 C 18.019531 7.625 14.824219 8.625 12.585938 10.84375 C 9.070312 14.316406 9.050781 19.554688 9.085938 20.597656 C 8.242188 21.144531 4.125 23.859375 2.964844 25.121094 C 2.902344 25.1875 2.839844 25.257812 2.789062 25.335938 C 2.742188 25.402344 2.695312 25.480469 2.648438 25.554688 C 2.34375 26.097656 2.265625 26.597656 2.421875 26.996094 C 2.566406 27.359375 2.882812 27.621094 3.363281 27.78125 C 3.527344 27.835938 3.703125 27.863281 3.882812 27.863281 C 4.878906 27.863281 6.167969 27.054688 7.71875 25.464844 C 9.148438 25.90625 10.707031 26.683594 12.363281 27.796875 C 14.019531 28.90625 15.898438 29.503906 17.71875 29.503906 C 17.933594 29.503906 18.144531 29.496094 18.355469 29.476562 C 21.53125 29.238281 24.4375 27.539062 27.007812 24.441406 L 33.199219 24.441406 C 33.320312 24.441406 33.441406 24.355469 33.496094 24.25 Z M 31.796875 13.683594 C 33.945312 17.375 33.527344 22.132812 33.035156 23.667969 C 32.453125 23.410156 31.078125 22.984375 27.875 22.523438 C 27.601562 22.480469 27.304688 22.441406 26.980469 22.394531 C 27.53125 20.992188 29.199219 16.117188 27.519531 12.183594 C 26.929688 10.796875 25.972656 9.6875 24.683594 8.851562 C 27.921875 9.539062 30.320312 11.148438 31.796875 13.683594 Z M 13.046875 11.289062 C 15.171875 9.191406 18.230469 8.253906 22.136719 8.496094 C 22.320312 8.503906 22.492188 8.535156 22.671875 8.550781 C 24.722656 9.332031 26.152344 10.636719 26.921875 12.429688 C 28.558594 16.257812 26.746094 21.238281 26.316406 22.308594 C 25.855469 22.253906 25.335938 22.191406 24.742188 22.125 C 21.84375 21.808594 19.585938 21.253906 17.597656 20.765625 C 15.632812 20.28125 13.992188 19.878906 12.402344 19.878906 C 11.515625 19.878906 10.640625 20.003906 9.734375 20.308594 C 9.734375 18.886719 9.996094 14.300781 13.046875 11.289062 Z M 3.574219 27.175781 C 3.28125 27.082031 3.097656 26.941406 3.027344 26.765625 C 2.707031 25.949219 3.804688 25.128906 4.472656 25.042969 C 4.679688 25.019531 4.886719 25.011719 5.105469 25.011719 C 5.699219 25.011719 6.339844 25.09375 7.019531 25.257812 C 5.523438 26.742188 4.3125 27.421875 3.574219 27.175781 Z M 18.308594 28.839844 C 16.441406 28.984375 14.460938 28.425781 12.734375 27.265625 C 10.953125 26.070312 9.269531 25.238281 7.726562 24.789062 C 6.664062 24.472656 5.683594 24.347656 4.785156 24.390625 C 6.597656 22.984375 9.320312 21.210938 9.5625 21.050781 C 12.082031 20.066406 14.332031 20.617188 17.445312 21.382812 C 19.453125 21.878906 21.730469 22.4375 24.671875 22.757812 C 25.753906 22.878906 26.574219 22.980469 27.257812 23.078125 C 27.066406 23.339844 26.863281 23.609375 26.613281 23.917969 C 24.132812 26.953125 21.339844 28.609375 18.308594 28.839844 Z M 27.519531 23.800781 C 27.683594 23.589844 27.832031 23.382812 27.972656 23.183594 C 29.496094 23.40625 30.574219 23.621094 31.324219 23.800781 Z M 27.519531 23.800781 " fill-opacity="1" fill-rule="nonzero"/></g></svg>