<svg xmlns="http://www.w3.org/2000/svg" xmlns:xlink="http://www.w3.org/1999/xlink" width="50" zoomAndPan="magnify" viewBox="0 0 37.5 37.499999" height="50" preserveAspectRatio="xMidYMid meet" version="1.0"><defs><clipPath id="03413fcbaa"><path d="M 3.710938 4.613281 L 33.316406 4.613281 L 33.316406 32.738281 L 3.710938 32.738281 Z M 3.710938 4.613281 " clip-rule="nonzero"/></clipPath></defs><g clip-path="url(#03413fcbaa)"><path fill="#404040" d="M 25.265625 32.738281 L 11.75 32.738281 C 11.085938 32.738281 10.664062 32.378906 10.664062 31.816406 L 10.664062 15.394531 C 10.300781 16.09375 9.640625 17.359375 9.265625 18.050781 C 9.128906 18.457031 8.71875 18.589844 8.253906 18.324219 C 7.726562 18.050781 6.886719 17.605469 6.070312 17.179688 C 5.367188 16.804688 4.671875 16.441406 4.199219 16.199219 C 3.972656 16.074219 3.835938 15.90625 3.78125 15.707031 C 3.714844 15.464844 3.777344 15.1875 3.953125 14.878906 C 3.980469 14.816406 7.347656 7.484375 8.117188 6.808594 C 8.644531 6.359375 9.46875 6.132812 11.121094 5.691406 C 12.070312 5.433594 13.242188 5.117188 14.78125 4.648438 L 14.882812 4.613281 L 14.9375 4.707031 C 15.476562 5.683594 16.835938 6.289062 18.484375 6.289062 C 20.132812 6.289062 21.53125 5.667969 22.050781 4.714844 L 22.105469 4.617188 L 22.214844 4.652344 C 23.75 5.125 24.929688 5.441406 25.878906 5.695312 C 27.539062 6.140625 28.371094 6.367188 28.890625 6.816406 C 29.640625 7.457031 32.738281 14.140625 33.085938 14.898438 C 33.257812 15.203125 33.3125 15.484375 33.242188 15.722656 C 33.1875 15.921875 33.046875 16.085938 32.820312 16.203125 L 32.453125 16.398438 C 31.375 16.972656 29.652344 17.875 28.765625 18.339844 C 28.316406 18.59375 27.90625 18.476562 27.742188 18.042969 C 27.375 17.351562 26.703125 16.09375 26.335938 15.394531 L 26.335938 31.824219 C 26.335938 32.378906 25.914062 32.738281 25.265625 32.738281 Z M 10.9375 14.277344 L 10.9375 31.824219 C 10.9375 32.226562 11.242188 32.46875 11.75 32.46875 L 25.265625 32.46875 C 25.761719 32.46875 26.054688 32.226562 26.054688 31.824219 L 26.054688 14.285156 L 26.316406 14.769531 C 26.316406 14.769531 27.449219 16.917969 27.980469 17.910156 C 28.105469 18.230469 28.324219 18.257812 28.628906 18.078125 C 29.515625 17.613281 31.238281 16.710938 32.316406 16.136719 L 32.683594 15.941406 C 32.839844 15.859375 32.9375 15.75 32.972656 15.625 C 33.019531 15.457031 32.972656 15.25 32.835938 15.003906 C 31.203125 11.453125 29.210938 7.4375 28.710938 7.007812 C 28.242188 6.601562 27.429688 6.378906 25.804688 5.945312 C 24.875 5.695312 23.722656 5.386719 22.234375 4.9375 C 21.625 5.925781 20.171875 6.558594 18.484375 6.558594 C 17.148438 6.558594 15.484375 6.132812 14.753906 4.9375 C 13.265625 5.394531 12.117188 5.703125 11.1875 5.953125 C 9.625 6.375 8.765625 6.601562 8.289062 7.015625 C 7.75 7.492188 5.542969 12.050781 4.191406 15.007812 C 4.042969 15.265625 3.996094 15.472656 4.042969 15.636719 C 4.078125 15.761719 4.171875 15.875 4.328125 15.957031 C 4.800781 16.203125 5.488281 16.5625 6.199219 16.9375 C 7.019531 17.367188 7.859375 17.808594 8.390625 18.089844 C 8.703125 18.269531 8.921875 18.230469 9.019531 17.945312 C 9.558594 16.945312 10.671875 14.800781 10.683594 14.78125 Z M 10.9375 14.277344 " fill-opacity="1" fill-rule="nonzero"/></g></svg>