<svg xmlns="http://www.w3.org/2000/svg" xmlns:xlink="http://www.w3.org/1999/xlink" width="50" zoomAndPan="magnify" viewBox="0 0 37.5 37.499999" height="50" preserveAspectRatio="xMidYMid meet" version="1.0"><defs><clipPath id="d74a0d352d"><path d="M 6.925781 5.550781 L 23 5.550781 L 23 24 L 6.925781 24 Z M 6.925781 5.550781 " clip-rule="nonzero"/></clipPath><clipPath id="9989d6e8a8"><path d="M 11 15 L 29.871094 15 L 29.871094 31.457031 L 11 31.457031 Z M 11 15 " clip-rule="nonzero"/></clipPath></defs><g clip-path="url(#d74a0d352d)"><path fill="#000000" d="M 11.867188 23.960938 C 11.621094 23.960938 11.371094 23.859375 11.121094 23.757812 C 10.773438 23.558594 10.523438 23.207031 10.421875 22.855469 L 7.035156 9.976562 C 6.933594 9.574219 6.984375 9.171875 7.183594 8.820312 C 7.382812 8.519531 7.683594 8.265625 8.082031 8.117188 L 16.902344 5.753906 C 17.703125 5.550781 18.5 6.003906 18.75 6.808594 L 22.136719 19.683594 C 22.335938 20.488281 21.886719 21.246094 21.089844 21.546875 L 12.269531 23.910156 C 12.117188 23.910156 12.019531 23.960938 11.867188 23.960938 Z M 11.867188 23.960938 " fill-opacity="1" fill-rule="evenodd"/></g><path fill="#000000" d="M 21.089844 26.777344 C 20.992188 26.777344 20.839844 26.726562 20.742188 26.726562 C 20.691406 26.726562 20.691406 26.726562 20.691406 26.726562 L 12.714844 24.515625 L 21.191406 22.25 L 21.242188 22.25 L 21.339844 22.199219 C 22.386719 21.847656 23.085938 20.742188 22.835938 19.636719 L 22.835938 19.585938 L 20.195312 9.625 L 24.929688 10.933594 C 25.675781 11.132812 26.175781 11.988281 25.976562 12.792969 L 22.535156 25.671875 C 22.386719 26.324219 21.789062 26.777344 21.089844 26.777344 Z M 21.089844 26.777344 " fill-opacity="1" fill-rule="evenodd"/><g clip-path="url(#9989d6e8a8)"><path fill="#000000" d="M 18.898438 31.457031 C 18.546875 31.457031 18.148438 31.304688 17.851562 31.003906 L 11.867188 25.015625 L 20.441406 27.382812 C 20.542969 27.429688 20.59375 27.429688 20.640625 27.429688 C 20.792969 27.429688 20.941406 27.480469 21.089844 27.480469 C 22.089844 27.480469 22.933594 26.828125 23.183594 25.871094 L 25.828125 15.964844 L 29.265625 19.484375 C 29.863281 20.085938 29.863281 20.992188 29.265625 21.597656 L 19.945312 31.003906 C 19.644531 31.304688 19.296875 31.457031 18.898438 31.457031 Z M 18.898438 31.457031 " fill-opacity="1" fill-rule="evenodd"/></g></svg>