<svg xmlns="http://www.w3.org/2000/svg" xmlns:xlink="http://www.w3.org/1999/xlink" width="50" zoomAndPan="magnify" viewBox="0 0 37.5 37.499999" height="50" preserveAspectRatio="xMidYMid meet" version="1.0"><defs><clipPath id="06dec91288"><path d="M 5.808594 5.441406 L 27 5.441406 L 27 28.160156 L 5.808594 28.160156 Z M 5.808594 5.441406 " clip-rule="nonzero"/></clipPath><clipPath id="ebc12e2923"><path d="M 8.03125 5.441406 L 24.753906 5.441406 C 25.980469 5.441406 26.972656 6.433594 26.972656 7.660156 L 26.972656 25.863281 C 26.972656 27.089844 25.980469 28.082031 24.753906 28.082031 L 8.03125 28.082031 C 6.804688 28.082031 5.808594 27.089844 5.808594 25.863281 L 5.808594 7.660156 C 5.808594 6.433594 6.804688 5.441406 8.03125 5.441406 Z M 8.03125 5.441406 " clip-rule="nonzero"/></clipPath><clipPath id="d78339e16e"><path d="M 15.0625 15.433594 L 31.195312 15.433594 L 31.195312 31.5625 L 15.0625 31.5625 Z M 15.0625 15.433594 " clip-rule="nonzero"/></clipPath><clipPath id="c985170943"><path d="M 23.128906 15.433594 C 18.671875 15.433594 15.0625 19.042969 15.0625 23.496094 C 15.0625 27.953125 18.671875 31.5625 23.128906 31.5625 C 27.582031 31.5625 31.195312 27.953125 31.195312 23.496094 C 31.195312 19.042969 27.582031 15.433594 23.128906 15.433594 Z M 23.128906 15.433594 " clip-rule="nonzero"/></clipPath></defs><g clip-path="url(#06dec91288)"><g clip-path="url(#ebc12e2923)"><path stroke-linecap="butt" transform="matrix(0.740132, 0, 0, 0.740132, 5.810033, 5.440128)" fill="none" stroke-linejoin="miter" d="M 3.001111 0.00172639 L 25.595279 0.00172639 C 27.252502 0.00172639 28.593057 1.342282 28.593057 2.999504 L 28.593057 27.59395 C 28.593057 29.251173 27.252502 30.591728 25.595279 30.591728 L 3.001111 30.591728 C 1.343889 30.591728 -0.00194458 29.251173 -0.00194458 27.59395 L -0.00194458 2.999504 C -0.00194458 1.342282 1.343889 0.00172639 3.001111 0.00172639 Z M 3.001111 0.00172639 " stroke="#000000" stroke-width="1" stroke-opacity="1" stroke-miterlimit="4"/></g></g><g clip-path="url(#d78339e16e)"><g clip-path="url(#c985170943)"><path stroke-linecap="butt" transform="matrix(0.740132, 0, 0, 0.740132, 15.061677, 15.431742)" fill="none" stroke-linejoin="miter" d="M 10.899724 0.00250142 C 4.877779 0.00250142 0.00111183 4.879168 0.00111183 10.895836 C 0.00111183 16.91778 4.877779 21.794447 10.899724 21.794447 C 16.916391 21.794447 21.798336 16.91778 21.798336 10.895836 C 21.798336 4.879168 16.916391 0.00250142 10.899724 0.00250142 Z M 10.899724 0.00250142 " stroke="#000000" stroke-width="1" stroke-opacity="1" stroke-miterlimit="4"/></g></g></svg>