<svg xmlns="http://www.w3.org/2000/svg" xmlns:xlink="http://www.w3.org/1999/xlink" width="50" zoomAndPan="magnify" viewBox="0 0 37.5 37.499999" height="50" preserveAspectRatio="xMidYMid meet" version="1.0"><defs><clipPath id="aeb2242537"><path d="M 4 3 L 35 3 L 35 36 L 4 36 Z M 4 3 " clip-rule="nonzero"/></clipPath><clipPath id="f1943c1cb7"><path d="M -1.359375 13.761719 L 22.25 -1.519531 L 38.339844 23.332031 L 14.726562 38.613281 Z M -1.359375 13.761719 " clip-rule="nonzero"/></clipPath><clipPath id="f0b615141f"><path d="M -1.359375 13.761719 L 22.25 -1.519531 L 38.339844 23.332031 L 14.726562 38.613281 Z M -1.359375 13.761719 " clip-rule="nonzero"/></clipPath><clipPath id="993a14a91f"><path d="M 7.671875 3.582031 L 29 3.582031 L 29 34 L 7.671875 34 Z M 7.671875 3.582031 " clip-rule="nonzero"/></clipPath><clipPath id="3612cfd385"><path d="M 14 3.582031 L 18 3.582031 L 18 13 L 14 13 Z M 14 3.582031 " clip-rule="nonzero"/></clipPath><clipPath id="f42238d3e0"><path d="M 22 24 L 29.878906 24 L 29.878906 32 L 22 32 Z M 22 24 " clip-rule="nonzero"/></clipPath></defs><g clip-path="url(#aeb2242537)"><g clip-path="url(#f1943c1cb7)"><g clip-path="url(#f0b615141f)"><path fill="#78dedb" d="M 31.492188 27.550781 C 31.449219 27.578125 31.40625 27.605469 31.363281 27.632812 C 31.179688 27.753906 30.992188 27.875 30.808594 27.992188 C 30.632812 28.109375 30.441406 28.179688 30.246094 28.253906 C 29.777344 28.429688 29.300781 28.585938 28.8125 28.703125 C 28.484375 28.78125 28.152344 28.839844 27.820312 28.894531 C 27.066406 29.019531 26.304688 29.101562 25.554688 29.25 C 25.074219 29.34375 24.609375 29.484375 24.160156 29.6875 C 23.945312 29.789062 23.734375 29.890625 23.527344 30.003906 C 23.40625 30.074219 23.28125 30.132812 23.171875 30.21875 C 22.960938 30.371094 22.753906 30.527344 22.550781 30.695312 C 22.316406 30.886719 22.09375 31.089844 21.871094 31.296875 C 21.6875 31.464844 21.515625 31.644531 21.347656 31.828125 C 21.039062 32.160156 20.746094 32.507812 20.46875 32.871094 C 20.144531 33.300781 19.804688 33.710938 19.429688 34.09375 C 19.230469 34.300781 19.011719 34.484375 18.785156 34.660156 C 18.503906 34.882812 18.199219 35.070312 17.894531 35.261719 C 17.488281 35.511719 17.046875 35.671875 16.574219 35.742188 C 16.375 35.769531 16.179688 35.785156 15.980469 35.800781 C 15.789062 35.8125 15.601562 35.789062 15.414062 35.765625 C 15.230469 35.742188 15.046875 35.710938 14.863281 35.671875 C 14.46875 35.585938 14.097656 35.4375 13.738281 35.261719 C 13.167969 34.976562 12.648438 34.621094 12.160156 34.210938 C 11.921875 34.011719 11.707031 33.785156 11.515625 33.539062 C 11.449219 33.457031 11.382812 33.375 11.324219 33.285156 C 11.25 33.144531 11.140625 33.023438 11.042969 32.898438 C 10.933594 32.753906 10.886719 32.574219 10.769531 32.433594 C 10.644531 32.214844 10.546875 31.980469 10.449219 31.746094 C 10.335938 31.460938 10.222656 31.175781 10.140625 30.878906 C 10.0625 30.59375 10.003906 30.3125 9.957031 30.023438 C 9.914062 29.746094 9.871094 29.472656 9.84375 29.195312 C 9.785156 28.632812 9.746094 28.066406 9.71875 27.5 C 9.695312 26.988281 9.65625 26.472656 9.632812 25.957031 C 9.609375 25.507812 9.570312 25.054688 9.511719 24.609375 C 9.433594 24.035156 9.328125 23.464844 9.128906 22.917969 C 9.027344 22.636719 8.910156 22.363281 8.773438 22.097656 C 8.671875 21.894531 8.554688 21.707031 8.421875 21.527344 C 8.28125 21.332031 8.140625 21.136719 7.980469 20.957031 C 7.816406 20.777344 7.667969 20.582031 7.511719 20.394531 C 7.375 20.230469 7.234375 20.066406 7.089844 19.90625 C 6.921875 19.707031 6.746094 19.511719 6.574219 19.316406 C 6.429688 19.148438 6.28125 18.980469 6.136719 18.8125 C 6.027344 18.683594 5.914062 18.554688 5.816406 18.421875 C 5.605469 18.125 5.375 17.84375 5.183594 17.535156 C 4.78125 16.875 4.46875 16.179688 4.332031 15.410156 C 4.257812 15.007812 4.230469 14.597656 4.222656 14.1875 C 4.214844 13.8125 4.246094 13.4375 4.3125 13.066406 C 4.398438 12.59375 4.546875 12.136719 4.71875 11.6875 C 4.960938 11.050781 5.320312 10.488281 5.71875 9.945312 C 6.023438 9.527344 6.34375 9.117188 6.707031 8.746094 C 6.878906 8.566406 7.0625 8.398438 7.257812 8.242188 C 7.5 8.050781 7.746094 7.871094 8.003906 7.703125 C 8.21875 7.566406 8.441406 7.449219 8.664062 7.328125 C 8.859375 7.222656 9.058594 7.136719 9.257812 7.042969 C 9.492188 6.9375 9.738281 6.863281 9.988281 6.800781 C 10.339844 6.714844 10.699219 6.664062 11.0625 6.636719 C 11.382812 6.609375 11.703125 6.59375 12.023438 6.570312 C 12.320312 6.542969 12.617188 6.5 12.917969 6.464844 C 13.402344 6.402344 13.875 6.277344 14.347656 6.140625 C 14.710938 6.035156 15.058594 5.882812 15.410156 5.742188 C 15.570312 5.679688 15.730469 5.605469 15.851562 5.472656 C 15.875 5.449219 15.90625 5.433594 15.933594 5.417969 C 16.117188 5.296875 16.304688 5.175781 16.488281 5.054688 C 16.734375 4.894531 16.996094 4.757812 17.253906 4.613281 C 17.453125 4.503906 17.652344 4.398438 17.855469 4.296875 C 18.140625 4.15625 18.4375 4.046875 18.738281 3.953125 C 19.113281 3.835938 19.496094 3.738281 19.886719 3.691406 C 20.328125 3.640625 20.777344 3.609375 21.226562 3.648438 C 21.75 3.699219 22.222656 3.886719 22.660156 4.179688 C 22.921875 4.359375 23.167969 4.558594 23.375 4.800781 C 23.566406 5.027344 23.734375 5.277344 23.875 5.542969 C 24.113281 6 24.226562 6.488281 24.332031 6.984375 C 24.449219 7.53125 24.609375 8.066406 24.816406 8.582031 C 24.890625 8.769531 24.976562 8.953125 25.089844 9.121094 C 25.226562 9.324219 25.347656 9.53125 25.488281 9.726562 C 25.605469 9.898438 25.742188 10.050781 25.875 10.210938 C 26.054688 10.421875 26.242188 10.625 26.4375 10.824219 C 26.683594 11.082031 26.941406 11.335938 27.226562 11.554688 C 27.59375 11.832031 27.96875 12.097656 28.34375 12.367188 C 28.492188 12.472656 28.648438 12.574219 28.808594 12.671875 C 29.101562 12.855469 29.398438 13.03125 29.695312 13.210938 C 30.042969 13.414062 30.390625 13.617188 30.730469 13.824219 C 31.167969 14.089844 31.605469 14.355469 32.003906 14.679688 C 32.34375 14.957031 32.667969 15.25 32.957031 15.585938 C 33.140625 15.796875 33.316406 16.019531 33.464844 16.261719 C 33.574219 16.433594 33.6875 16.605469 33.796875 16.773438 C 34.207031 17.433594 34.402344 18.160156 34.449219 18.929688 C 34.476562 19.390625 34.429688 19.847656 34.355469 20.300781 C 34.285156 20.722656 34.21875 21.144531 34.113281 21.558594 C 34.035156 21.875 33.960938 22.191406 33.902344 22.507812 C 33.824219 22.925781 33.757812 23.339844 33.667969 23.753906 C 33.582031 24.144531 33.46875 24.53125 33.332031 24.90625 C 33.195312 25.289062 33.039062 25.664062 32.839844 26.015625 C 32.566406 26.492188 32.234375 26.925781 31.8125 27.285156 C 31.707031 27.378906 31.601562 27.46875 31.492188 27.550781 Z M 31.492188 27.550781 " fill-opacity="1" fill-rule="nonzero"/></g></g></g><g clip-path="url(#993a14a91f)"><path fill="#000000" d="M 14.167969 3.761719 C 14.167969 3.761719 7.707031 3.847656 7.789062 9.820312 C 7.875 15.792969 9.050781 21.074219 10.980469 24.019531 C 12.910156 26.960938 17.863281 34.667969 23.488281 33.890625 C 23.488281 33.890625 26.257812 33.28125 28.355469 31.898438 L 21.554688 26.441406 C 21.554688 26.441406 19.542969 27.742188 18.28125 26.011719 C 17.023438 24.277344 13.078125 16.226562 13.078125 16.226562 C 13.078125 16.226562 11.988281 13.628906 14.421875 12.503906 Z M 14.167969 3.761719 " fill-opacity="1" fill-rule="nonzero"/></g><g clip-path="url(#3612cfd385)"><path fill="#000000" d="M 14.925781 3.761719 C 14.925781 3.761719 15.429688 3.589844 16.351562 4.109375 C 17.273438 4.628906 17.273438 5.058594 17.273438 5.058594 L 17.359375 11.035156 C 17.359375 11.035156 17.109375 11.378906 16.773438 11.726562 C 16.4375 12.070312 15.34375 12.59375 15.175781 12.246094 C 15.007812 11.898438 14.925781 3.761719 14.925781 3.761719 Z M 14.925781 3.761719 " fill-opacity="1" fill-rule="nonzero"/></g><g clip-path="url(#f42238d3e0)"><path fill="#000000" d="M 22.121094 25.804688 L 23.992188 24.796875 C 23.992188 24.796875 24.410156 24.710938 25.082031 25.144531 C 25.753906 25.578125 29.277344 28.433594 29.277344 28.433594 C 29.277344 28.433594 29.867188 28.953125 29.699219 29.558594 C 29.53125 30.167969 29.109375 31.464844 29.109375 31.464844 Z M 22.121094 25.804688 " fill-opacity="1" fill-rule="nonzero"/></g></svg>