<svg xmlns="http://www.w3.org/2000/svg" xmlns:xlink="http://www.w3.org/1999/xlink" width="50" zoomAndPan="magnify" viewBox="0 0 37.5 37.499999" height="50" preserveAspectRatio="xMidYMid meet" version="1.0"><defs><clipPath id="8a1a755be2"><path d="M 2 3 L 32 3 L 32 35 L 2 35 Z M 2 3 " clip-rule="nonzero"/></clipPath><clipPath id="9347356b87"><path d="M 7.984375 1.113281 L 35.417969 7.3125 L 28.894531 36.1875 L 1.460938 29.992188 Z M 7.984375 1.113281 " clip-rule="nonzero"/></clipPath><clipPath id="f8e9cca144"><path d="M 7.984375 1.113281 L 35.417969 7.3125 L 28.894531 36.1875 L 1.460938 29.992188 Z M 7.984375 1.113281 " clip-rule="nonzero"/></clipPath><clipPath id="0e9b61a382"><path d="M 4.214844 15.785156 L 17.535156 15.785156 L 17.535156 29.105469 L 4.214844 29.105469 Z M 4.214844 15.785156 " clip-rule="nonzero"/></clipPath><clipPath id="896600d6dc"><path d="M 11.019531 15.785156 C 7.261719 15.785156 4.214844 18.832031 4.214844 22.589844 C 4.214844 26.347656 7.261719 29.394531 11.019531 29.394531 C 14.777344 29.394531 17.824219 26.347656 17.824219 22.589844 C 17.824219 18.832031 14.777344 15.785156 11.019531 15.785156 Z M 11.019531 15.785156 " clip-rule="nonzero"/></clipPath><clipPath id="bba97c9d84"><path d="M 6.5625 9.050781 L 29.417969 9.050781 L 29.417969 28.957031 L 6.5625 28.957031 Z M 6.5625 9.050781 " clip-rule="nonzero"/></clipPath><clipPath id="17e20b7bf0"><path d="M 17.253906 9.597656 L 6.929688 27.671875 C 6.777344 27.9375 6.777344 28.261719 6.929688 28.527344 C 7.085938 28.792969 7.367188 28.957031 7.671875 28.957031 L 28.304688 28.957031 C 28.609375 28.957031 28.894531 28.792969 29.046875 28.527344 C 29.203125 28.261719 29.203125 27.9375 29.050781 27.671875 L 18.722656 9.597656 C 18.574219 9.335938 18.292969 9.171875 17.988281 9.171875 C 17.6875 9.171875 17.40625 9.335938 17.253906 9.597656 Z M 17.253906 9.597656 " clip-rule="nonzero"/></clipPath><clipPath id="431d5e1818"><path d="M 19.621094 6.457031 L 32.800781 6.457031 L 32.800781 30.566406 L 19.621094 30.566406 Z M 19.621094 6.457031 " clip-rule="nonzero"/></clipPath><clipPath id="16105cabee"><path d="M 21.097656 6.460938 L 31.3125 6.460938 C 31.703125 6.460938 32.082031 6.617188 32.359375 6.894531 C 32.636719 7.171875 32.792969 7.546875 32.792969 7.941406 L 32.792969 29.066406 C 32.792969 29.457031 32.636719 29.835938 32.359375 30.113281 C 32.082031 30.390625 31.703125 30.546875 31.3125 30.546875 L 21.097656 30.546875 C 20.707031 30.546875 20.332031 30.390625 20.050781 30.113281 C 19.773438 29.835938 19.621094 29.457031 19.621094 29.066406 L 19.621094 7.941406 C 19.621094 7.546875 19.773438 7.171875 20.050781 6.894531 C 20.332031 6.617188 20.707031 6.460938 21.097656 6.460938 Z M 21.097656 6.460938 " clip-rule="nonzero"/></clipPath></defs><g clip-path="url(#8a1a755be2)"><g clip-path="url(#9347356b87)"><g clip-path="url(#f8e9cca144)"><path fill="#78dedb" d="M 21.089844 34.242188 C 21.039062 34.230469 20.992188 34.21875 20.941406 34.210938 C 20.726562 34.160156 20.511719 34.113281 20.296875 34.0625 C 20.09375 34.019531 19.90625 33.929688 19.71875 33.84375 C 19.261719 33.632812 18.820312 33.398438 18.394531 33.132812 C 18.109375 32.953125 17.835938 32.757812 17.5625 32.558594 C 16.945312 32.105469 16.359375 31.617188 15.726562 31.1875 C 15.324219 30.910156 14.894531 30.671875 14.4375 30.496094 C 14.21875 30.410156 13.996094 30.332031 13.769531 30.265625 C 13.636719 30.226562 13.503906 30.179688 13.367188 30.15625 C 13.109375 30.117188 12.851562 30.074219 12.59375 30.046875 C 12.292969 30.015625 11.988281 29.996094 11.6875 29.980469 C 11.4375 29.96875 11.191406 29.972656 10.941406 29.980469 C 10.488281 29.992188 10.03125 30.027344 9.582031 30.082031 C 9.050781 30.148438 8.515625 30.191406 7.980469 30.191406 C 7.691406 30.191406 7.410156 30.167969 7.125 30.128906 C 6.769531 30.082031 6.417969 29.996094 6.070312 29.910156 C 5.609375 29.796875 5.183594 29.59375 4.804688 29.300781 C 4.648438 29.179688 4.496094 29.050781 4.347656 28.917969 C 4.207031 28.792969 4.09375 28.640625 3.976562 28.488281 C 3.867188 28.339844 3.761719 28.1875 3.660156 28.03125 C 3.445312 27.6875 3.292969 27.320312 3.167969 26.9375 C 2.96875 26.332031 2.863281 25.710938 2.816406 25.078125 C 2.792969 24.765625 2.804688 24.453125 2.84375 24.144531 C 2.855469 24.039062 2.871094 23.933594 2.890625 23.832031 C 2.941406 23.679688 2.949219 23.519531 2.972656 23.359375 C 3 23.179688 3.09375 23.019531 3.113281 22.839844 C 3.183594 22.59375 3.28125 22.363281 3.382812 22.128906 C 3.503906 21.847656 3.628906 21.566406 3.785156 21.300781 C 3.933594 21.050781 4.097656 20.808594 4.269531 20.574219 C 4.4375 20.351562 4.605469 20.128906 4.78125 19.914062 C 5.144531 19.476562 5.519531 19.054688 5.90625 18.640625 C 6.253906 18.261719 6.597656 17.875 6.949219 17.5 C 7.253906 17.167969 7.550781 16.824219 7.828125 16.46875 C 8.1875 16.011719 8.515625 15.539062 8.769531 15.015625 C 8.902344 14.746094 9.011719 14.46875 9.109375 14.1875 C 9.183594 13.972656 9.234375 13.753906 9.269531 13.535156 C 9.308594 13.296875 9.351562 13.0625 9.367188 12.820312 C 9.382812 12.578125 9.421875 12.335938 9.445312 12.09375 C 9.464844 11.878906 9.484375 11.664062 9.5 11.453125 C 9.519531 11.191406 9.539062 10.929688 9.558594 10.671875 C 9.578125 10.449219 9.59375 10.226562 9.613281 10.003906 C 9.628906 9.835938 9.644531 9.667969 9.671875 9.503906 C 9.734375 9.144531 9.773438 8.78125 9.863281 8.429688 C 10.050781 7.679688 10.332031 6.972656 10.785156 6.335938 C 11.023438 6.003906 11.292969 5.695312 11.582031 5.402344 C 11.847656 5.136719 12.132812 4.894531 12.445312 4.683594 C 12.847656 4.414062 13.273438 4.199219 13.71875 4.007812 C 14.339844 3.738281 14.996094 3.601562 15.660156 3.503906 C 16.175781 3.429688 16.691406 3.375 17.210938 3.375 C 17.460938 3.375 17.707031 3.386719 17.953125 3.417969 C 18.261719 3.457031 18.5625 3.507812 18.863281 3.574219 C 19.109375 3.628906 19.351562 3.710938 19.59375 3.785156 C 19.800781 3.847656 20.003906 3.929688 20.210938 4.007812 C 20.449219 4.101562 20.675781 4.222656 20.894531 4.359375 C 21.203125 4.550781 21.492188 4.773438 21.765625 5.011719 C 22.007812 5.222656 22.242188 5.441406 22.484375 5.652344 C 22.710938 5.851562 22.949219 6.03125 23.183594 6.21875 C 23.570312 6.523438 23.988281 6.777344 24.414062 7.019531 C 24.746094 7.203125 25.097656 7.347656 25.445312 7.5 C 25.601562 7.566406 25.765625 7.628906 25.941406 7.625 C 25.976562 7.625 26.007812 7.636719 26.042969 7.644531 C 26.257812 7.691406 26.472656 7.742188 26.6875 7.789062 C 26.976562 7.851562 27.253906 7.941406 27.539062 8.027344 C 27.757812 8.09375 27.972656 8.160156 28.1875 8.238281 C 28.484375 8.34375 28.769531 8.476562 29.050781 8.625 C 29.394531 8.8125 29.730469 9.019531 30.035156 9.265625 C 30.382812 9.546875 30.71875 9.84375 31.003906 10.195312 C 31.335938 10.601562 31.53125 11.070312 31.625 11.589844 C 31.683594 11.902344 31.714844 12.21875 31.683594 12.535156 C 31.65625 12.832031 31.59375 13.125 31.503906 13.410156 C 31.34375 13.902344 31.070312 14.324219 30.792969 14.746094 C 30.484375 15.210938 30.210938 15.699219 29.988281 16.207031 C 29.90625 16.394531 29.835938 16.582031 29.792969 16.785156 C 29.742188 17.019531 29.683594 17.253906 29.636719 17.488281 C 29.597656 17.691406 29.582031 17.898438 29.5625 18.105469 C 29.539062 18.382812 29.523438 18.660156 29.515625 18.9375 C 29.503906 19.292969 29.503906 19.652344 29.546875 20.007812 C 29.605469 20.464844 29.675781 20.921875 29.746094 21.375 C 29.777344 21.558594 29.8125 21.742188 29.851562 21.921875 C 29.929688 22.261719 30.007812 22.597656 30.089844 22.933594 C 30.183594 23.324219 30.285156 23.714844 30.375 24.105469 C 30.488281 24.601562 30.605469 25.101562 30.652344 25.609375 C 30.691406 26.046875 30.707031 26.488281 30.671875 26.925781 C 30.648438 27.207031 30.613281 27.488281 30.542969 27.761719 C 30.496094 27.960938 30.453125 28.160156 30.40625 28.359375 C 30.222656 29.113281 29.84375 29.757812 29.324219 30.332031 C 29.011719 30.671875 28.652344 30.957031 28.277344 31.222656 C 27.925781 31.46875 27.578125 31.714844 27.210938 31.929688 C 26.929688 32.09375 26.652344 32.261719 26.382812 32.441406 C 26.03125 32.679688 25.683594 32.921875 25.328125 33.144531 C 24.988281 33.359375 24.632812 33.546875 24.269531 33.710938 C 23.898438 33.882812 23.523438 34.03125 23.132812 34.132812 C 22.597656 34.273438 22.054688 34.335938 21.503906 34.289062 C 21.367188 34.273438 21.226562 34.261719 21.089844 34.242188 Z M 21.089844 34.242188 " fill-opacity="1" fill-rule="nonzero"/></g></g></g><g clip-path="url(#0e9b61a382)"><g clip-path="url(#896600d6dc)"><path stroke-linecap="butt" transform="matrix(0.740132, 0, 0, 0.740132, 4.213031, 15.783802)" fill="none" stroke-linejoin="miter" d="M 9.196339 0.0018301 C 4.119117 0.0018301 0.00244962 4.118497 0.00244962 9.19572 C 0.00244962 14.272942 4.119117 18.389609 9.196339 18.389609 C 14.273562 18.389609 18.390229 14.272942 18.390229 9.19572 C 18.390229 4.118497 14.273562 0.0018301 9.196339 0.0018301 Z M 9.196339 0.0018301 " stroke="#000000" stroke-width="2" stroke-opacity="1" stroke-miterlimit="4"/></g></g><g clip-path="url(#bba97c9d84)"><g clip-path="url(#17e20b7bf0)"><path stroke-linecap="butt" transform="matrix(-0.740132, 0, 0, -0.740132, 29.785181, 28.955376)" fill="none" stroke-linejoin="miter" d="M 16.931144 26.154431 L 30.880311 1.734153 C 31.086144 1.375264 31.086144 0.937209 30.880311 0.57832 C 30.6692 0.219431 30.2892 -0.0022359 29.877533 -0.0022359 L 2.000311 -0.0022359 C 1.588644 -0.0022359 1.203367 0.219431 0.997533 0.57832 C 0.786422 0.937209 0.786422 1.375264 0.992255 1.734153 L 14.9467 26.154431 C 15.147256 26.508042 15.527256 26.729709 15.938922 26.729709 C 16.345311 26.729709 16.725311 26.508042 16.931144 26.154431 Z M 16.931144 26.154431 " stroke="#000000" stroke-width="2" stroke-opacity="1" stroke-miterlimit="4"/></g></g><g clip-path="url(#431d5e1818)"><g clip-path="url(#16105cabee)"><path stroke-linecap="butt" transform="matrix(0.740132, 0, 0, 0.740132, 19.619205, 6.459601)" fill="none" stroke-linejoin="miter" d="M 1.997552 0.001806 L 15.798942 0.001806 C 16.32672 0.001806 16.838664 0.212917 17.213386 0.587639 C 17.588109 0.962362 17.79922 1.469028 17.79922 2.002084 L 17.79922 30.544308 C 17.79922 31.072086 17.588109 31.58403 17.213386 31.958753 C 16.838664 32.333475 16.32672 32.544586 15.798942 32.544586 L 1.997552 32.544586 C 1.469774 32.544586 0.963107 32.333475 0.583107 31.958753 C 0.208385 31.58403 0.00255187 31.072086 0.00255187 30.544308 L 0.00255187 2.002084 C 0.00255187 1.469028 0.208385 0.962362 0.583107 0.587639 C 0.963107 0.212917 1.469774 0.001806 1.997552 0.001806 Z M 1.997552 0.001806 " stroke="#000000" stroke-width="2" stroke-opacity="1" stroke-miterlimit="4"/></g></g></svg>