<svg xmlns="http://www.w3.org/2000/svg" xmlns:xlink="http://www.w3.org/1999/xlink" width="50" zoomAndPan="magnify" viewBox="0 0 37.5 37.499999" height="50" preserveAspectRatio="xMidYMid meet" version="1.0"><defs><clipPath id="ca052ca55b"><path d="M 5 4 L 35 4 L 35 33 L 5 33 Z M 5 4 " clip-rule="nonzero"/></clipPath><clipPath id="199bc5b3ce"><path d="M 2.238281 23.746094 L 12.820312 0.0976562 L 37.140625 10.984375 L 26.558594 34.628906 Z M 2.238281 23.746094 " clip-rule="nonzero"/></clipPath><clipPath id="8f0547e625"><path d="M 2.238281 23.746094 L 12.820312 0.0976562 L 37.140625 10.984375 L 26.558594 34.628906 Z M 2.238281 23.746094 " clip-rule="nonzero"/></clipPath><clipPath id="a6b6c764a8"><path d="M 6.503906 4.585938 L 33 4.585938 L 33 28.125 L 6.503906 28.125 Z M 6.503906 4.585938 " clip-rule="nonzero"/></clipPath><clipPath id="a1a22fdff6"><path d="M 20.859375 5.628906 L 32.792969 26.511719 C 33.019531 26.910156 33.019531 27.398438 32.789062 27.796875 C 32.558594 28.191406 32.132812 28.4375 31.671875 28.4375 L 7.84375 28.4375 C 7.382812 28.4375 6.957031 28.191406 6.726562 27.796875 C 6.496094 27.398438 6.496094 26.910156 6.722656 26.511719 L 18.65625 5.628906 C 18.882812 5.234375 19.300781 4.988281 19.757812 4.988281 C 20.210938 4.988281 20.632812 5.234375 20.859375 5.628906 Z M 20.859375 5.628906 " clip-rule="nonzero"/></clipPath><clipPath id="66c6e6cb40"><path d="M 13.316406 9.980469 L 29.597656 9.980469 L 29.597656 25.519531 L 13.316406 25.519531 Z M 13.316406 9.980469 " clip-rule="nonzero"/></clipPath></defs><g clip-path="url(#ca052ca55b)"><g clip-path="url(#199bc5b3ce)"><g clip-path="url(#8f0547e625)"><path fill="#78dedb" d="M 34.359375 17.957031 C 34.339844 18 34.320312 18.042969 34.300781 18.085938 C 34.21875 18.269531 34.136719 18.453125 34.054688 18.640625 C 33.976562 18.8125 33.863281 18.96875 33.753906 19.117188 C 33.480469 19.488281 33.191406 19.847656 32.875 20.179688 C 32.660156 20.402344 32.4375 20.613281 32.207031 20.824219 C 31.691406 21.292969 31.144531 21.734375 30.644531 22.222656 C 30.324219 22.535156 30.035156 22.875 29.792969 23.257812 C 29.675781 23.4375 29.566406 23.625 29.464844 23.816406 C 29.402344 23.925781 29.339844 24.039062 29.292969 24.15625 C 29.210938 24.378906 29.128906 24.605469 29.054688 24.832031 C 28.972656 25.097656 28.902344 25.363281 28.832031 25.632812 C 28.777344 25.855469 28.734375 26.078125 28.695312 26.300781 C 28.625 26.714844 28.574219 27.128906 28.542969 27.542969 C 28.503906 28.03125 28.445312 28.519531 28.351562 29 C 28.300781 29.257812 28.226562 29.507812 28.140625 29.757812 C 28.03125 30.070312 27.894531 30.367188 27.753906 30.664062 C 27.566406 31.058594 27.308594 31.402344 26.976562 31.691406 C 26.839844 31.8125 26.699219 31.921875 26.554688 32.03125 C 26.414062 32.136719 26.253906 32.210938 26.097656 32.285156 C 25.945312 32.359375 25.789062 32.429688 25.628906 32.488281 C 25.285156 32.621094 24.925781 32.691406 24.558594 32.734375 C 23.980469 32.804688 23.402344 32.789062 22.824219 32.714844 C 22.542969 32.679688 22.261719 32.613281 21.992188 32.523438 C 21.898438 32.492188 21.808594 32.460938 21.71875 32.421875 C 21.589844 32.351562 21.449219 32.3125 21.3125 32.261719 C 21.15625 32.207031 21.027344 32.09375 20.867188 32.042969 C 20.660156 31.9375 20.472656 31.804688 20.28125 31.675781 C 20.050781 31.511719 19.820312 31.347656 19.609375 31.160156 C 19.410156 30.984375 19.222656 30.792969 19.042969 30.59375 C 18.871094 30.40625 18.703125 30.214844 18.542969 30.015625 C 18.21875 29.613281 17.902344 29.199219 17.601562 28.777344 C 17.328125 28.394531 17.039062 28.019531 16.765625 27.636719 C 16.523438 27.296875 16.269531 26.972656 16 26.65625 C 15.652344 26.253906 15.289062 25.871094 14.863281 25.546875 C 14.644531 25.382812 14.417969 25.230469 14.179688 25.09375 C 14.003906 24.992188 13.816406 24.902344 13.625 24.832031 C 13.421875 24.753906 13.214844 24.675781 13.003906 24.617188 C 12.785156 24.558594 12.574219 24.480469 12.363281 24.414062 C 12.171875 24.355469 11.984375 24.304688 11.796875 24.25 C 11.566406 24.183594 11.335938 24.121094 11.105469 24.054688 C 10.910156 24 10.710938 23.945312 10.515625 23.886719 C 10.367188 23.839844 10.21875 23.800781 10.074219 23.742188 C 9.765625 23.621094 9.449219 23.523438 9.148438 23.378906 C 8.507812 23.074219 7.921875 22.691406 7.433594 22.171875 C 7.175781 21.898438 6.949219 21.597656 6.738281 21.285156 C 6.546875 21 6.382812 20.699219 6.25 20.378906 C 6.078125 19.972656 5.964844 19.546875 5.871094 19.117188 C 5.742188 18.507812 5.738281 17.894531 5.773438 17.28125 C 5.796875 16.804688 5.839844 16.332031 5.933594 15.863281 C 5.980469 15.640625 6.035156 15.421875 6.105469 15.203125 C 6.195312 14.9375 6.296875 14.675781 6.414062 14.417969 C 6.507812 14.203125 6.625 14.003906 6.734375 13.800781 C 6.828125 13.625 6.9375 13.457031 7.046875 13.285156 C 7.171875 13.085938 7.324219 12.90625 7.484375 12.734375 C 7.714844 12.492188 7.964844 12.273438 8.230469 12.070312 C 8.460938 11.890625 8.703125 11.71875 8.933594 11.542969 C 9.152344 11.375 9.359375 11.191406 9.570312 11.015625 C 9.914062 10.722656 10.214844 10.394531 10.507812 10.054688 C 10.734375 9.789062 10.925781 9.5 11.125 9.214844 C 11.214844 9.089844 11.304688 8.953125 11.332031 8.792969 C 11.335938 8.761719 11.351562 8.734375 11.367188 8.707031 C 11.449219 8.519531 11.53125 8.335938 11.609375 8.152344 C 11.71875 7.90625 11.851562 7.667969 11.980469 7.429688 C 12.078125 7.246094 12.179688 7.066406 12.285156 6.886719 C 12.433594 6.636719 12.605469 6.40625 12.789062 6.183594 C 13.019531 5.90625 13.265625 5.640625 13.542969 5.410156 C 13.859375 5.148438 14.1875 4.902344 14.550781 4.710938 C 14.976562 4.484375 15.4375 4.394531 15.917969 4.402344 C 16.210938 4.40625 16.496094 4.4375 16.777344 4.523438 C 17.039062 4.601562 17.289062 4.707031 17.53125 4.84375 C 17.941406 5.074219 18.273438 5.394531 18.601562 5.722656 C 18.964844 6.082031 19.351562 6.414062 19.769531 6.710938 C 19.921875 6.816406 20.078125 6.914062 20.25 6.988281 C 20.453125 7.074219 20.652344 7.171875 20.855469 7.253906 C 21.03125 7.324219 21.214844 7.378906 21.394531 7.433594 C 21.640625 7.507812 21.886719 7.566406 22.132812 7.625 C 22.453125 7.699219 22.777344 7.765625 23.105469 7.789062 C 23.523438 7.820312 23.945312 7.839844 24.367188 7.859375 C 24.535156 7.867188 24.707031 7.867188 24.878906 7.863281 C 25.195312 7.855469 25.511719 7.84375 25.828125 7.832031 C 26.195312 7.820312 26.5625 7.796875 26.929688 7.789062 C 27.398438 7.777344 27.867188 7.761719 28.335938 7.8125 C 28.734375 7.855469 29.132812 7.917969 29.515625 8.03125 C 29.765625 8.105469 30.011719 8.1875 30.246094 8.296875 C 30.417969 8.375 30.585938 8.449219 30.757812 8.527344 C 31.402344 8.832031 31.914062 9.289062 32.332031 9.859375 C 32.585938 10.199219 32.773438 10.574219 32.945312 10.960938 C 33.101562 11.316406 33.261719 11.675781 33.386719 12.042969 C 33.484375 12.328125 33.585938 12.605469 33.699219 12.882812 C 33.847656 13.238281 34 13.59375 34.136719 13.953125 C 34.269531 14.296875 34.371094 14.648438 34.457031 15.007812 C 34.542969 15.371094 34.605469 15.734375 34.628906 16.105469 C 34.65625 16.609375 34.617188 17.109375 34.472656 17.59375 C 34.4375 17.71875 34.402344 17.839844 34.359375 17.957031 Z M 34.359375 17.957031 " fill-opacity="1" fill-rule="nonzero"/></g></g></g><g clip-path="url(#a6b6c764a8)"><g clip-path="url(#a1a22fdff6)"><path stroke-linecap="butt" transform="matrix(0.740132, 0, 0, 0.740132, 5.622363, 3.700658)" fill="none" stroke-linejoin="miter" d="M 20.586898 2.605278 L 36.71051 30.82028 C 37.016621 31.358614 37.016621 32.018336 36.705232 32.556669 C 36.393843 33.089725 35.818565 33.422225 35.195788 33.422225 L 3.001341 33.422225 C 2.378563 33.422225 1.803285 33.089725 1.491896 32.556669 C 1.180508 32.018336 1.180508 31.358614 1.486619 30.82028 L 17.610231 2.605278 C 17.916342 2.072223 18.481064 1.739723 19.098564 1.739723 C 19.710787 1.739723 20.280787 2.072223 20.586898 2.605278 Z M 20.586898 2.605278 " stroke="#000000" stroke-width="2" stroke-opacity="1" stroke-miterlimit="4"/></g></g><g clip-path="url(#66c6e6cb40)"><path fill="#000000" d="M 29.429688 9.996094 C 27.121094 11.269531 22.347656 15.238281 18.539062 21.554688 C 18.414062 21.757812 18.152344 21.824219 17.945312 21.699219 C 17.839844 21.632812 17.738281 21.566406 17.636719 21.492188 C 16.394531 20.605469 13.683594 19.042969 13.683594 19.042969 C 13.511719 18.949219 13.335938 19.078125 13.320312 19.238281 C 13.316406 19.246094 13.316406 19.265625 13.320312 19.285156 C 13.324219 19.324219 13.339844 19.359375 13.359375 19.390625 C 13.589844 19.882812 14.667969 21.378906 15.6875 22.773438 C 16.828125 24.332031 17.839844 25.214844 18 25.355469 C 18.007812 25.359375 18.011719 25.363281 18.019531 25.371094 C 18.023438 25.371094 18.023438 25.375 18.023438 25.375 C 18.332031 25.625 18.808594 25.546875 19.011719 25.175781 C 20.5625 22.363281 25.578125 13.570312 29.558594 10.1875 C 29.664062 10.09375 29.550781 9.929688 29.429688 9.996094 " fill-opacity="1" fill-rule="nonzero"/></g></svg>