<svg xmlns="http://www.w3.org/2000/svg" xmlns:xlink="http://www.w3.org/1999/xlink" width="190" zoomAndPan="magnify" viewBox="0 0 142.5 142.499995" height="190" preserveAspectRatio="xMidYMid meet" version="1.0"><defs><clipPath id="3d21232227"><path d="M 52 14.199219 L 90 14.199219 L 90 31 L 52 31 Z M 52 14.199219 " clip-rule="nonzero"/></clipPath><clipPath id="e236659025"><path d="M 11 14.199219 L 131 14.199219 L 131 127.800781 L 11 127.800781 Z M 11 14.199219 " clip-rule="nonzero"/></clipPath><clipPath id="77ef9de8dd"><path d="M 45.449219 53.515625 L 96.269531 53.515625 L 96.269531 104.339844 L 45.449219 104.339844 Z M 45.449219 53.515625 " clip-rule="nonzero"/></clipPath><clipPath id="af830f08c7"><path d="M 60.007812 71.445312 L 78.992188 71.445312 L 78.992188 90.429688 L 60.007812 90.429688 Z M 60.007812 71.445312 " clip-rule="nonzero"/></clipPath><clipPath id="6ee8e6b798"><path d="M 55.90625 67.710938 L 69.5 67.710938 L 69.5 81.304688 L 55.90625 81.304688 Z M 55.90625 67.710938 " clip-rule="nonzero"/></clipPath><clipPath id="95b5b1aed0"><path d="M 62.703125 67.710938 C 58.949219 67.710938 55.90625 70.753906 55.90625 74.507812 C 55.90625 78.261719 58.949219 81.304688 62.703125 81.304688 C 66.457031 81.304688 69.5 78.261719 69.5 74.507812 C 69.5 70.753906 66.457031 67.710938 62.703125 67.710938 Z M 62.703125 67.710938 " clip-rule="nonzero"/></clipPath><clipPath id="0d7eedce26"><path d="M 68.152344 74.726562 L 86.121094 74.726562 L 86.121094 90.429688 L 68.152344 90.429688 Z M 68.152344 74.726562 " clip-rule="nonzero"/></clipPath><clipPath id="86b1fd814b"><path d="M 77.125 74.726562 L 86.097656 90.429688 L 68.152344 90.429688 Z M 77.125 74.726562 " clip-rule="nonzero"/></clipPath><clipPath id="a0085284f7"><path d="M 44.441406 52.511719 L 47.648438 52.511719 L 47.648438 55.71875 L 44.441406 55.71875 Z M 44.441406 52.511719 " clip-rule="nonzero"/></clipPath><clipPath id="1146305795"><path d="M 46.046875 52.511719 C 45.160156 52.511719 44.441406 53.230469 44.441406 54.113281 C 44.441406 55 45.160156 55.71875 46.046875 55.71875 C 46.933594 55.71875 47.648438 55 47.648438 54.113281 C 47.648438 53.230469 46.933594 52.511719 46.046875 52.511719 Z M 46.046875 52.511719 " clip-rule="nonzero"/></clipPath><clipPath id="2fc86cb2be"><path d="M 94.203125 52.511719 L 97.410156 52.511719 L 97.410156 55.71875 L 94.203125 55.71875 Z M 94.203125 52.511719 " clip-rule="nonzero"/></clipPath><clipPath id="03c681c6e3"><path d="M 95.804688 52.511719 C 94.921875 52.511719 94.203125 53.230469 94.203125 54.113281 C 94.203125 55 94.921875 55.71875 95.804688 55.71875 C 96.691406 55.71875 97.410156 55 97.410156 54.113281 C 97.410156 53.230469 96.691406 52.511719 95.804688 52.511719 Z M 95.804688 52.511719 " clip-rule="nonzero"/></clipPath><clipPath id="06878a96c2"><path d="M 94.351562 101.839844 L 97.558594 101.839844 L 97.558594 105.046875 L 94.351562 105.046875 Z M 94.351562 101.839844 " clip-rule="nonzero"/></clipPath><clipPath id="50749ed96b"><path d="M 95.957031 101.839844 C 95.070312 101.839844 94.351562 102.554688 94.351562 103.441406 C 94.351562 104.328125 95.070312 105.046875 95.957031 105.046875 C 96.84375 105.046875 97.558594 104.328125 97.558594 103.441406 C 97.558594 102.554688 96.84375 101.839844 95.957031 101.839844 Z M 95.957031 101.839844 " clip-rule="nonzero"/></clipPath><clipPath id="5779bdc5a7"><path d="M 44.441406 101.839844 L 47.648438 101.839844 L 47.648438 105.046875 L 44.441406 105.046875 Z M 44.441406 101.839844 " clip-rule="nonzero"/></clipPath><clipPath id="3140fd8133"><path d="M 46.046875 101.839844 C 45.160156 101.839844 44.441406 102.554688 44.441406 103.441406 C 44.441406 104.328125 45.160156 105.046875 46.046875 105.046875 C 46.933594 105.046875 47.648438 104.328125 47.648438 103.441406 C 47.648438 102.554688 46.933594 101.839844 46.046875 101.839844 Z M 46.046875 101.839844 " clip-rule="nonzero"/></clipPath><clipPath id="b91e0f7ebe"><path d="M 2.851562 2.46875 L 138.121094 2.46875 L 138.121094 139.238281 L 2.851562 139.238281 Z M 2.851562 2.46875 " clip-rule="nonzero"/></clipPath><clipPath id="131858bb8a"><path d="M 5.839844 2.46875 L 135.46875 2.46875 C 136.261719 2.46875 137.023438 2.785156 137.582031 3.34375 C 138.144531 3.90625 138.457031 4.664062 138.457031 5.457031 L 138.457031 136.34375 C 138.457031 137.136719 138.144531 137.898438 137.582031 138.457031 C 137.023438 139.019531 136.261719 139.332031 135.46875 139.332031 L 5.839844 139.332031 C 5.046875 139.332031 4.289062 139.019531 3.726562 138.457031 C 3.167969 137.898438 2.851562 137.136719 2.851562 136.34375 L 2.851562 5.457031 C 2.851562 4.664062 3.167969 3.90625 3.726562 3.34375 C 4.289062 2.785156 5.046875 2.46875 5.839844 2.46875 Z M 5.839844 2.46875 " clip-rule="nonzero"/></clipPath></defs><g clip-path="url(#3d21232227)"><path fill="#0cc0df" d="M 52.050781 14.203125 C 63.796875 17.492188 78.1875 17.492188 89.933594 14.203125 C 89.933594 18.808594 89.933594 23.417969 89.933594 28.027344 C 78.429688 31.257812 64.390625 31.300781 52.785156 28.234375 C 52.539062 23.558594 52.296875 18.882812 52.050781 14.203125 " fill-opacity="1" fill-rule="nonzero"/></g><g clip-path="url(#e236659025)"><path fill="#5ce1e6" d="M 106.824219 22.863281 L 89.933594 14.203125 C 85.632812 19.980469 78.75 23.722656 70.992188 23.722656 C 63.234375 23.722656 56.355469 19.980469 52.050781 14.203125 L 35.160156 22.863281 C 29.617188 25.953125 29.914062 23.992188 11.199219 51.140625 C 14.050781 53.875 30.804688 65.519531 30.804688 65.519531 L 39.507812 55.46875 L 39.507812 122.714844 C 39.507812 123.574219 40.09375 124.328125 40.933594 124.535156 C 45.441406 125.652344 59.757812 127.804688 70.992188 127.804688 C 82.230469 127.804688 96.546875 125.652344 101.050781 124.535156 C 101.890625 124.328125 102.476562 123.574219 102.476562 122.714844 L 102.476562 55.46875 L 111.179688 65.519531 C 111.179688 65.519531 127.933594 53.875 130.785156 51.140625 C 112.070312 23.992188 112.367188 25.953125 106.824219 22.863281 " fill-opacity="1" fill-rule="nonzero"/></g><path fill="#0cc0df" d="M 91.867188 15.191406 L 91.828125 15.246094 C 86.875 22.058594 79.28125 25.96875 70.992188 25.96875 C 62.707031 25.96875 55.113281 22.058594 50.15625 15.246094 L 50.121094 15.191406 L 48.800781 15.871094 L 48.992188 16.132812 C 54.222656 23.328125 62.242188 27.453125 70.992188 27.453125 C 79.742188 27.453125 87.761719 23.328125 92.992188 16.132812 L 93.183594 15.871094 L 91.867188 15.191406 " fill-opacity="1" fill-rule="nonzero"/><path fill="#0cc0df" d="M 39.507812 55.46875 L 39.507812 55.542969 C 39.675781 50.5625 40.382812 38.054688 35.714844 27.0625 C 36.390625 29.355469 39.089844 37.953125 37.21875 58.109375 L 39.507812 55.46875 " fill-opacity="1" fill-rule="nonzero"/><path fill="#0cc0df" d="M 102.476562 55.46875 L 102.476562 55.542969 C 102.308594 50.5625 101.605469 38.054688 106.269531 27.0625 C 105.597656 29.355469 102.894531 37.953125 104.765625 58.109375 L 102.476562 55.46875 " fill-opacity="1" fill-rule="nonzero"/><path fill="#0cc0df" d="M 12.589844 49.125 L 32.5625 63.492188 L 33.496094 62.410156 L 13.402344 47.953125 C 13.136719 48.339844 12.867188 48.730469 12.589844 49.125 " fill-opacity="1" fill-rule="nonzero"/><path fill="#0cc0df" d="M 109.425781 63.492188 L 129.394531 49.125 C 129.117188 48.730469 128.847656 48.339844 128.582031 47.953125 L 108.488281 62.410156 L 109.425781 63.492188 " fill-opacity="1" fill-rule="nonzero"/><g clip-path="url(#77ef9de8dd)"><path fill="#ffffff" d="M 50.679688 52.769531 L 55.164062 52.769531 L 55.164062 54.265625 L 50.679688 54.265625 Z M 55.910156 52.769531 L 60.394531 52.769531 L 60.394531 54.265625 L 55.910156 54.265625 Z M 61.144531 52.769531 L 65.628906 52.769531 L 65.628906 54.265625 L 61.144531 54.265625 Z M 66.375 52.769531 L 70.859375 52.769531 L 70.859375 54.265625 L 66.375 54.265625 Z M 71.605469 52.769531 L 76.089844 52.769531 L 76.089844 54.265625 L 71.605469 54.265625 Z M 76.835938 52.769531 L 81.320312 52.769531 L 81.320312 54.265625 L 76.835938 54.265625 Z M 82.070312 52.769531 L 86.554688 52.769531 L 86.554688 54.265625 L 82.070312 54.265625 Z M 87.300781 52.769531 L 91.785156 52.769531 L 91.785156 54.265625 L 87.300781 54.265625 Z M 92.53125 52.769531 L 97.296875 52.769531 L 97.296875 53.984375 L 95.800781 53.984375 L 95.800781 53.515625 L 96.550781 53.515625 L 96.550781 54.265625 L 92.53125 54.265625 Z M 97.296875 54.730469 L 97.296875 59.214844 L 95.800781 59.214844 L 95.800781 54.730469 Z M 97.296875 59.964844 L 97.296875 64.449219 L 95.800781 64.449219 L 95.800781 59.964844 Z M 97.296875 65.195312 L 97.296875 69.679688 L 95.800781 69.679688 L 95.800781 65.195312 Z M 97.296875 70.425781 L 97.296875 74.910156 L 95.800781 74.910156 L 95.800781 70.425781 Z M 97.296875 75.660156 L 97.296875 80.144531 L 95.800781 80.144531 L 95.800781 75.660156 Z M 97.296875 80.890625 L 97.296875 85.375 L 95.800781 85.375 L 95.800781 80.890625 Z M 97.296875 86.121094 L 97.296875 90.605469 L 95.800781 90.605469 L 95.800781 86.121094 Z M 97.296875 91.351562 L 97.296875 95.835938 L 95.800781 95.835938 L 95.800781 91.351562 Z M 97.296875 96.585938 L 97.296875 101.070312 L 95.800781 101.070312 L 95.800781 96.585938 Z M 97.296875 101.816406 L 97.296875 105.367188 L 94.867188 105.367188 L 94.867188 103.871094 L 96.550781 103.871094 L 96.550781 104.621094 L 95.800781 104.621094 L 95.800781 101.816406 Z M 94.121094 105.367188 L 89.636719 105.367188 L 89.636719 103.871094 L 94.121094 103.871094 Z M 88.890625 105.367188 L 84.40625 105.367188 L 84.40625 103.871094 L 88.890625 103.871094 Z M 83.65625 105.367188 L 79.171875 105.367188 L 79.171875 103.871094 L 83.65625 103.871094 Z M 78.425781 105.367188 L 73.941406 105.367188 L 73.941406 103.871094 L 78.425781 103.871094 Z M 73.195312 105.367188 L 68.710938 105.367188 L 68.710938 103.871094 L 73.195312 103.871094 Z M 67.960938 105.367188 L 63.476562 105.367188 L 63.476562 103.871094 L 67.960938 103.871094 Z M 62.730469 105.367188 L 58.246094 105.367188 L 58.246094 103.871094 L 62.730469 103.871094 Z M 57.5 105.367188 L 53.015625 105.367188 L 53.015625 103.871094 L 57.5 103.871094 Z M 52.269531 105.367188 L 47.785156 105.367188 L 47.785156 103.871094 L 52.269531 103.871094 Z M 47.035156 105.367188 L 44.699219 105.367188 L 44.699219 101.722656 L 46.195312 101.722656 L 46.195312 104.621094 L 45.449219 104.621094 L 45.449219 103.871094 L 47.035156 103.871094 Z M 44.699219 100.976562 L 44.699219 96.492188 L 46.195312 96.492188 L 46.195312 100.976562 Z M 44.699219 95.746094 L 44.699219 91.261719 L 46.195312 91.261719 L 46.195312 95.746094 Z M 44.699219 90.511719 L 44.699219 86.027344 L 46.195312 86.027344 L 46.195312 90.511719 Z M 44.699219 85.28125 L 44.699219 80.796875 L 46.195312 80.796875 L 46.195312 85.28125 Z M 44.699219 80.050781 L 44.699219 75.566406 L 46.195312 75.566406 L 46.195312 80.050781 Z M 44.699219 74.816406 L 44.699219 70.332031 L 46.195312 70.332031 L 46.195312 74.816406 Z M 44.699219 69.585938 L 44.699219 65.101562 L 46.195312 65.101562 L 46.195312 69.585938 Z M 44.699219 64.355469 L 44.699219 59.871094 L 46.195312 59.871094 L 46.195312 64.355469 Z M 44.699219 59.121094 L 44.699219 54.636719 L 46.195312 54.636719 L 46.195312 59.121094 Z M 44.699219 53.890625 L 44.699219 52.769531 L 49.933594 52.769531 L 49.933594 54.265625 L 45.449219 54.265625 L 45.449219 53.515625 L 46.195312 53.515625 L 46.195312 53.890625 Z M 44.699219 53.890625 " fill-opacity="1" fill-rule="nonzero"/></g><g clip-path="url(#af830f08c7)"><path fill="#ededed" d="M 60.007812 71.445312 L 78.992188 71.445312 L 78.992188 90.429688 L 60.007812 90.429688 Z M 60.007812 71.445312 " fill-opacity="1" fill-rule="nonzero"/></g><g clip-path="url(#6ee8e6b798)"><g clip-path="url(#95b5b1aed0)"><path fill="#ffffff" d="M 55.90625 67.710938 L 69.5 67.710938 L 69.5 81.304688 L 55.90625 81.304688 Z M 55.90625 67.710938 " fill-opacity="1" fill-rule="nonzero"/></g></g><g clip-path="url(#0d7eedce26)"><g clip-path="url(#86b1fd814b)"><path fill="#ffffff" d="M 68.152344 74.726562 L 86.121094 74.726562 L 86.121094 90.429688 L 68.152344 90.429688 Z M 68.152344 74.726562 " fill-opacity="1" fill-rule="nonzero"/></g></g><g clip-path="url(#a0085284f7)"><g clip-path="url(#1146305795)"><path fill="#ffffff" d="M 44.441406 52.511719 L 47.648438 52.511719 L 47.648438 55.71875 L 44.441406 55.71875 Z M 44.441406 52.511719 " fill-opacity="1" fill-rule="nonzero"/></g></g><g clip-path="url(#2fc86cb2be)"><g clip-path="url(#03c681c6e3)"><path fill="#ffffff" d="M 94.203125 52.511719 L 97.410156 52.511719 L 97.410156 55.71875 L 94.203125 55.71875 Z M 94.203125 52.511719 " fill-opacity="1" fill-rule="nonzero"/></g></g><g clip-path="url(#06878a96c2)"><g clip-path="url(#50749ed96b)"><path fill="#ffffff" d="M 94.351562 101.839844 L 97.558594 101.839844 L 97.558594 105.046875 L 94.351562 105.046875 Z M 94.351562 101.839844 " fill-opacity="1" fill-rule="nonzero"/></g></g><g clip-path="url(#5779bdc5a7)"><g clip-path="url(#3140fd8133)"><path fill="#ffffff" d="M 44.441406 101.839844 L 47.648438 101.839844 L 47.648438 105.046875 L 44.441406 105.046875 Z M 44.441406 101.839844 " fill-opacity="1" fill-rule="nonzero"/></g></g><g clip-path="url(#b91e0f7ebe)"><g clip-path="url(#131858bb8a)"><path stroke-linecap="butt" transform="matrix(0.747378, 0, 0, 0.747378, 2.851169, 2.469382)" fill="none" stroke-linejoin="miter" d="M 3.998882 -0.000846071 L 177.443877 -0.000846071 C 178.504878 -0.000846071 179.524067 0.422509 180.271472 1.169914 C 181.024103 1.922546 181.442232 2.936508 181.442232 3.997509 L 181.442232 179.125472 C 181.442232 180.186473 181.024103 181.205662 180.271472 181.953067 C 179.524067 182.705699 178.504878 183.123827 177.443877 183.123827 L 3.998882 183.123827 C 2.93788 183.123827 1.923918 182.705699 1.171287 181.953067 C 0.423882 181.205662 0.000526524 180.186473 0.000526524 179.125472 L 0.000526524 3.997509 C 0.000526524 2.936508 0.423882 1.922546 1.171287 1.169914 C 1.923918 0.422509 2.93788 -0.000846071 3.998882 -0.000846071 Z M 3.998882 -0.000846071 " stroke="#78dedb" stroke-width="2" stroke-opacity="1" stroke-miterlimit="4"/></g></g></svg>