<svg xmlns="http://www.w3.org/2000/svg" xmlns:xlink="http://www.w3.org/1999/xlink" width="190" zoomAndPan="magnify" viewBox="0 0 142.5 142.499995" height="190" preserveAspectRatio="xMidYMid meet" version="1.0"><defs><clipPath id="4e8a9b8b6e"><path d="M 13 11 L 68 11 L 68 66 L 13 66 Z M 13 11 " clip-rule="nonzero"/></clipPath><clipPath id="e3b233e958"><path d="M 12.191406 25.386719 L 53.289062 10.46875 L 68.324219 51.890625 L 27.222656 66.808594 Z M 12.191406 25.386719 " clip-rule="nonzero"/></clipPath><clipPath id="fed0fb2473"><path d="M 15 24.367188 L 50.480469 11.488281 C 52.03125 10.925781 53.746094 11.726562 54.308594 13.28125 L 67.292969 49.046875 C 67.855469 50.597656 67.054688 52.3125 65.5 52.878906 L 30.023438 65.753906 C 28.46875 66.316406 26.753906 65.515625 26.191406 63.964844 L 13.210938 28.195312 C 12.648438 26.644531 13.449219 24.929688 15 24.367188 Z M 15 24.367188 " clip-rule="nonzero"/></clipPath><clipPath id="b102982bdb"><path d="M 28 19 L 43 19 L 43 28 L 28 28 Z M 28 19 " clip-rule="nonzero"/></clipPath><clipPath id="36c3e11ebb"><path d="M 16.28125 27.675781 L 53.417969 15.070312 L 65.277344 50 L 28.140625 62.605469 Z M 16.28125 27.675781 " clip-rule="nonzero"/></clipPath><clipPath id="0bcf5cb4ee"><path d="M 16.28125 27.675781 L 53.417969 15.070312 L 65.277344 50 L 28.140625 62.605469 Z M 16.28125 27.675781 " clip-rule="nonzero"/></clipPath><clipPath id="9f1d4ecaf6"><path d="M 20 19 L 58 19 L 58 59 L 20 59 Z M 20 19 " clip-rule="nonzero"/></clipPath><clipPath id="a2bf5af77d"><path d="M 16.28125 27.675781 L 53.417969 15.070312 L 65.277344 50 L 28.140625 62.605469 Z M 16.28125 27.675781 " clip-rule="nonzero"/></clipPath><clipPath id="0a2ed9a973"><path d="M 16.28125 27.675781 L 53.417969 15.070312 L 65.277344 50 L 28.140625 62.605469 Z M 16.28125 27.675781 " clip-rule="nonzero"/></clipPath><clipPath id="9aff29b2f1"><path d="M 28 19 L 42 19 L 42 26 L 28 26 Z M 28 19 " clip-rule="nonzero"/></clipPath><clipPath id="662deb2ba6"><path d="M 16.28125 27.675781 L 53.417969 15.070312 L 65.277344 50 L 28.140625 62.605469 Z M 16.28125 27.675781 " clip-rule="nonzero"/></clipPath><clipPath id="c6fe42db6b"><path d="M 16.28125 27.675781 L 53.417969 15.070312 L 65.277344 50 L 28.140625 62.605469 Z M 16.28125 27.675781 " clip-rule="nonzero"/></clipPath><clipPath id="2e5ba89d44"><path d="M 25 29 L 30 29 L 30 39 L 25 39 Z M 25 29 " clip-rule="nonzero"/></clipPath><clipPath id="5cd4a0209e"><path d="M 16.28125 27.675781 L 53.417969 15.070312 L 65.277344 50 L 28.140625 62.605469 Z M 16.28125 27.675781 " clip-rule="nonzero"/></clipPath><clipPath id="4486de2dea"><path d="M 16.28125 27.675781 L 53.417969 15.070312 L 65.277344 50 L 28.140625 62.605469 Z M 16.28125 27.675781 " clip-rule="nonzero"/></clipPath><clipPath id="29689d5727"><path d="M 47 21 L 50 21 L 50 32 L 47 32 Z M 47 21 " clip-rule="nonzero"/></clipPath><clipPath id="b0dcebdc55"><path d="M 16.28125 27.675781 L 53.417969 15.070312 L 65.277344 50 L 28.140625 62.605469 Z M 16.28125 27.675781 " clip-rule="nonzero"/></clipPath><clipPath id="86ba931ba3"><path d="M 16.28125 27.675781 L 53.417969 15.070312 L 65.277344 50 L 28.140625 62.605469 Z M 16.28125 27.675781 " clip-rule="nonzero"/></clipPath><clipPath id="b9675ecdb6"><path d="M 20 37 L 29 37 L 29 41 L 20 41 Z M 20 37 " clip-rule="nonzero"/></clipPath><clipPath id="db5cb31041"><path d="M 16.28125 27.675781 L 53.417969 15.070312 L 65.277344 50 L 28.140625 62.605469 Z M 16.28125 27.675781 " clip-rule="nonzero"/></clipPath><clipPath id="e01ff1120f"><path d="M 16.28125 27.675781 L 53.417969 15.070312 L 65.277344 50 L 28.140625 62.605469 Z M 16.28125 27.675781 " clip-rule="nonzero"/></clipPath><clipPath id="2c33d47ae8"><path d="M 51 25 L 57 25 L 57 33 L 51 33 Z M 51 25 " clip-rule="nonzero"/></clipPath><clipPath id="c167314208"><path d="M 16.28125 27.675781 L 53.417969 15.070312 L 65.277344 50 L 28.140625 62.605469 Z M 16.28125 27.675781 " clip-rule="nonzero"/></clipPath><clipPath id="fea038f2ee"><path d="M 16.28125 27.675781 L 53.417969 15.070312 L 65.277344 50 L 28.140625 62.605469 Z M 16.28125 27.675781 " clip-rule="nonzero"/></clipPath><clipPath id="5f8b91136a"><path d="M 37 38 L 46 38 L 46 47 L 37 47 Z M 37 38 " clip-rule="nonzero"/></clipPath><clipPath id="72d29ff465"><path d="M 37.417969 40.207031 L 43.277344 38.21875 L 45.265625 44.078125 L 39.40625 46.066406 Z M 37.417969 40.207031 " clip-rule="nonzero"/></clipPath><clipPath id="d8c051bf10"><path d="M 37.417969 40.207031 L 43.277344 38.21875 L 45.265625 44.078125 L 39.40625 46.066406 Z M 37.417969 40.207031 " clip-rule="nonzero"/></clipPath><clipPath id="3ceb497a51"><path d="M 36 38 L 41 38 L 41 44 L 36 44 Z M 36 38 " clip-rule="nonzero"/></clipPath><clipPath id="c1c5bef0f4"><path d="M 35.757812 39.484375 L 39.957031 38.058594 L 41.378906 42.257812 L 37.183594 43.679688 Z M 35.757812 39.484375 " clip-rule="nonzero"/></clipPath><clipPath id="1769e75ea6"><path d="M 37.859375 38.773438 C 36.699219 39.164062 36.078125 40.425781 36.472656 41.582031 C 36.867188 42.742188 38.125 43.363281 39.28125 42.96875 C 40.441406 42.574219 41.0625 41.316406 40.667969 40.15625 C 40.273438 39 39.015625 38.378906 37.859375 38.773438 Z M 37.859375 38.773438 " clip-rule="nonzero"/></clipPath><clipPath id="a8be40cecc"><path d="M 41 39 L 48 39 L 48 46 L 41 46 Z M 41 39 " clip-rule="nonzero"/></clipPath><clipPath id="750b6b907c"><path d="M 40.273438 40.367188 L 45.820312 38.484375 L 47.46875 43.332031 L 41.921875 45.214844 Z M 40.273438 40.367188 " clip-rule="nonzero"/></clipPath><clipPath id="6e85b1e65a"><path d="M 43.042969 39.425781 L 47.460938 43.332031 L 41.921875 45.214844 Z M 43.042969 39.425781 " clip-rule="nonzero"/></clipPath><clipPath id="1d933e2a89"><path d="M 2.851562 2.46875 L 138.121094 2.46875 L 138.121094 139.238281 L 2.851562 139.238281 Z M 2.851562 2.46875 " clip-rule="nonzero"/></clipPath><clipPath id="e967428042"><path d="M 5.839844 2.46875 L 135.46875 2.46875 C 136.261719 2.46875 137.023438 2.785156 137.582031 3.34375 C 138.144531 3.90625 138.457031 4.664062 138.457031 5.457031 L 138.457031 136.34375 C 138.457031 137.136719 138.144531 137.898438 137.582031 138.457031 C 137.023438 139.019531 136.261719 139.332031 135.46875 139.332031 L 5.839844 139.332031 C 5.046875 139.332031 4.289062 139.019531 3.726562 138.457031 C 3.167969 137.898438 2.851562 137.136719 2.851562 136.34375 L 2.851562 5.457031 C 2.851562 4.664062 3.167969 3.90625 3.726562 3.34375 C 4.289062 2.785156 5.046875 2.46875 5.839844 2.46875 Z M 5.839844 2.46875 " clip-rule="nonzero"/></clipPath><clipPath id="400e6c29e2"><path d="M 70 26 L 129 26 L 129 85 L 70 85 Z M 70 26 " clip-rule="nonzero"/></clipPath><clipPath id="f8cc43f584"><path d="M 83.621094 25.941406 L 129.121094 39.644531 L 115.308594 85.5 L 69.804688 71.796875 Z M 83.621094 25.941406 " clip-rule="nonzero"/></clipPath><clipPath id="3e30f66e63"><path d="M 86.480469 26.800781 L 126.257812 38.785156 C 127.839844 39.261719 128.734375 40.925781 128.257812 42.507812 L 116.179688 82.601562 C 115.703125 84.183594 114.035156 85.078125 112.457031 84.605469 L 72.679688 72.621094 C 71.097656 72.144531 70.203125 70.476562 70.679688 68.898438 L 82.757812 28.800781 C 83.234375 27.222656 84.902344 26.324219 86.480469 26.800781 Z M 86.480469 26.800781 " clip-rule="nonzero"/></clipPath><clipPath id="63699fefe2"><path d="M 98 35 L 113 35 L 113 44 L 98 44 Z M 98 35 " clip-rule="nonzero"/></clipPath><clipPath id="101dd062ff"><path d="M 85.699219 30.59375 L 126.246094 43.738281 L 113.882812 81.875 L 73.335938 68.734375 Z M 85.699219 30.59375 " clip-rule="nonzero"/></clipPath><clipPath id="8e3990df02"><path d="M 85.699219 30.59375 L 126.246094 43.738281 L 113.882812 81.875 L 73.335938 68.734375 Z M 85.699219 30.59375 " clip-rule="nonzero"/></clipPath><clipPath id="708cf323c1"><path d="M 81 35 L 123 35 L 123 78 L 81 78 Z M 81 35 " clip-rule="nonzero"/></clipPath><clipPath id="e287226d33"><path d="M 85.699219 30.59375 L 126.246094 43.738281 L 113.882812 81.875 L 73.335938 68.734375 Z M 85.699219 30.59375 " clip-rule="nonzero"/></clipPath><clipPath id="06ec4f537c"><path d="M 85.699219 30.59375 L 126.246094 43.738281 L 113.882812 81.875 L 73.335938 68.734375 Z M 85.699219 30.59375 " clip-rule="nonzero"/></clipPath><clipPath id="a4fe0a1ce8"><path d="M 98 35 L 114 35 L 114 43 L 98 43 Z M 98 35 " clip-rule="nonzero"/></clipPath><clipPath id="a8d1739d64"><path d="M 85.699219 30.59375 L 126.246094 43.738281 L 113.882812 81.875 L 73.335938 68.734375 Z M 85.699219 30.59375 " clip-rule="nonzero"/></clipPath><clipPath id="9c759f653e"><path d="M 85.699219 30.59375 L 126.246094 43.738281 L 113.882812 81.875 L 73.335938 68.734375 Z M 85.699219 30.59375 " clip-rule="nonzero"/></clipPath><clipPath id="00a20949c4"><path d="M 89 37 L 93 37 L 93 49 L 89 49 Z M 89 37 " clip-rule="nonzero"/></clipPath><clipPath id="b6a91dcada"><path d="M 85.699219 30.59375 L 126.246094 43.738281 L 113.882812 81.875 L 73.335938 68.734375 Z M 85.699219 30.59375 " clip-rule="nonzero"/></clipPath><clipPath id="dac2b52a53"><path d="M 85.699219 30.59375 L 126.246094 43.738281 L 113.882812 81.875 L 73.335938 68.734375 Z M 85.699219 30.59375 " clip-rule="nonzero"/></clipPath><clipPath id="c422621719"><path d="M 112 45 L 117 45 L 117 56 L 112 56 Z M 112 45 " clip-rule="nonzero"/></clipPath><clipPath id="6ae22e89f5"><path d="M 85.699219 30.59375 L 126.246094 43.738281 L 113.882812 81.875 L 73.335938 68.734375 Z M 85.699219 30.59375 " clip-rule="nonzero"/></clipPath><clipPath id="214d4a7ff9"><path d="M 85.699219 30.59375 L 126.246094 43.738281 L 113.882812 81.875 L 73.335938 68.734375 Z M 85.699219 30.59375 " clip-rule="nonzero"/></clipPath><clipPath id="1b3b2e8f5b"><path d="M 82 42 L 89 42 L 89 50 L 82 50 Z M 82 42 " clip-rule="nonzero"/></clipPath><clipPath id="015e52341e"><path d="M 85.699219 30.59375 L 126.246094 43.738281 L 113.882812 81.875 L 73.335938 68.734375 Z M 85.699219 30.59375 " clip-rule="nonzero"/></clipPath><clipPath id="50dade0288"><path d="M 85.699219 30.59375 L 126.246094 43.738281 L 113.882812 81.875 L 73.335938 68.734375 Z M 85.699219 30.59375 " clip-rule="nonzero"/></clipPath><clipPath id="b57fafa483"><path d="M 113 54 L 122 54 L 122 58 L 113 58 Z M 113 54 " clip-rule="nonzero"/></clipPath><clipPath id="63bc624e7c"><path d="M 85.699219 30.59375 L 126.246094 43.738281 L 113.882812 81.875 L 73.335938 68.734375 Z M 85.699219 30.59375 " clip-rule="nonzero"/></clipPath><clipPath id="fe93a8db38"><path d="M 85.699219 30.59375 L 126.246094 43.738281 L 113.882812 81.875 L 73.335938 68.734375 Z M 85.699219 30.59375 " clip-rule="nonzero"/></clipPath><clipPath id="1d7e364903"><path d="M 93 55 L 103 55 L 103 64 L 93 64 Z M 93 55 " clip-rule="nonzero"/></clipPath><clipPath id="0c9bd44762"><path d="M 95.972656 55.242188 L 102.371094 57.316406 L 100.296875 63.714844 L 93.898438 61.640625 Z M 95.972656 55.242188 " clip-rule="nonzero"/></clipPath><clipPath id="d1573aebf5"><path d="M 95.972656 55.242188 L 102.371094 57.316406 L 100.296875 63.714844 L 93.898438 61.640625 Z M 95.972656 55.242188 " clip-rule="nonzero"/></clipPath><clipPath id="0f726f95ae"><path d="M 94 54 L 99 54 L 99 59 L 94 59 Z M 94 54 " clip-rule="nonzero"/></clipPath><clipPath id="f000dd75d7"><path d="M 94.996094 53.535156 L 99.578125 55.023438 L 98.09375 59.605469 L 93.511719 58.117188 Z M 94.996094 53.535156 " clip-rule="nonzero"/></clipPath><clipPath id="b4ae3002ea"><path d="M 97.289062 54.28125 C 96.023438 53.871094 94.664062 54.5625 94.253906 55.828125 C 93.84375 57.09375 94.535156 58.453125 95.800781 58.863281 C 97.066406 59.273438 98.425781 58.578125 98.835938 57.3125 C 99.246094 56.046875 98.550781 54.691406 97.289062 54.28125 Z M 97.289062 54.28125 " clip-rule="nonzero"/></clipPath><clipPath id="e2b1f5fe3b"><path d="M 96 58 L 103 58 L 103 65 L 96 65 Z M 96 58 " clip-rule="nonzero"/></clipPath><clipPath id="b5400849c7"><path d="M 98.355469 57.238281 L 104.414062 59.203125 L 102.699219 64.496094 L 96.640625 62.53125 Z M 98.355469 57.238281 " clip-rule="nonzero"/></clipPath><clipPath id="d55b13cadc"><path d="M 101.382812 58.21875 L 102.6875 64.492188 L 96.640625 62.53125 Z M 101.382812 58.21875 " clip-rule="nonzero"/></clipPath><clipPath id="aa92382bf0"><path d="M 84 68 L 95 68 L 95 71 L 84 71 Z M 84 68 " clip-rule="nonzero"/></clipPath><clipPath id="990ca11532"><path d="M 80.355469 54.574219 L 94.625 68.84375 L 84.585938 78.882812 L 70.316406 64.613281 Z M 80.355469 54.574219 " clip-rule="nonzero"/></clipPath><clipPath id="0c61103496"><path d="M 80.355469 54.574219 L 94.625 68.84375 L 84.585938 78.882812 L 70.316406 64.613281 Z M 80.355469 54.574219 " clip-rule="nonzero"/></clipPath><clipPath id="74badf29c6"><path d="M 80.355469 54.574219 L 94.625 68.84375 L 84.585938 78.882812 L 70.316406 64.613281 Z M 80.355469 54.574219 " clip-rule="nonzero"/></clipPath><clipPath id="2257c0dfc0"><path d="M 84 67 L 95 67 L 95 71 L 84 71 Z M 84 67 " clip-rule="nonzero"/></clipPath><clipPath id="d43988d5f2"><path d="M 80.355469 54.574219 L 94.625 68.84375 L 84.585938 78.882812 L 70.316406 64.613281 Z M 80.355469 54.574219 " clip-rule="nonzero"/></clipPath><clipPath id="6516145d56"><path d="M 80.355469 54.574219 L 94.625 68.84375 L 84.585938 78.882812 L 70.316406 64.613281 Z M 80.355469 54.574219 " clip-rule="nonzero"/></clipPath><clipPath id="53b725e6a6"><path d="M 80.355469 54.574219 L 94.625 68.84375 L 84.585938 78.882812 L 70.316406 64.613281 Z M 80.355469 54.574219 " clip-rule="nonzero"/></clipPath><clipPath id="9f77073c25"><path d="M 71 62 L 94 62 L 94 71 L 71 71 Z M 71 62 " clip-rule="nonzero"/></clipPath><clipPath id="2c30bc0e24"><path d="M 80.355469 54.574219 L 94.625 68.84375 L 84.585938 78.882812 L 70.316406 64.613281 Z M 80.355469 54.574219 " clip-rule="nonzero"/></clipPath><clipPath id="f33de144a7"><path d="M 80.355469 54.574219 L 94.625 68.84375 L 84.585938 78.882812 L 70.316406 64.613281 Z M 80.355469 54.574219 " clip-rule="nonzero"/></clipPath><clipPath id="079bab06f6"><path d="M 80.355469 54.574219 L 94.625 68.84375 L 84.585938 78.882812 L 70.316406 64.613281 Z M 80.355469 54.574219 " clip-rule="nonzero"/></clipPath><clipPath id="0a21fed039"><path d="M 81 66 L 90 66 L 90 69 L 81 69 Z M 81 66 " clip-rule="nonzero"/></clipPath><clipPath id="1833865049"><path d="M 80.355469 54.574219 L 94.625 68.84375 L 84.585938 78.882812 L 70.316406 64.613281 Z M 80.355469 54.574219 " clip-rule="nonzero"/></clipPath><clipPath id="fe2128f540"><path d="M 80.355469 54.574219 L 94.625 68.84375 L 84.585938 78.882812 L 70.316406 64.613281 Z M 80.355469 54.574219 " clip-rule="nonzero"/></clipPath><clipPath id="f4be341a88"><path d="M 80.355469 54.574219 L 94.625 68.84375 L 84.585938 78.882812 L 70.316406 64.613281 Z M 80.355469 54.574219 " clip-rule="nonzero"/></clipPath><clipPath id="2d71ac14e0"><path d="M 30 79 L 82 79 L 82 131 L 30 131 Z M 30 79 " clip-rule="nonzero"/></clipPath><clipPath id="6542caccb5"><path d="M 29.816406 88.492188 L 72.367188 78.433594 L 82.503906 121.316406 L 39.953125 131.375 Z M 29.816406 88.492188 " clip-rule="nonzero"/></clipPath><clipPath id="92c9a68cc7"><path d="M 32.726562 87.804688 L 69.457031 79.121094 C 71.0625 78.742188 72.671875 79.738281 73.054688 81.34375 L 81.808594 118.371094 C 82.1875 119.980469 81.191406 121.589844 79.585938 121.96875 L 42.855469 130.652344 C 41.25 131.035156 39.636719 130.039062 39.257812 128.433594 L 30.503906 91.402344 C 30.125 89.796875 31.117188 88.183594 32.726562 87.804688 Z M 32.726562 87.804688 " clip-rule="nonzero"/></clipPath><clipPath id="87d74d958c"><path d="M 36 86 L 60 86 L 60 124 L 36 124 Z M 36 86 " clip-rule="nonzero"/></clipPath><clipPath id="52ff20e4ab"><path d="M 36.28125 88.34375 L 55.570312 85.96875 L 60.042969 122.316406 L 40.757812 124.691406 Z M 36.28125 88.34375 " clip-rule="nonzero"/></clipPath><clipPath id="c1b70b6607"><path d="M 36.28125 88.34375 L 55.570312 85.96875 L 60.042969 122.316406 L 40.757812 124.691406 Z M 36.28125 88.34375 " clip-rule="nonzero"/></clipPath><clipPath id="ce65d17923"><path d="M 36.28125 88.34375 L 55.570312 85.96875 L 60.042969 122.316406 L 40.757812 124.691406 Z M 36.28125 88.34375 " clip-rule="nonzero"/></clipPath><clipPath id="7f99645c24"><path d="M 37 87 L 60 87 L 60 123 L 37 123 Z M 37 87 " clip-rule="nonzero"/></clipPath><clipPath id="ddae188186"><path d="M 36.28125 88.34375 L 55.570312 85.96875 L 60.042969 122.316406 L 40.757812 124.691406 Z M 36.28125 88.34375 " clip-rule="nonzero"/></clipPath><clipPath id="6e0faf468a"><path d="M 36.28125 88.34375 L 55.570312 85.96875 L 60.042969 122.316406 L 40.757812 124.691406 Z M 36.28125 88.34375 " clip-rule="nonzero"/></clipPath><clipPath id="19d2cfc1d7"><path d="M 36.28125 88.34375 L 55.570312 85.96875 L 60.042969 122.316406 L 40.757812 124.691406 Z M 36.28125 88.34375 " clip-rule="nonzero"/></clipPath><clipPath id="a2188f732f"><path d="M 45 88 L 51 88 L 51 122 L 45 122 Z M 45 88 " clip-rule="nonzero"/></clipPath><clipPath id="a06c1d1317"><path d="M 36.28125 88.34375 L 55.570312 85.96875 L 60.042969 122.316406 L 40.757812 124.691406 Z M 36.28125 88.34375 " clip-rule="nonzero"/></clipPath><clipPath id="b7b29f2053"><path d="M 36.28125 88.34375 L 55.570312 85.96875 L 60.042969 122.316406 L 40.757812 124.691406 Z M 36.28125 88.34375 " clip-rule="nonzero"/></clipPath><clipPath id="48c41d0eee"><path d="M 36.28125 88.34375 L 55.570312 85.96875 L 60.042969 122.316406 L 40.757812 124.691406 Z M 36.28125 88.34375 " clip-rule="nonzero"/></clipPath><clipPath id="d2119a4ad7"><path d="M 45 102 L 48 102 L 48 107 L 45 107 Z M 45 102 " clip-rule="nonzero"/></clipPath><clipPath id="2fcc27514c"><path d="M 36.28125 88.34375 L 55.570312 85.96875 L 60.042969 122.316406 L 40.757812 124.691406 Z M 36.28125 88.34375 " clip-rule="nonzero"/></clipPath><clipPath id="cfa61a458c"><path d="M 36.28125 88.34375 L 55.570312 85.96875 L 60.042969 122.316406 L 40.757812 124.691406 Z M 36.28125 88.34375 " clip-rule="nonzero"/></clipPath><clipPath id="d47f6b72a3"><path d="M 36.28125 88.34375 L 55.570312 85.96875 L 60.042969 122.316406 L 40.757812 124.691406 Z M 36.28125 88.34375 " clip-rule="nonzero"/></clipPath><clipPath id="f60535e87c"><path d="M 48 102 L 51 102 L 51 107 L 48 107 Z M 48 102 " clip-rule="nonzero"/></clipPath><clipPath id="44b733a83e"><path d="M 36.28125 88.34375 L 55.570312 85.96875 L 60.042969 122.316406 L 40.757812 124.691406 Z M 36.28125 88.34375 " clip-rule="nonzero"/></clipPath><clipPath id="fef62fb54d"><path d="M 36.28125 88.34375 L 55.570312 85.96875 L 60.042969 122.316406 L 40.757812 124.691406 Z M 36.28125 88.34375 " clip-rule="nonzero"/></clipPath><clipPath id="5c7b8de8b7"><path d="M 36.28125 88.34375 L 55.570312 85.96875 L 60.042969 122.316406 L 40.757812 124.691406 Z M 36.28125 88.34375 " clip-rule="nonzero"/></clipPath><clipPath id="5a8efb9ae0"><path d="M 55 121 L 59 121 L 59 123 L 55 123 Z M 55 121 " clip-rule="nonzero"/></clipPath><clipPath id="35d879d9e7"><path d="M 36.28125 88.34375 L 55.570312 85.96875 L 60.042969 122.316406 L 40.757812 124.691406 Z M 36.28125 88.34375 " clip-rule="nonzero"/></clipPath><clipPath id="c1ab0a0da9"><path d="M 36.28125 88.34375 L 55.570312 85.96875 L 60.042969 122.316406 L 40.757812 124.691406 Z M 36.28125 88.34375 " clip-rule="nonzero"/></clipPath><clipPath id="56d0ee43ea"><path d="M 36.28125 88.34375 L 55.570312 85.96875 L 60.042969 122.316406 L 40.757812 124.691406 Z M 36.28125 88.34375 " clip-rule="nonzero"/></clipPath><clipPath id="38f2031a52"><path d="M 42 123 L 45 123 L 45 125 L 42 125 Z M 42 123 " clip-rule="nonzero"/></clipPath><clipPath id="2aa045ddd5"><path d="M 36.28125 88.34375 L 55.570312 85.96875 L 60.042969 122.316406 L 40.757812 124.691406 Z M 36.28125 88.34375 " clip-rule="nonzero"/></clipPath><clipPath id="b0ca2634f9"><path d="M 36.28125 88.34375 L 55.570312 85.96875 L 60.042969 122.316406 L 40.757812 124.691406 Z M 36.28125 88.34375 " clip-rule="nonzero"/></clipPath><clipPath id="56bb46e42a"><path d="M 36.28125 88.34375 L 55.570312 85.96875 L 60.042969 122.316406 L 40.757812 124.691406 Z M 36.28125 88.34375 " clip-rule="nonzero"/></clipPath><clipPath id="4fc45909c6"><path d="M 46 85 L 60 85 L 60 93 L 46 93 Z M 46 85 " clip-rule="nonzero"/></clipPath><clipPath id="9cefc03df8"><path d="M 33.617188 91.242188 L 71.960938 83.015625 L 79.695312 119.085938 L 41.351562 127.308594 Z M 33.617188 91.242188 " clip-rule="nonzero"/></clipPath><clipPath id="1ced221dea"><path d="M 33.617188 91.242188 L 71.960938 83.015625 L 79.695312 119.085938 L 41.351562 127.308594 Z M 33.617188 91.242188 " clip-rule="nonzero"/></clipPath><clipPath id="f4e104ef79"><path d="M 36 85 L 75 85 L 75 125 L 36 125 Z M 36 85 " clip-rule="nonzero"/></clipPath><clipPath id="08dc4d37e5"><path d="M 33.617188 91.242188 L 71.960938 83.015625 L 79.695312 119.085938 L 41.351562 127.308594 Z M 33.617188 91.242188 " clip-rule="nonzero"/></clipPath><clipPath id="27513a23f4"><path d="M 33.617188 91.242188 L 71.960938 83.015625 L 79.695312 119.085938 L 41.351562 127.308594 Z M 33.617188 91.242188 " clip-rule="nonzero"/></clipPath><clipPath id="faca21278c"><path d="M 45 86 L 60 86 L 60 92 L 45 92 Z M 45 86 " clip-rule="nonzero"/></clipPath><clipPath id="c5f4f213f6"><path d="M 33.617188 91.242188 L 71.960938 83.015625 L 79.695312 119.085938 L 41.351562 127.308594 Z M 33.617188 91.242188 " clip-rule="nonzero"/></clipPath><clipPath id="11ba013fe5"><path d="M 33.617188 91.242188 L 71.960938 83.015625 L 79.695312 119.085938 L 41.351562 127.308594 Z M 33.617188 91.242188 " clip-rule="nonzero"/></clipPath><clipPath id="b417fd61ce"><path d="M 42 93 L 46 93 L 46 104 L 42 104 Z M 42 93 " clip-rule="nonzero"/></clipPath><clipPath id="c53303f9d1"><path d="M 33.617188 91.242188 L 71.960938 83.015625 L 79.695312 119.085938 L 41.351562 127.308594 Z M 33.617188 91.242188 " clip-rule="nonzero"/></clipPath><clipPath id="d4b0e4f282"><path d="M 33.617188 91.242188 L 71.960938 83.015625 L 79.695312 119.085938 L 41.351562 127.308594 Z M 33.617188 91.242188 " clip-rule="nonzero"/></clipPath><clipPath id="190e153db7"><path d="M 64 88 L 67 88 L 67 99 L 64 99 Z M 64 88 " clip-rule="nonzero"/></clipPath><clipPath id="3d007c0004"><path d="M 33.617188 91.242188 L 71.960938 83.015625 L 79.695312 119.085938 L 41.351562 127.308594 Z M 33.617188 91.242188 " clip-rule="nonzero"/></clipPath><clipPath id="6e19add3f1"><path d="M 33.617188 91.242188 L 71.960938 83.015625 L 79.695312 119.085938 L 41.351562 127.308594 Z M 33.617188 91.242188 " clip-rule="nonzero"/></clipPath><clipPath id="e534c87431"><path d="M 36 101 L 45 101 L 45 106 L 36 106 Z M 36 101 " clip-rule="nonzero"/></clipPath><clipPath id="9482d4cce2"><path d="M 33.617188 91.242188 L 71.960938 83.015625 L 79.695312 119.085938 L 41.351562 127.308594 Z M 33.617188 91.242188 " clip-rule="nonzero"/></clipPath><clipPath id="e053ebb27b"><path d="M 33.617188 91.242188 L 71.960938 83.015625 L 79.695312 119.085938 L 41.351562 127.308594 Z M 33.617188 91.242188 " clip-rule="nonzero"/></clipPath><clipPath id="6d2efb6aef"><path d="M 67 93 L 74 93 L 74 101 L 67 101 Z M 67 93 " clip-rule="nonzero"/></clipPath><clipPath id="5af8648f55"><path d="M 33.617188 91.242188 L 71.960938 83.015625 L 79.695312 119.085938 L 41.351562 127.308594 Z M 33.617188 91.242188 " clip-rule="nonzero"/></clipPath><clipPath id="31b6e245e9"><path d="M 33.617188 91.242188 L 71.960938 83.015625 L 79.695312 119.085938 L 41.351562 127.308594 Z M 33.617188 91.242188 " clip-rule="nonzero"/></clipPath><clipPath id="01e8cfb9dc"><path d="M 53 104 L 61 104 L 61 113 L 53 113 Z M 53 104 " clip-rule="nonzero"/></clipPath><clipPath id="e39528bfe0"><path d="M 53.160156 106.132812 L 59.207031 104.835938 L 60.507812 110.886719 L 54.457031 112.183594 Z M 53.160156 106.132812 " clip-rule="nonzero"/></clipPath><clipPath id="bf23d478aa"><path d="M 53.160156 106.132812 L 59.207031 104.835938 L 60.507812 110.886719 L 54.457031 112.183594 Z M 53.160156 106.132812 " clip-rule="nonzero"/></clipPath><clipPath id="51d2c0330b"><path d="M 52 104 L 57 104 L 57 110 L 52 110 Z M 52 104 " clip-rule="nonzero"/></clipPath><clipPath id="aba8be3b3f"><path d="M 51.59375 105.222656 L 55.929688 104.296875 L 56.859375 108.628906 L 52.523438 109.558594 Z M 51.59375 105.222656 " clip-rule="nonzero"/></clipPath><clipPath id="56613c9ae0"><path d="M 53.761719 104.757812 C 52.566406 105.015625 51.804688 106.195312 52.058594 107.390625 C 52.316406 108.585938 53.496094 109.347656 54.691406 109.09375 C 55.886719 108.835938 56.648438 107.65625 56.394531 106.460938 C 56.136719 105.265625 54.957031 104.503906 53.761719 104.757812 Z M 53.761719 104.757812 " clip-rule="nonzero"/></clipPath><clipPath id="5b9dc8f49c"><path d="M 57 106 L 63 106 L 63 112 L 57 112 Z M 57 106 " clip-rule="nonzero"/></clipPath><clipPath id="0b2e473448"><path d="M 55.976562 106.625 L 61.707031 105.394531 L 62.777344 110.398438 L 57.050781 111.628906 Z M 55.976562 106.625 " clip-rule="nonzero"/></clipPath><clipPath id="2269f4b4ab"><path d="M 58.835938 106.011719 L 62.769531 110.402344 L 57.050781 111.628906 Z M 58.835938 106.011719 " clip-rule="nonzero"/></clipPath></defs><g clip-path="url(#4e8a9b8b6e)"><g clip-path="url(#e3b233e958)"><g clip-path="url(#fed0fb2473)"><path fill="#c3e0e1" d="M 12.191406 25.386719 L 53.289062 10.46875 L 68.324219 51.890625 L 27.222656 66.808594 Z M 12.191406 25.386719 " fill-opacity="1" fill-rule="nonzero"/></g></g></g><g clip-path="url(#b102982bdb)"><g clip-path="url(#36c3e11ebb)"><g clip-path="url(#0bcf5cb4ee)"><path fill="#0cc0df" d="M 28.964844 23.371094 C 32.933594 23.15625 37.375 21.648438 40.65625 19.402344 C 41.136719 20.824219 41.621094 22.246094 42.105469 23.667969 C 38.890625 25.871094 34.5625 27.355469 30.660156 27.625 C 30.09375 26.207031 29.527344 24.789062 28.964844 23.371094 " fill-opacity="1" fill-rule="nonzero"/></g></g></g><g clip-path="url(#9f1d4ecaf6)"><g clip-path="url(#a2bf5af77d)"><g clip-path="url(#0a2ed9a973)"><path fill="#5ce1e6" d="M 46.777344 20.304688 L 40.65625 19.402344 C 39.933594 21.636719 38.203125 23.511719 35.808594 24.324219 C 33.414062 25.136719 30.894531 24.703125 28.964844 23.371094 L 24.65625 27.816406 C 23.269531 29.351562 23.15625 28.714844 20.226562 39.054688 C 21.390625 39.597656 27.78125 41.4375 27.78125 41.4375 L 29.414062 37.421875 L 36.460938 58.179688 C 36.554688 58.445312 36.8125 58.617188 37.09375 58.589844 C 38.601562 58.464844 43.246094 57.628906 46.714844 56.453125 C 50.183594 55.273438 54.375 53.109375 55.648438 52.292969 C 55.886719 52.140625 55.988281 51.847656 55.898438 51.582031 L 48.851562 30.824219 L 52.589844 33.015625 C 52.589844 33.015625 56.542969 27.664062 57.136719 26.523438 C 48.515625 20.105469 48.8125 20.679688 46.777344 20.304688 " fill-opacity="1" fill-rule="nonzero"/></g></g></g><g clip-path="url(#9aff29b2f1)"><g clip-path="url(#662deb2ba6)"><g clip-path="url(#c6fe42db6b)"><path fill="#0cc0df" d="M 41.355469 19.503906 L 41.351562 19.527344 C 40.535156 22.148438 38.601562 24.148438 36.042969 25.019531 C 33.484375 25.886719 30.730469 25.476562 28.488281 23.890625 L 28.46875 23.878906 L 28.132812 24.226562 L 28.222656 24.289062 C 30.589844 25.960938 33.496094 26.394531 36.199219 25.476562 C 38.898438 24.558594 40.941406 22.445312 41.800781 19.675781 L 41.835938 19.574219 L 41.355469 19.503906 " fill-opacity="1" fill-rule="nonzero"/></g></g></g><g clip-path="url(#2e5ba89d44)"><g clip-path="url(#5cd4a0209e)"><g clip-path="url(#4486de2dea)"><path fill="#0cc0df" d="M 29.414062 37.421875 L 29.421875 37.445312 C 28.953125 35.890625 27.859375 31.957031 25.269531 29.050781 C 25.714844 29.691406 27.453125 32.058594 28.984375 38.476562 L 29.414062 37.421875 " fill-opacity="1" fill-rule="nonzero"/></g></g></g><g clip-path="url(#29689d5727)"><g clip-path="url(#b0dcebdc55)"><g clip-path="url(#86ba931ba3)"><path fill="#0cc0df" d="M 48.851562 30.824219 L 48.859375 30.847656 C 48.285156 29.328125 46.757812 25.542969 47.046875 21.660156 C 47.078125 22.4375 47.144531 25.375 49.835938 31.398438 L 48.851562 30.824219 " fill-opacity="1" fill-rule="nonzero"/></g></g></g><g clip-path="url(#b9675ecdb6)"><g clip-path="url(#db5cb31041)"><g clip-path="url(#e01ff1120f)"><path fill="#0cc0df" d="M 20.441406 38.285156 L 28.113281 40.628906 L 28.289062 40.195312 L 20.570312 37.839844 C 20.527344 37.984375 20.484375 38.136719 20.441406 38.285156 " fill-opacity="1" fill-rule="nonzero"/></g></g></g><g clip-path="url(#2c33d47ae8)"><g clip-path="url(#c167314208)"><g clip-path="url(#fea038f2ee)"><path fill="#0cc0df" d="M 51.835938 32.574219 L 56.496094 26.046875 C 56.367188 25.953125 56.246094 25.859375 56.121094 25.769531 L 51.433594 32.335938 L 51.835938 32.574219 " fill-opacity="1" fill-rule="nonzero"/></g></g></g><g clip-path="url(#5f8b91136a)"><g clip-path="url(#72d29ff465)"><g clip-path="url(#d8c051bf10)"><path fill="#ededed" d="M 37.417969 40.207031 L 43.277344 38.21875 L 45.265625 44.078125 L 39.40625 46.066406 Z M 37.417969 40.207031 " fill-opacity="1" fill-rule="nonzero"/></g></g></g><g clip-path="url(#3ceb497a51)"><g clip-path="url(#c1c5bef0f4)"><g clip-path="url(#1769e75ea6)"><path fill="#ffffff" d="M 35.757812 39.484375 L 39.957031 38.058594 L 41.378906 42.257812 L 37.183594 43.679688 Z M 35.757812 39.484375 " fill-opacity="1" fill-rule="nonzero"/></g></g></g><g clip-path="url(#a8be40cecc)"><g clip-path="url(#750b6b907c)"><g clip-path="url(#6e85b1e65a)"><path fill="#ffffff" d="M 40.273438 40.367188 L 45.820312 38.484375 L 47.46875 43.332031 L 41.921875 45.214844 Z M 40.273438 40.367188 " fill-opacity="1" fill-rule="nonzero"/></g></g></g><g clip-path="url(#1d933e2a89)"><g clip-path="url(#e967428042)"><path stroke-linecap="butt" transform="matrix(0.747378, 0, 0, 0.747378, 2.851169, 2.469382)" fill="none" stroke-linejoin="miter" d="M 3.998882 -0.000846071 L 177.443877 -0.000846071 C 178.504878 -0.000846071 179.524067 0.422509 180.271472 1.169914 C 181.024103 1.922546 181.442232 2.936508 181.442232 3.997509 L 181.442232 179.125472 C 181.442232 180.186473 181.024103 181.205662 180.271472 181.953067 C 179.524067 182.705699 178.504878 183.123827 177.443877 183.123827 L 3.998882 183.123827 C 2.93788 183.123827 1.923918 182.705699 1.171287 181.953067 C 0.423882 181.205662 0.000526524 180.186473 0.000526524 179.125472 L 0.000526524 3.997509 C 0.000526524 2.936508 0.423882 1.922546 1.171287 1.169914 C 1.923918 0.422509 2.93788 -0.000846071 3.998882 -0.000846071 Z M 3.998882 -0.000846071 " stroke="#11c9f0" stroke-width="2" stroke-opacity="1" stroke-miterlimit="4"/></g></g><g clip-path="url(#400e6c29e2)"><g clip-path="url(#f8cc43f584)"><g clip-path="url(#3e30f66e63)"><path fill="#ffe0f3" d="M 83.621094 25.941406 L 129.121094 39.644531 L 115.308594 85.5 L 69.804688 71.796875 Z M 83.621094 25.941406 " fill-opacity="1" fill-rule="nonzero"/></g></g></g><g clip-path="url(#63699fefe2)"><g clip-path="url(#101dd062ff)"><g clip-path="url(#8e3990df02)"><path fill="#0cc0df" d="M 99.542969 35.082031 C 103.144531 37.472656 107.992188 39.046875 112.308594 39.21875 C 111.808594 40.773438 111.304688 42.328125 110.800781 43.878906 C 106.570312 43.710938 101.835938 42.191406 98.257812 39.890625 C 98.6875 38.289062 99.113281 36.6875 99.542969 35.082031 " fill-opacity="1" fill-rule="nonzero"/></g></g></g><g clip-path="url(#708cf323c1)"><g clip-path="url(#e287226d33)"><g clip-path="url(#06ec4f537c)"><path fill="#5ce1e6" d="M 117.058594 43.984375 L 112.308594 39.21875 C 110.230469 40.699219 107.5 41.207031 104.886719 40.359375 C 102.273438 39.511719 100.363281 37.5 99.542969 35.082031 L 92.90625 36.15625 C 90.699219 36.589844 91.011719 35.964844 81.742188 43.070312 C 82.402344 44.300781 86.777344 50.054688 86.777344 50.054688 L 90.808594 47.621094 L 83.460938 70.28125 C 83.367188 70.574219 83.484375 70.890625 83.742188 71.050781 C 85.140625 71.917969 89.730469 74.210938 93.515625 75.4375 C 97.304688 76.664062 102.363281 77.503906 104.003906 77.617188 C 104.308594 77.640625 104.589844 77.449219 104.683594 77.160156 L 112.03125 54.5 L 113.863281 58.835938 C 113.863281 58.835938 120.78125 56.742188 122.042969 56.132812 C 118.703125 44.9375 118.585938 45.632812 117.058594 43.984375 " fill-opacity="1" fill-rule="nonzero"/></g></g></g><g clip-path="url(#a4fe0a1ce8)"><g clip-path="url(#a8d1739d64)"><g clip-path="url(#9c759f653e)"><path fill="#0cc0df" d="M 112.851562 39.765625 L 112.835938 39.78125 C 110.421875 41.535156 107.433594 42.023438 104.640625 41.117188 C 101.847656 40.210938 99.714844 38.066406 98.792969 35.226562 L 98.785156 35.203125 L 98.265625 35.289062 L 98.300781 35.398438 C 99.277344 38.394531 101.53125 40.660156 104.480469 41.617188 C 107.429688 42.574219 110.582031 42.058594 113.128906 40.207031 L 113.222656 40.136719 L 112.851562 39.765625 " fill-opacity="1" fill-rule="nonzero"/></g></g></g><g clip-path="url(#00a20949c4)"><g clip-path="url(#b6a91dcada)"><g clip-path="url(#dac2b52a53)"><path fill="#0cc0df" d="M 90.808594 47.621094 L 90.800781 47.644531 C 91.402344 45.984375 93.003906 41.847656 92.632812 37.632812 C 92.609375 38.476562 92.582031 41.671875 89.75 48.257812 L 90.808594 47.621094 " fill-opacity="1" fill-rule="nonzero"/></g></g></g><g clip-path="url(#c422621719)"><g clip-path="url(#6ae22e89f5)"><g clip-path="url(#214d4a7ff9)"><path fill="#0cc0df" d="M 112.03125 54.5 L 112.019531 54.523438 C 112.507812 52.828125 113.636719 48.535156 116.410156 45.339844 C 115.933594 46.039062 114.082031 48.640625 112.511719 55.636719 L 112.03125 54.5 " fill-opacity="1" fill-rule="nonzero"/></g></g></g><g clip-path="url(#1b3b2e8f5b)"><g clip-path="url(#015e52341e)"><g clip-path="url(#50dade0288)"><path fill="#0cc0df" d="M 82.429688 42.542969 L 87.589844 49.5625 L 88.023438 49.300781 L 82.832031 42.234375 C 82.699219 42.335938 82.566406 42.4375 82.429688 42.542969 " fill-opacity="1" fill-rule="nonzero"/></g></g></g><g clip-path="url(#b57fafa483)"><g clip-path="url(#63bc624e7c)"><g clip-path="url(#fe93a8db38)"><path fill="#0cc0df" d="M 113.496094 57.960938 L 121.792969 55.300781 C 121.746094 55.136719 121.695312 54.976562 121.648438 54.816406 L 113.296875 57.492188 L 113.496094 57.960938 " fill-opacity="1" fill-rule="nonzero"/></g></g></g><g clip-path="url(#1d7e364903)"><g clip-path="url(#0c9bd44762)"><g clip-path="url(#d1573aebf5)"><path fill="#ededed" d="M 95.972656 55.242188 L 102.371094 57.316406 L 100.296875 63.714844 L 93.898438 61.640625 Z M 95.972656 55.242188 " fill-opacity="1" fill-rule="nonzero"/></g></g></g><g clip-path="url(#0f726f95ae)"><g clip-path="url(#f000dd75d7)"><g clip-path="url(#b4ae3002ea)"><path fill="#ffffff" d="M 94.996094 53.535156 L 99.578125 55.023438 L 98.09375 59.605469 L 93.511719 58.117188 Z M 94.996094 53.535156 " fill-opacity="1" fill-rule="nonzero"/></g></g></g><g clip-path="url(#e2b1f5fe3b)"><g clip-path="url(#b5400849c7)"><g clip-path="url(#d55b13cadc)"><path fill="#ffffff" d="M 98.355469 57.238281 L 104.414062 59.203125 L 102.699219 64.496094 L 96.640625 62.53125 Z M 98.355469 57.238281 " fill-opacity="1" fill-rule="nonzero"/></g></g></g><g clip-path="url(#aa92382bf0)"><g clip-path="url(#990ca11532)"><g clip-path="url(#0c61103496)"><g clip-path="url(#74badf29c6)"><path fill="#c38765" d="M 93.839844 68.902344 C 93.839844 68.902344 94.039062 69.082031 94.015625 69.230469 C 94.003906 69.324219 93.925781 69.449219 93.710938 69.46875 C 93.496094 69.488281 84.921875 70.28125 84.921875 70.28125 L 84.195312 68.761719 C 84.195312 68.761719 92.351562 67.382812 93.839844 68.902344 " fill-opacity="1" fill-rule="nonzero"/></g></g></g></g><g clip-path="url(#2257c0dfc0)"><g clip-path="url(#d43988d5f2)"><g clip-path="url(#6516145d56)"><g clip-path="url(#53b725e6a6)"><path fill="#de9871" d="M 94.230469 68.445312 C 94.230469 68.445312 94.589844 68.867188 94.085938 69.054688 C 93.789062 69.164062 85.425781 70.152344 85.425781 70.152344 L 84.652344 68.65625 C 84.652344 68.65625 93.011719 67.304688 94.230469 68.445312 " fill-opacity="1" fill-rule="nonzero"/></g></g></g></g><g clip-path="url(#9f77073c25)"><g clip-path="url(#2c30bc0e24)"><g clip-path="url(#f33de144a7)"><g clip-path="url(#079bab06f6)"><path fill="#f9ac82" d="M 72.78125 62.171875 C 74.589844 62.515625 77.210938 63.003906 77.78125 63.074219 C 78.667969 63.183594 81.144531 62.777344 83.828125 65.824219 C 83.828125 65.824219 84.59375 66.347656 85.878906 67.042969 C 85.878906 67.042969 89.148438 67.09375 89.070312 67.867188 C 89.070312 67.867188 92.105469 67.230469 93.59375 67.9375 C 93.738281 68.003906 93.789062 68.09375 93.839844 68.230469 C 93.890625 68.367188 93.898438 68.640625 93.5 68.65625 C 93.5 68.65625 86.808594 69.78125 85.898438 70.269531 C 85.898438 70.269531 83.835938 71.019531 83.269531 70.476562 C 82.808594 70.03125 78.3125 67.371094 76.09375 66.78125 L 71.742188 66.042969 L 72.78125 62.171875 " fill-opacity="1" fill-rule="nonzero"/></g></g></g></g><g clip-path="url(#0a21fed039)"><g clip-path="url(#1833865049)"><g clip-path="url(#fe2128f540)"><g clip-path="url(#f4be341a88)"><path fill="#de9871" d="M 89.070312 67.867188 C 89.070312 67.867188 89.433594 69.726562 83.164062 67.839844 L 81.601562 66.898438 L 82.976562 68.085938 C 82.976562 68.085938 89.257812 70.171875 89.070312 67.867188 " fill-opacity="1" fill-rule="nonzero"/></g></g></g></g><g clip-path="url(#2d71ac14e0)"><g clip-path="url(#6542caccb5)"><g clip-path="url(#92c9a68cc7)"><path fill="#fffbeb" d="M 29.816406 88.492188 L 72.367188 78.433594 L 82.503906 121.316406 L 39.953125 131.375 Z M 29.816406 88.492188 " fill-opacity="1" fill-rule="nonzero"/></g></g></g><g clip-path="url(#87d74d958c)"><g clip-path="url(#52ff20e4ab)"><g clip-path="url(#c1b70b6607)"><g clip-path="url(#ce65d17923)"><path fill="#da9266" d="M 40.550781 123.011719 C 40.601562 123.433594 40.988281 123.734375 41.410156 123.679688 L 59.164062 121.496094 C 59.585938 121.445312 59.886719 121.0625 59.835938 120.640625 L 55.660156 86.734375 C 55.609375 86.3125 55.226562 86.011719 54.800781 86.066406 L 37.050781 88.25 C 36.625 88.300781 36.324219 88.683594 36.378906 89.105469 L 40.550781 123.011719 " fill-opacity="1" fill-rule="nonzero"/></g></g></g></g><g clip-path="url(#7f99645c24)"><g clip-path="url(#ddae188186)"><g clip-path="url(#6e0faf468a)"><g clip-path="url(#19d2cfc1d7)"><path fill="#885439" d="M 41.175781 121.761719 L 41.09375 121.773438 C 41.121094 121.992188 41.234375 122.179688 41.390625 122.304688 C 41.550781 122.429688 41.757812 122.492188 41.976562 122.46875 L 58.320312 120.457031 C 58.535156 120.429688 58.722656 120.316406 58.847656 120.15625 C 58.96875 119.996094 59.035156 119.785156 59.007812 119.570312 L 55.117188 87.972656 C 55.09375 87.753906 54.980469 87.566406 54.820312 87.441406 C 54.660156 87.316406 54.453125 87.253906 54.238281 87.277344 L 37.894531 89.289062 C 37.675781 89.316406 37.488281 89.429688 37.367188 89.589844 C 37.242188 89.75 37.179688 89.960938 37.207031 90.175781 L 41.09375 121.773438 L 41.253906 121.753906 L 37.367188 90.15625 C 37.34375 89.984375 37.394531 89.816406 37.492188 89.6875 C 37.59375 89.5625 37.738281 89.472656 37.914062 89.449219 L 54.257812 87.4375 C 54.429688 87.417969 54.59375 87.46875 54.71875 87.570312 C 54.847656 87.667969 54.9375 87.816406 54.957031 87.992188 L 58.847656 119.589844 C 58.867188 119.761719 58.816406 119.929688 58.71875 120.058594 C 58.617188 120.183594 58.472656 120.273438 58.300781 120.296875 L 41.957031 122.308594 C 41.785156 122.328125 41.621094 122.277344 41.492188 122.175781 C 41.363281 122.078125 41.277344 121.929688 41.253906 121.753906 L 41.175781 121.761719 " fill-opacity="1" fill-rule="nonzero"/></g></g></g></g><g clip-path="url(#a2188f732f)"><g clip-path="url(#a06c1d1317)"><g clip-path="url(#b7b29f2053)"><g clip-path="url(#48c41d0eee)"><path fill="#885439" d="M 45.996094 88.375 L 50.058594 121.390625 L 50.21875 121.371094 L 46.15625 88.355469 " fill-opacity="1" fill-rule="nonzero"/></g></g></g></g><g clip-path="url(#d2119a4ad7)"><g clip-path="url(#2fcc27514c)"><g clip-path="url(#cfa61a458c)"><g clip-path="url(#d47f6b72a3)"><path fill="#885439" d="M 46.40625 106.199219 C 46.4375 106.449219 46.667969 106.628906 46.921875 106.597656 C 47.175781 106.566406 47.355469 106.335938 47.324219 106.085938 L 46.917969 102.808594 C 46.890625 102.554688 46.65625 102.375 46.40625 102.40625 C 46.152344 102.4375 45.96875 102.667969 46 102.921875 L 46.40625 106.199219 " fill-opacity="1" fill-rule="nonzero"/></g></g></g></g><g clip-path="url(#f60535e87c)"><g clip-path="url(#44b733a83e)"><g clip-path="url(#fef62fb54d)"><g clip-path="url(#5c7b8de8b7)"><path fill="#885439" d="M 49.082031 105.867188 C 49.113281 106.121094 49.34375 106.300781 49.597656 106.269531 C 49.851562 106.238281 50.03125 106.007812 50 105.753906 L 49.597656 102.476562 C 49.566406 102.226562 49.335938 102.046875 49.082031 102.078125 C 48.828125 102.109375 48.648438 102.339844 48.679688 102.589844 L 49.082031 105.867188 " fill-opacity="1" fill-rule="nonzero"/></g></g></g></g><g clip-path="url(#5a8efb9ae0)"><g clip-path="url(#35d879d9e7)"><g clip-path="url(#c1ab0a0da9)"><g clip-path="url(#56d0ee43ea)"><path fill="#1a0b0c" d="M 55.984375 122.816406 L 58.738281 122.476562 L 58.628906 121.5625 L 55.871094 121.902344 L 55.984375 122.816406 " fill-opacity="1" fill-rule="nonzero"/></g></g></g></g><g clip-path="url(#38f2031a52)"><g clip-path="url(#2aa045ddd5)"><g clip-path="url(#b0ca2634f9)"><g clip-path="url(#56bb46e42a)"><path fill="#1a0b0c" d="M 42.132812 124.519531 L 44.890625 124.183594 L 44.777344 123.265625 L 42.023438 123.605469 L 42.132812 124.519531 " fill-opacity="1" fill-rule="nonzero"/></g></g></g></g><g clip-path="url(#4fc45909c6)"><g clip-path="url(#9cefc03df8)"><g clip-path="url(#1ced221dea)"><path fill="#0cc0df" d="M 46.710938 88.433594 C 50.679688 88.679688 55.265625 87.695312 58.78125 85.84375 C 59.097656 87.3125 59.414062 88.78125 59.726562 90.25 C 56.28125 92.066406 51.8125 93.039062 47.902344 92.855469 C 47.503906 91.382812 47.105469 89.90625 46.710938 88.433594 " fill-opacity="1" fill-rule="nonzero"/></g></g></g><g clip-path="url(#f4e104ef79)"><g clip-path="url(#08dc4d37e5)"><g clip-path="url(#27513a23f4)"><path fill="#5ce1e6" d="M 64.757812 87.449219 L 58.78125 85.84375 C 57.808594 87.980469 55.871094 89.640625 53.398438 90.171875 C 50.925781 90.703125 48.476562 89.980469 46.710938 88.433594 L 41.917969 92.347656 C 40.363281 93.710938 40.324219 93.066406 36.214844 103 C 37.308594 103.675781 43.445312 106.242188 43.445312 106.242188 L 45.53125 102.441406 L 50.128906 123.875 C 50.1875 124.148438 50.425781 124.347656 50.707031 124.355469 C 52.21875 124.40625 56.929688 124.113281 60.511719 123.34375 C 64.09375 122.578125 68.507812 120.914062 69.867188 120.246094 C 70.121094 120.125 70.257812 119.84375 70.199219 119.570312 L 65.601562 98.136719 L 69.0625 100.746094 C 69.0625 100.746094 73.605469 95.890625 74.328125 94.824219 C 66.507812 87.449219 66.738281 88.054688 64.757812 87.449219 " fill-opacity="1" fill-rule="nonzero"/></g></g></g><g clip-path="url(#faca21278c)"><g clip-path="url(#c5f4f213f6)"><g clip-path="url(#11ba013fe5)"><path fill="#0cc0df" d="M 59.464844 86.027344 L 59.457031 86.046875 C 58.34375 88.558594 56.191406 90.320312 53.550781 90.886719 C 50.910156 91.453125 48.222656 90.726562 46.175781 88.894531 L 46.160156 88.878906 L 45.789062 89.1875 L 45.867188 89.257812 C 48.027344 91.191406 50.863281 91.960938 53.652344 91.359375 C 56.441406 90.761719 58.714844 88.898438 59.890625 86.25 L 59.933594 86.152344 L 59.464844 86.027344 " fill-opacity="1" fill-rule="nonzero"/></g></g></g><g clip-path="url(#b417fd61ce)"><g clip-path="url(#c53303f9d1)"><g clip-path="url(#d4b0e4f282)"><path fill="#0cc0df" d="M 45.53125 102.441406 L 45.539062 102.464844 C 45.25 100.867188 44.621094 96.832031 42.382812 93.648438 C 42.753906 94.332031 44.203125 96.886719 44.984375 103.441406 L 45.53125 102.441406 " fill-opacity="1" fill-rule="nonzero"/></g></g></g><g clip-path="url(#190e153db7)"><g clip-path="url(#3d007c0004)"><g clip-path="url(#6e19add3f1)"><path fill="#0cc0df" d="M 65.601562 98.136719 L 65.605469 98.160156 C 65.210938 96.585938 64.132812 92.648438 64.867188 88.824219 C 64.8125 89.601562 64.539062 92.527344 66.511719 98.824219 L 65.601562 98.136719 " fill-opacity="1" fill-rule="nonzero"/></g></g></g><g clip-path="url(#e534c87431)"><g clip-path="url(#9482d4cce2)"><g clip-path="url(#e053ebb27b)"><path fill="#0cc0df" d="M 36.519531 102.261719 L 43.867188 105.472656 L 44.089844 105.066406 L 36.699219 101.832031 C 36.640625 101.972656 36.582031 102.117188 36.519531 102.261719 " fill-opacity="1" fill-rule="nonzero"/></g></g></g><g clip-path="url(#6d2efb6aef)"><g clip-path="url(#5af8648f55)"><g clip-path="url(#31b6e245e9)"><path fill="#0cc0df" d="M 68.363281 100.21875 L 73.746094 94.277344 C 73.632812 94.167969 73.519531 94.0625 73.40625 93.957031 L 67.992188 99.941406 L 68.363281 100.21875 " fill-opacity="1" fill-rule="nonzero"/></g></g></g><g clip-path="url(#01e8cfb9dc)"><g clip-path="url(#e39528bfe0)"><g clip-path="url(#bf23d478aa)"><path fill="#ededed" d="M 53.160156 106.132812 L 59.207031 104.835938 L 60.507812 110.886719 L 54.457031 112.183594 Z M 53.160156 106.132812 " fill-opacity="1" fill-rule="nonzero"/></g></g></g><g clip-path="url(#51d2c0330b)"><g clip-path="url(#aba8be3b3f)"><g clip-path="url(#56613c9ae0)"><path fill="#ffffff" d="M 51.59375 105.222656 L 55.929688 104.296875 L 56.859375 108.628906 L 52.523438 109.558594 Z M 51.59375 105.222656 " fill-opacity="1" fill-rule="nonzero"/></g></g></g><g clip-path="url(#5b9dc8f49c)"><g clip-path="url(#0b2e473448)"><g clip-path="url(#2269f4b4ab)"><path fill="#ffffff" d="M 55.976562 106.625 L 61.707031 105.394531 L 62.777344 110.398438 L 57.050781 111.628906 Z M 55.976562 106.625 " fill-opacity="1" fill-rule="nonzero"/></g></g></g></svg>