<svg xmlns="http://www.w3.org/2000/svg" xmlns:xlink="http://www.w3.org/1999/xlink" width="190" zoomAndPan="magnify" viewBox="0 0 142.5 142.499995" height="190" preserveAspectRatio="xMidYMid meet" version="1.0"><defs><clipPath id="4f9b1868ed"><path d="M 28 23 L 48 23 L 48 35 L 28 35 Z M 28 23 " clip-rule="nonzero"/></clipPath><clipPath id="8d5f75ebbb"><path d="M 9.519531 33.898438 L 65.40625 17.320312 L 80.925781 69.625 L 25.035156 86.203125 Z M 9.519531 33.898438 " clip-rule="nonzero"/></clipPath><clipPath id="a76a0a7abd"><path d="M 9.519531 33.898438 L 65.40625 17.320312 L 80.925781 69.625 L 25.035156 86.203125 Z M 9.519531 33.898438 " clip-rule="nonzero"/></clipPath><clipPath id="9ac78f01ad"><path d="M 14 23 L 71 23 L 71 81 L 14 81 Z M 14 23 " clip-rule="nonzero"/></clipPath><clipPath id="7602f5151c"><path d="M 9.519531 33.898438 L 65.40625 17.320312 L 80.925781 69.625 L 25.035156 86.203125 Z M 9.519531 33.898438 " clip-rule="nonzero"/></clipPath><clipPath id="cee75568b2"><path d="M 9.519531 33.898438 L 65.40625 17.320312 L 80.925781 69.625 L 25.035156 86.203125 Z M 9.519531 33.898438 " clip-rule="nonzero"/></clipPath><clipPath id="e0b36dcf9f"><path d="M 27 23 L 48 23 L 48 33 L 27 33 Z M 27 23 " clip-rule="nonzero"/></clipPath><clipPath id="0d8f58d4bc"><path d="M 9.519531 33.898438 L 65.40625 17.320312 L 80.925781 69.625 L 25.035156 86.203125 Z M 9.519531 33.898438 " clip-rule="nonzero"/></clipPath><clipPath id="dd47efcd17"><path d="M 9.519531 33.898438 L 65.40625 17.320312 L 80.925781 69.625 L 25.035156 86.203125 Z M 9.519531 33.898438 " clip-rule="nonzero"/></clipPath><clipPath id="468cea026e"><path d="M 22 36 L 29 36 L 29 51 L 22 51 Z M 22 36 " clip-rule="nonzero"/></clipPath><clipPath id="f2368e9386"><path d="M 9.519531 33.898438 L 65.40625 17.320312 L 80.925781 69.625 L 25.035156 86.203125 Z M 9.519531 33.898438 " clip-rule="nonzero"/></clipPath><clipPath id="11e92ee003"><path d="M 9.519531 33.898438 L 65.40625 17.320312 L 80.925781 69.625 L 25.035156 86.203125 Z M 9.519531 33.898438 " clip-rule="nonzero"/></clipPath><clipPath id="9104afc42b"><path d="M 55 26 L 59 26 L 59 42 L 55 42 Z M 55 26 " clip-rule="nonzero"/></clipPath><clipPath id="513320bc40"><path d="M 9.519531 33.898438 L 65.40625 17.320312 L 80.925781 69.625 L 25.035156 86.203125 Z M 9.519531 33.898438 " clip-rule="nonzero"/></clipPath><clipPath id="59ea2a3c8e"><path d="M 9.519531 33.898438 L 65.40625 17.320312 L 80.925781 69.625 L 25.035156 86.203125 Z M 9.519531 33.898438 " clip-rule="nonzero"/></clipPath><clipPath id="c575e50bb4"><path d="M 15 49 L 27 49 L 27 54 L 15 54 Z M 15 49 " clip-rule="nonzero"/></clipPath><clipPath id="9c4e1bc217"><path d="M 9.519531 33.898438 L 65.40625 17.320312 L 80.925781 69.625 L 25.035156 86.203125 Z M 9.519531 33.898438 " clip-rule="nonzero"/></clipPath><clipPath id="833cd52139"><path d="M 9.519531 33.898438 L 65.40625 17.320312 L 80.925781 69.625 L 25.035156 86.203125 Z M 9.519531 33.898438 " clip-rule="nonzero"/></clipPath><clipPath id="c2bd9f03d7"><path d="M 61 33 L 70 33 L 70 44 L 61 44 Z M 61 33 " clip-rule="nonzero"/></clipPath><clipPath id="6ae40e68c3"><path d="M 9.519531 33.898438 L 65.40625 17.320312 L 80.925781 69.625 L 25.035156 86.203125 Z M 9.519531 33.898438 " clip-rule="nonzero"/></clipPath><clipPath id="9a7856a6d1"><path d="M 9.519531 33.898438 L 65.40625 17.320312 L 80.925781 69.625 L 25.035156 86.203125 Z M 9.519531 33.898438 " clip-rule="nonzero"/></clipPath><clipPath id="4d610356f4"><path d="M 3.195312 2.5625 L 138.46875 2.5625 L 138.46875 139.335938 L 3.195312 139.335938 Z M 3.195312 2.5625 " clip-rule="nonzero"/></clipPath><clipPath id="15c97474f4"><path d="M 6.1875 2.5625 L 135.8125 2.5625 C 136.605469 2.5625 137.367188 2.878906 137.925781 3.441406 C 138.488281 4 138.804688 4.761719 138.804688 5.554688 L 138.804688 136.4375 C 138.804688 137.230469 138.488281 137.992188 137.925781 138.550781 C 137.367188 139.113281 136.605469 139.429688 135.8125 139.429688 L 6.1875 139.429688 C 5.394531 139.429688 4.632812 139.113281 4.070312 138.550781 C 3.511719 137.992188 3.195312 137.230469 3.195312 136.4375 L 3.195312 5.554688 C 3.195312 4.761719 3.511719 4 4.070312 3.441406 C 4.632812 2.878906 5.394531 2.5625 6.1875 2.5625 Z M 6.1875 2.5625 " clip-rule="nonzero"/></clipPath><clipPath id="3865a1ecdb"><path d="M 47 66 L 85 66 L 85 120 L 47 120 Z M 47 66 " clip-rule="nonzero"/></clipPath><clipPath id="eaab295f11"><path d="M 50.015625 65.160156 L 85.761719 68.1875 L 81.347656 120.316406 L 45.601562 117.289062 Z M 50.015625 65.160156 " clip-rule="nonzero"/></clipPath><clipPath id="0156764303"><path d="M 50.015625 65.160156 L 85.761719 68.1875 L 81.347656 120.316406 L 45.601562 117.289062 Z M 50.015625 65.160156 " clip-rule="nonzero"/></clipPath><clipPath id="60a30b2160"><path d="M 68 33 L 119 33 L 119 84 L 68 84 Z M 68 33 " clip-rule="nonzero"/></clipPath><clipPath id="ea68dc86e0"><path d="M 83.722656 30.632812 L 126.097656 47.453125 L 108.175781 92.605469 L 65.800781 75.785156 Z M 83.722656 30.632812 " clip-rule="nonzero"/></clipPath><clipPath id="c5809a62f9"><path d="M 83.722656 30.632812 L 126.097656 47.453125 L 108.175781 92.605469 L 65.800781 75.785156 Z M 83.722656 30.632812 " clip-rule="nonzero"/></clipPath></defs><path fill="#d9d9d9" d="M 24.898438 30.976562 C 28.824219 23.523438 37.886719 23.089844 45.492188 23.785156 C 53.992188 24.570312 58.371094 22.304688 65.542969 18.140625 C 71.359375 14.761719 76.742188 14.871094 82.910156 18.03125 C 90.363281 21.867188 88.835938 28.730469 94.875 33.089844 C 100.472656 37.144531 108.929688 35.335938 114.878906 39.082031 C 120.851562 42.851562 122.460938 49.367188 122.136719 56.101562 C 121.679688 65.277344 116.949219 73.863281 118.628906 83.167969 C 119.976562 90.664062 127.800781 98.355469 123.902344 106.269531 C 116.601562 121.066406 93.804688 108.664062 82.082031 110.824219 C 69.398438 113.175781 50.179688 127.230469 37.976562 114.746094 C 32.570312 109.230469 35.492188 100.449219 35.382812 93.714844 C 35.230469 84.34375 32.027344 81.511719 25.488281 75.410156 C 19.191406 69.546875 14.199219 66.628906 16.683594 57.757812 C 18.167969 52.441406 25.402344 51.265625 26.753906 47.757812 C 28.386719 43.375 22.65625 35.203125 24.898438 30.976562 Z M 24.898438 30.976562 " fill-opacity="1" fill-rule="nonzero"/><g clip-path="url(#4f9b1868ed)"><g clip-path="url(#8d5f75ebbb)"><g clip-path="url(#a76a0a7abd)"><path fill="#0cc0df" d="M 28.53125 28.261719 C 34.417969 28.167969 41.078125 26.195312 46.0625 23.058594 C 46.695312 25.191406 47.328125 27.324219 47.960938 29.457031 C 43.082031 32.53125 36.589844 34.476562 30.796875 34.652344 C 30.042969 32.523438 29.289062 30.390625 28.53125 28.261719 " fill-opacity="1" fill-rule="nonzero"/></g></g></g><g clip-path="url(#9ac78f01ad)"><g clip-path="url(#7602f5151c)"><g clip-path="url(#cee75568b2)"><path fill="#5ce1e6" d="M 55.070312 24.75 L 46.0625 23.058594 C 44.867188 26.324219 42.195312 29 38.605469 30.066406 C 35.015625 31.128906 31.316406 30.34375 28.53125 28.261719 L 21.902344 34.585938 C 19.761719 36.777344 19.632812 35.832031 14.699219 50.964844 C 16.394531 51.835938 25.746094 54.925781 25.746094 54.925781 L 28.394531 49.078125 L 37.625 80.199219 C 37.746094 80.597656 38.117188 80.867188 38.535156 80.847656 C 40.773438 80.746094 47.695312 79.777344 52.894531 78.234375 C 58.097656 76.691406 64.425781 73.730469 66.359375 72.59375 C 66.71875 72.382812 66.886719 71.953125 66.765625 71.554688 L 57.535156 40.433594 L 62.941406 43.890625 C 62.941406 43.890625 69.097656 36.203125 70.039062 34.542969 C 57.652344 24.550781 58.058594 25.417969 55.070312 24.75 " fill-opacity="1" fill-rule="nonzero"/></g></g></g><g clip-path="url(#e0b36dcf9f)"><g clip-path="url(#0d8f58d4bc)"><g clip-path="url(#dd47efcd17)"><path fill="#0cc0df" d="M 47.09375 23.25 L 47.082031 23.28125 C 45.726562 27.113281 42.75 29.964844 38.914062 31.105469 C 35.078125 32.242188 31.027344 31.476562 27.796875 29.003906 L 27.773438 28.984375 L 27.257812 29.476562 L 27.382812 29.574219 C 30.789062 32.183594 35.066406 32.992188 39.117188 31.792969 C 43.167969 30.589844 46.3125 27.578125 47.742188 23.53125 L 47.796875 23.382812 L 47.09375 23.25 " fill-opacity="1" fill-rule="nonzero"/></g></g></g><g clip-path="url(#468cea026e)"><g clip-path="url(#f2368e9386)"><g clip-path="url(#11e92ee003)"><path fill="#0cc0df" d="M 28.394531 49.078125 L 28.402344 49.113281 C 27.796875 46.785156 26.40625 40.902344 22.738281 36.453125 C 23.363281 37.421875 25.792969 41.03125 27.695312 50.617188 L 28.394531 49.078125 " fill-opacity="1" fill-rule="nonzero"/></g></g></g><g clip-path="url(#9104afc42b)"><g clip-path="url(#513320bc40)"><g clip-path="url(#59ea2a3c8e)"><path fill="#0cc0df" d="M 57.535156 40.433594 L 57.542969 40.46875 C 56.78125 38.1875 54.738281 32.496094 55.390625 26.765625 C 55.390625 27.921875 55.324219 32.269531 58.957031 41.339844 L 57.535156 40.433594 " fill-opacity="1" fill-rule="nonzero"/></g></g></g><g clip-path="url(#c575e50bb4)"><g clip-path="url(#9c4e1bc217)"><g clip-path="url(#833cd52139)"><path fill="#0cc0df" d="M 15.066406 49.839844 L 26.277344 53.746094 L 26.5625 53.117188 L 15.28125 49.1875 C 15.210938 49.402344 15.136719 49.617188 15.066406 49.839844 " fill-opacity="1" fill-rule="nonzero"/></g></g></g><g clip-path="url(#c2bd9f03d7)"><g clip-path="url(#6ae40e68c3)"><g clip-path="url(#9a7856a6d1)"><path fill="#0cc0df" d="M 61.851562 43.191406 L 69.121094 33.804688 C 68.9375 33.65625 68.757812 33.511719 68.582031 33.371094 L 61.269531 42.820312 L 61.851562 43.191406 " fill-opacity="1" fill-rule="nonzero"/></g></g></g><g clip-path="url(#4d610356f4)"><g clip-path="url(#15c97474f4)"><path stroke-linecap="butt" transform="matrix(0.747378, 0, 0, 0.747378, 3.196572, 2.564405)" fill="none" stroke-linejoin="miter" d="M 4.001897 -0.00254858 L 177.441666 -0.00254858 C 178.502667 -0.00254858 179.521856 0.420807 180.269261 1.173438 C 181.021892 1.920843 181.445248 2.940032 181.445248 4.001033 L 181.445248 179.123769 C 181.445248 180.184771 181.021892 181.20396 180.269261 181.951365 C 179.521856 182.703996 178.502667 183.127351 177.441666 183.127351 L 4.001897 183.127351 C 2.940896 183.127351 1.921707 182.703996 1.169076 181.951365 C 0.421671 181.20396 -0.00168462 180.184771 -0.00168462 179.123769 L -0.00168462 4.001033 C -0.00168462 2.940032 0.421671 1.920843 1.169076 1.173438 C 1.921707 0.420807 2.940896 -0.00254858 4.001897 -0.00254858 Z M 4.001897 -0.00254858 " stroke="#78dedb" stroke-width="2" stroke-opacity="1" stroke-miterlimit="4"/></g></g><g clip-path="url(#3865a1ecdb)"><g clip-path="url(#eaab295f11)"><g clip-path="url(#0156764303)"><path fill="#ffea8e" d="M 49.921875 117.515625 C 48.9375 117.25 48.71875 117.027344 48.5625 116.75 C 48.527344 116.691406 48.53125 116.757812 48.46875 116.507812 C 48.398438 116.214844 48.332031 115.859375 48.289062 115.175781 C 48.242188 114.507812 48.179688 113.5625 48.140625 113.070312 C 47.914062 111.289062 48.078125 112.03125 47.914062 111.289062 C 47.792969 110.574219 47.726562 108.523438 47.773438 106.847656 C 47.796875 106.007812 47.804688 105.292969 47.789062 105.261719 C 47.777344 105.234375 47.804688 104.222656 47.851562 103.019531 C 47.902344 101.796875 47.917969 99.238281 47.890625 97.238281 C 47.804688 91.460938 47.84375 90.816406 48.523438 86.296875 L 48.644531 85.492188 L 49.777344 85.558594 C 50.960938 85.632812 52.265625 85.863281 52.664062 86.078125 C 53.140625 86.332031 53.316406 86.339844 54.03125 86.160156 C 54.953125 85.925781 55.707031 85.878906 56.992188 85.980469 C 57.570312 86.023438 58.324219 86.078125 58.664062 86.105469 L 59.285156 86.148438 L 59.363281 85.871094 C 59.402344 85.714844 59.507812 85.121094 59.59375 84.542969 C 59.761719 83.429688 60.519531 79.707031 60.699219 79.128906 C 60.757812 78.9375 60.902344 78.386719 61.015625 77.90625 C 61.246094 76.917969 61.757812 75.242188 62.082031 74.410156 C 62.203125 74.105469 62.421875 73.457031 62.570312 72.964844 C 63.164062 71.023438 64.058594 69.3125 65.0625 68.1875 C 65.859375 67.304688 66.582031 66.894531 67.582031 66.777344 C 68.011719 66.726562 68.15625 66.742188 68.59375 66.890625 C 70.203125 67.449219 70.777344 68.316406 71.535156 71.355469 C 71.734375 72.148438 72.042969 73.527344 72.222656 74.414062 C 72.398438 75.304688 72.574219 76.105469 72.605469 76.199219 C 72.675781 76.40625 73.296875 81.03125 73.351562 81.757812 C 73.25 82.964844 73.324219 83.007812 73.359375 84.550781 C 73.359375 86.375 73.398438 86.832031 73.5625 87.03125 C 73.703125 87.195312 73.851562 87.222656 76.070312 87.453125 C 78.472656 87.703125 78.792969 87.769531 79.117188 88.101562 C 79.195312 88.179688 79.398438 88.324219 79.550781 88.269531 L 80.109375 88.074219 C 80.296875 88.007812 80.355469 88.058594 80.476562 88.050781 C 80.679688 88.035156 81.605469 88.0625 82.539062 88.109375 L 84.226562 88.191406 L 84.144531 88.707031 C 84.019531 89.460938 83.582031 92.972656 83.179688 96.480469 C 82.988281 98.164062 82.78125 99.707031 82.726562 99.902344 C 82.667969 100.097656 82.5 101.039062 82.351562 101.988281 C 82.207031 102.9375 82.003906 104.023438 81.90625 104.394531 C 81.671875 106.210938 81.667969 107.492188 81.324219 109.273438 C 81.28125 109.492188 81.175781 110.105469 81.089844 110.636719 C 81.007812 111.167969 80.867188 111.960938 80.78125 112.402344 C 80.695312 112.84375 80.59375 113.695312 80.441406 114.269531 C 80.15625 115.324219 80.175781 115.261719 80.15625 115.324219 C 80.101562 115.53125 79.863281 116.4375 79.863281 116.4375 C 79.195312 118.980469 79.535156 118.332031 79.097656 118.953125 C 78.671875 119.550781 78.585938 119.609375 77.863281 119.746094 C 77.371094 119.835938 76.730469 119.789062 67.757812 118.996094 C 54.316406 117.808594 51.21875 117.550781 50.613281 117.554688 C 50.320312 117.554688 50.011719 117.539062 49.921875 117.515625 Z M 66.390625 86.507812 C 68.347656 86.648438 70.078125 86.753906 70.230469 86.738281 L 70.507812 86.710938 L 70.503906 86.128906 C 70.496094 85.429688 70.390625 83.363281 70.230469 80.761719 C 70.164062 79.703125 70.089844 77.957031 70.066406 76.878906 C 69.917969 70.488281 69.890625 70.117188 69.507812 69.089844 C 69.222656 68.332031 69.210938 68.316406 68.730469 68.023438 C 67.894531 67.511719 67.359375 67.578125 66.507812 68.296875 C 65.863281 68.84375 65.492188 69.328125 65.269531 69.894531 C 65.191406 70.101562 64.992188 70.570312 64.832031 70.9375 C 64.605469 71.453125 64.496094 71.875 64.34375 72.769531 C 64.238281 73.410156 64.03125 74.472656 63.890625 75.132812 C 63.613281 76.421875 63.429688 77.65625 62.867188 82.011719 C 62.671875 83.539062 62.464844 85.101562 62.410156 85.480469 C 62.351562 85.859375 62.332031 86.199219 62.359375 86.234375 C 62.390625 86.269531 62.507812 86.285156 62.625 86.273438 C 62.738281 86.257812 64.433594 86.363281 66.390625 86.507812 Z M 66.390625 86.507812 " fill-opacity="1" fill-rule="nonzero"/></g></g></g><g clip-path="url(#60a30b2160)"><g clip-path="url(#ea68dc86e0)"><g clip-path="url(#c5809a62f9)"><path fill="#ffffff" d="M 111.527344 52.824219 L 113.75 47.230469 C 114.585938 45.121094 108.253906 40.484375 99.453125 36.992188 C 90.742188 33.535156 82.992188 32.476562 82.117188 34.675781 L 68.941406 67.867188 C 68.25 69.605469 68.605469 71.65625 69.964844 73.046875 C 77.367188 80.335938 86.074219 83.792969 96.1875 83.453125 C 98.128906 83.375 99.882812 82.164062 100.574219 80.421875 L 102.359375 75.929688 C 106.519531 77.472656 112.136719 74.820312 115.566406 69.390625 C 120.636719 61.425781 117.976562 53.152344 111.527344 52.824219 Z M 98.652344 39.007812 C 105.527344 41.738281 109.675781 44.660156 111.179688 46.210938 C 109.113281 46.34375 104.089844 45.625 97.121094 42.859375 C 90.15625 40.09375 86.097656 37.210938 84.683594 35.695312 C 86.789062 35.46875 91.773438 36.28125 98.652344 39.007812 Z M 113.785156 68.257812 C 110.976562 72.664062 106.367188 75.183594 103.160156 73.910156 L 110.691406 54.933594 C 116.242188 54.585938 117.835938 61.800781 113.785156 68.257812 Z M 113.785156 68.257812 " fill-opacity="1" fill-rule="nonzero"/></g></g></g></svg>