<svg xmlns="http://www.w3.org/2000/svg" xmlns:xlink="http://www.w3.org/1999/xlink" width="190" zoomAndPan="magnify" viewBox="0 0 142.5 142.499995" height="190" preserveAspectRatio="xMidYMid meet" version="1.0"><defs><g/><clipPath id="22c84aa747"><path d="M 40 24 L 58 24 L 58 34 L 40 34 Z M 40 24 " clip-rule="nonzero"/></clipPath><clipPath id="5824850709"><path d="M 23.382812 31.195312 L 74.019531 21.4375 L 83.210938 69.140625 L 32.574219 78.898438 Z M 23.382812 31.195312 " clip-rule="nonzero"/></clipPath><clipPath id="8298f507f5"><path d="M 23.382812 31.195312 L 74.019531 21.4375 L 83.210938 69.140625 L 32.574219 78.898438 Z M 23.382812 31.195312 " clip-rule="nonzero"/></clipPath><clipPath id="068c6cf45b"><path d="M 26 24 L 77 24 L 77 76 L 26 76 Z M 26 24 " clip-rule="nonzero"/></clipPath><clipPath id="d4a8f86118"><path d="M 23.382812 31.195312 L 74.019531 21.4375 L 83.210938 69.140625 L 32.574219 78.898438 Z M 23.382812 31.195312 " clip-rule="nonzero"/></clipPath><clipPath id="a00706ca90"><path d="M 23.382812 31.195312 L 74.019531 21.4375 L 83.210938 69.140625 L 32.574219 78.898438 Z M 23.382812 31.195312 " clip-rule="nonzero"/></clipPath><clipPath id="ed2c8f086e"><path d="M 39 25 L 58 25 L 58 33 L 39 33 Z M 39 25 " clip-rule="nonzero"/></clipPath><clipPath id="7c080bc020"><path d="M 23.382812 31.195312 L 74.019531 21.4375 L 83.210938 69.140625 L 32.574219 78.898438 Z M 23.382812 31.195312 " clip-rule="nonzero"/></clipPath><clipPath id="14f37d7c97"><path d="M 23.382812 31.195312 L 74.019531 21.4375 L 83.210938 69.140625 L 32.574219 78.898438 Z M 23.382812 31.195312 " clip-rule="nonzero"/></clipPath><clipPath id="7c29abd988"><path d="M 34 34 L 39 34 L 39 48 L 34 48 Z M 34 34 " clip-rule="nonzero"/></clipPath><clipPath id="66b4708bcd"><path d="M 23.382812 31.195312 L 74.019531 21.4375 L 83.210938 69.140625 L 32.574219 78.898438 Z M 23.382812 31.195312 " clip-rule="nonzero"/></clipPath><clipPath id="9b7fa97387"><path d="M 23.382812 31.195312 L 74.019531 21.4375 L 83.210938 69.140625 L 32.574219 78.898438 Z M 23.382812 31.195312 " clip-rule="nonzero"/></clipPath><clipPath id="e78cabac3d"><path d="M 63 28 L 67 28 L 67 43 L 63 43 Z M 63 28 " clip-rule="nonzero"/></clipPath><clipPath id="46b892cb46"><path d="M 23.382812 31.195312 L 74.019531 21.4375 L 83.210938 69.140625 L 32.574219 78.898438 Z M 23.382812 31.195312 " clip-rule="nonzero"/></clipPath><clipPath id="973a941daa"><path d="M 23.382812 31.195312 L 74.019531 21.4375 L 83.210938 69.140625 L 32.574219 78.898438 Z M 23.382812 31.195312 " clip-rule="nonzero"/></clipPath><clipPath id="d58a9421d0"><path d="M 26 45 L 37 45 L 37 51 L 26 51 Z M 26 45 " clip-rule="nonzero"/></clipPath><clipPath id="be7df6ba7d"><path d="M 23.382812 31.195312 L 74.019531 21.4375 L 83.210938 69.140625 L 32.574219 78.898438 Z M 23.382812 31.195312 " clip-rule="nonzero"/></clipPath><clipPath id="d4cb24bc08"><path d="M 23.382812 31.195312 L 74.019531 21.4375 L 83.210938 69.140625 L 32.574219 78.898438 Z M 23.382812 31.195312 " clip-rule="nonzero"/></clipPath><clipPath id="8f4ab6c0da"><path d="M 68 35 L 76 35 L 76 44 L 68 44 Z M 68 35 " clip-rule="nonzero"/></clipPath><clipPath id="cec3c959bb"><path d="M 23.382812 31.195312 L 74.019531 21.4375 L 83.210938 69.140625 L 32.574219 78.898438 Z M 23.382812 31.195312 " clip-rule="nonzero"/></clipPath><clipPath id="6e2eb6539e"><path d="M 23.382812 31.195312 L 74.019531 21.4375 L 83.210938 69.140625 L 32.574219 78.898438 Z M 23.382812 31.195312 " clip-rule="nonzero"/></clipPath><clipPath id="fa2999aebb"><path d="M 48 49 L 59 49 L 59 60 L 48 60 Z M 48 49 " clip-rule="nonzero"/></clipPath><clipPath id="60b3e29c6e"><path d="M 48.539062 51.214844 L 56.488281 49.683594 L 58.019531 57.632812 L 50.070312 59.164062 Z M 48.539062 51.214844 " clip-rule="nonzero"/></clipPath><clipPath id="5d28a61541"><path d="M 48.539062 51.214844 L 56.488281 49.683594 L 58.019531 57.632812 L 50.070312 59.164062 Z M 48.539062 51.214844 " clip-rule="nonzero"/></clipPath><clipPath id="bbdbfbb957"><path d="M 47 49 L 53 49 L 53 56 L 47 56 Z M 47 49 " clip-rule="nonzero"/></clipPath><clipPath id="c5bcc66d70"><path d="M 46.519531 49.980469 L 52.210938 48.882812 L 53.308594 54.578125 L 47.617188 55.675781 Z M 46.519531 49.980469 " clip-rule="nonzero"/></clipPath><clipPath id="c2e3931a7b"><path d="M 49.363281 49.433594 C 47.792969 49.734375 46.765625 51.257812 47.066406 52.828125 C 47.371094 54.402344 48.890625 55.429688 50.460938 55.125 C 52.035156 54.824219 53.0625 53.304688 52.761719 51.730469 C 52.457031 50.160156 50.9375 49.128906 49.363281 49.433594 Z M 49.363281 49.433594 " clip-rule="nonzero"/></clipPath><clipPath id="a86a4967bc"><path d="M 53 51 L 61 51 L 61 59 L 53 59 Z M 53 51 " clip-rule="nonzero"/></clipPath><clipPath id="4b15092341"><path d="M 52.214844 51.933594 L 59.738281 50.480469 L 61.007812 57.058594 L 53.480469 58.507812 Z M 52.214844 51.933594 " clip-rule="nonzero"/></clipPath><clipPath id="1151db3880"><path d="M 55.96875 51.207031 L 60.996094 57.058594 L 53.480469 58.507812 Z M 55.96875 51.207031 " clip-rule="nonzero"/></clipPath><clipPath id="e42a3d9ab3"><path d="M 37 25 L 55 25 L 55 37 L 37 37 Z M 37 25 " clip-rule="nonzero"/></clipPath><clipPath id="61617f5f6c"><path d="M 20.9375 36.757812 L 69.371094 19.816406 L 85.3125 65.375 L 36.878906 82.320312 Z M 20.9375 36.757812 " clip-rule="nonzero"/></clipPath><clipPath id="ee38842232"><path d="M 20.9375 36.757812 L 69.371094 19.816406 L 85.3125 65.375 L 36.878906 82.320312 Z M 20.9375 36.757812 " clip-rule="nonzero"/></clipPath><clipPath id="eda7b99365"><path d="M 26 25 L 75 25 L 75 77 L 26 77 Z M 26 25 " clip-rule="nonzero"/></clipPath><clipPath id="1cf8c032c3"><path d="M 20.9375 36.757812 L 69.371094 19.816406 L 85.3125 65.375 L 36.878906 82.320312 Z M 20.9375 36.757812 " clip-rule="nonzero"/></clipPath><clipPath id="81eca6a612"><path d="M 20.9375 36.757812 L 69.371094 19.816406 L 85.3125 65.375 L 36.878906 82.320312 Z M 20.9375 36.757812 " clip-rule="nonzero"/></clipPath><clipPath id="7b796fce80"><path d="M 36 25 L 55 25 L 55 35 L 36 35 Z M 36 25 " clip-rule="nonzero"/></clipPath><clipPath id="e51ed42e41"><path d="M 20.9375 36.757812 L 69.371094 19.816406 L 85.3125 65.375 L 36.878906 82.320312 Z M 20.9375 36.757812 " clip-rule="nonzero"/></clipPath><clipPath id="e6b5c57dd2"><path d="M 20.9375 36.757812 L 69.371094 19.816406 L 85.3125 65.375 L 36.878906 82.320312 Z M 20.9375 36.757812 " clip-rule="nonzero"/></clipPath><clipPath id="c247088537"><path d="M 32 38 L 39 38 L 39 51 L 32 51 Z M 32 38 " clip-rule="nonzero"/></clipPath><clipPath id="eef680d8f0"><path d="M 20.9375 36.757812 L 69.371094 19.816406 L 85.3125 65.375 L 36.878906 82.320312 Z M 20.9375 36.757812 " clip-rule="nonzero"/></clipPath><clipPath id="a579b6bc9d"><path d="M 20.9375 36.757812 L 69.371094 19.816406 L 85.3125 65.375 L 36.878906 82.320312 Z M 20.9375 36.757812 " clip-rule="nonzero"/></clipPath><clipPath id="7876199c17"><path d="M 61 28 L 65 28 L 65 42 L 61 42 Z M 61 28 " clip-rule="nonzero"/></clipPath><clipPath id="8fde63f029"><path d="M 20.9375 36.757812 L 69.371094 19.816406 L 85.3125 65.375 L 36.878906 82.320312 Z M 20.9375 36.757812 " clip-rule="nonzero"/></clipPath><clipPath id="5c64f6973d"><path d="M 20.9375 36.757812 L 69.371094 19.816406 L 85.3125 65.375 L 36.878906 82.320312 Z M 20.9375 36.757812 " clip-rule="nonzero"/></clipPath><clipPath id="298eefe6a1"><path d="M 26 50 L 37 50 L 37 54 L 26 54 Z M 26 50 " clip-rule="nonzero"/></clipPath><clipPath id="2eb1b18432"><path d="M 20.9375 36.757812 L 69.371094 19.816406 L 85.3125 65.375 L 36.878906 82.320312 Z M 20.9375 36.757812 " clip-rule="nonzero"/></clipPath><clipPath id="c1adda7170"><path d="M 20.9375 36.757812 L 69.371094 19.816406 L 85.3125 65.375 L 36.878906 82.320312 Z M 20.9375 36.757812 " clip-rule="nonzero"/></clipPath><clipPath id="cc4142ee5e"><path d="M 66 33 L 74 33 L 74 43 L 66 43 Z M 66 33 " clip-rule="nonzero"/></clipPath><clipPath id="170c8a411a"><path d="M 20.9375 36.757812 L 69.371094 19.816406 L 85.3125 65.375 L 36.878906 82.320312 Z M 20.9375 36.757812 " clip-rule="nonzero"/></clipPath><clipPath id="54932020e2"><path d="M 20.9375 36.757812 L 69.371094 19.816406 L 85.3125 65.375 L 36.878906 82.320312 Z M 20.9375 36.757812 " clip-rule="nonzero"/></clipPath><clipPath id="60544c9ed1"><path d="M 48 50 L 60 50 L 60 61 L 48 61 Z M 48 50 " clip-rule="nonzero"/></clipPath><clipPath id="b558832000"><path d="M 48.742188 52.898438 L 56.386719 50.226562 L 59.058594 57.867188 L 51.417969 60.542969 Z M 48.742188 52.898438 " clip-rule="nonzero"/></clipPath><clipPath id="045f8f4c0a"><path d="M 48.742188 52.898438 L 56.386719 50.226562 L 59.058594 57.867188 L 51.417969 60.542969 Z M 48.742188 52.898438 " clip-rule="nonzero"/></clipPath><clipPath id="cbb5e2ae2a"><path d="M 47 50 L 54 50 L 54 57 L 47 57 Z M 47 50 " clip-rule="nonzero"/></clipPath><clipPath id="be86e682eb"><path d="M 46.566406 51.972656 L 52.039062 50.058594 L 53.953125 55.53125 L 48.480469 57.445312 Z M 46.566406 51.972656 " clip-rule="nonzero"/></clipPath><clipPath id="d0f9089c58"><path d="M 49.300781 51.015625 C 47.789062 51.542969 46.992188 53.199219 47.523438 54.710938 C 48.050781 56.222656 49.703125 57.019531 51.214844 56.488281 C 52.726562 55.960938 53.523438 54.304688 52.996094 52.796875 C 52.464844 51.285156 50.8125 50.488281 49.300781 51.015625 Z M 49.300781 51.015625 " clip-rule="nonzero"/></clipPath><clipPath id="7f664cc738"><path d="M 54 51 L 62 51 L 62 60 L 54 60 Z M 54 51 " clip-rule="nonzero"/></clipPath><clipPath id="f1ca033092"><path d="M 52.484375 53.074219 L 59.71875 50.542969 L 61.929688 56.863281 L 54.695312 59.394531 Z M 52.484375 53.074219 " clip-rule="nonzero"/></clipPath><clipPath id="883dbe633b"><path d="M 56.09375 51.808594 L 61.917969 56.867188 L 54.695312 59.394531 Z M 56.09375 51.808594 " clip-rule="nonzero"/></clipPath><clipPath id="cc5c944cc2"><path d="M 2.851562 2.46875 L 138.121094 2.46875 L 138.121094 139.238281 L 2.851562 139.238281 Z M 2.851562 2.46875 " clip-rule="nonzero"/></clipPath><clipPath id="ffd9e4e049"><path d="M 5.839844 2.46875 L 135.46875 2.46875 C 136.261719 2.46875 137.023438 2.785156 137.582031 3.34375 C 138.144531 3.90625 138.457031 4.664062 138.457031 5.457031 L 138.457031 136.34375 C 138.457031 137.136719 138.144531 137.898438 137.582031 138.457031 C 137.023438 139.019531 136.261719 139.332031 135.46875 139.332031 L 5.839844 139.332031 C 5.046875 139.332031 4.289062 139.019531 3.726562 138.457031 C 3.167969 137.898438 2.851562 137.136719 2.851562 136.34375 L 2.851562 5.457031 C 2.851562 4.664062 3.167969 3.90625 3.726562 3.34375 C 4.289062 2.785156 5.046875 2.46875 5.839844 2.46875 Z M 5.839844 2.46875 " clip-rule="nonzero"/></clipPath><clipPath id="5095d16f31"><path d="M 27.355469 56.132812 L 120.777344 56.132812 L 120.777344 121.902344 L 27.355469 121.902344 Z M 27.355469 56.132812 " clip-rule="nonzero"/></clipPath></defs><g clip-path="url(#22c84aa747)"><g clip-path="url(#5824850709)"><g clip-path="url(#8298f507f5)"><path fill="#0cc0df" d="M 40.582031 27.882812 C 45.765625 28.3125 51.792969 27.152344 56.445312 24.824219 C 56.820312 26.753906 57.191406 28.683594 57.5625 30.613281 C 53.007812 32.894531 47.128906 34.046875 42.019531 33.699219 C 41.542969 31.761719 41.0625 29.824219 40.582031 27.882812 " fill-opacity="1" fill-rule="nonzero"/></g></g></g><g clip-path="url(#068c6cf45b)"><g clip-path="url(#d4a8f86118)"><g clip-path="url(#a00706ca90)"><path fill="#00869d" d="M 64.21875 27.089844 L 56.445312 24.824219 C 55.113281 27.59375 52.53125 29.714844 49.285156 30.339844 C 46.035156 30.96875 42.851562 29.957031 40.582031 27.882812 L 34.207031 32.875 C 32.132812 34.613281 32.101562 33.769531 26.453125 46.648438 C 27.871094 47.5625 35.824219 51.089844 35.824219 51.089844 L 38.660156 46.175781 L 44.085938 74.339844 C 44.15625 74.699219 44.460938 74.96875 44.828125 74.988281 C 46.808594 75.089844 52.976562 74.839844 57.683594 73.929688 C 62.390625 73.023438 68.210938 70.964844 70.007812 70.132812 C 70.339844 69.980469 70.527344 69.617188 70.457031 69.257812 L 65.03125 41.097656 L 69.488281 44.601562 C 69.488281 44.601562 75.5625 38.375 76.535156 37 C 66.507812 27.140625 66.792969 27.9375 64.21875 27.089844 " fill-opacity="1" fill-rule="nonzero"/></g></g></g><g clip-path="url(#ed2c8f086e)"><g clip-path="url(#7c080bc020)"><g clip-path="url(#14f37d7c97)"><path fill="#0cc0df" d="M 57.335938 25.085938 L 57.324219 25.109375 C 55.800781 28.363281 52.933594 30.613281 49.464844 31.28125 C 45.992188 31.949219 42.496094 30.925781 39.875 28.472656 L 39.851562 28.453125 L 39.355469 28.84375 L 39.457031 28.9375 C 42.226562 31.527344 45.917969 32.609375 49.585938 31.902344 C 53.25 31.199219 56.273438 28.820312 57.882812 25.386719 L 57.941406 25.261719 L 57.335938 25.085938 " fill-opacity="1" fill-rule="nonzero"/></g></g></g><g clip-path="url(#7c29abd988)"><g clip-path="url(#66b4708bcd)"><g clip-path="url(#9b7fa97387)"><path fill="#00869d" d="M 38.660156 46.175781 L 38.664062 46.207031 C 38.335938 44.109375 37.621094 38.8125 34.777344 34.585938 C 35.246094 35.492188 37.070312 38.875 37.914062 47.46875 L 38.660156 46.175781 " fill-opacity="1" fill-rule="nonzero"/></g></g></g><g clip-path="url(#e78cabac3d)"><g clip-path="url(#46b892cb46)"><g clip-path="url(#973a941daa)"><path fill="#00869d" d="M 65.03125 41.097656 L 65.035156 41.125 C 64.5625 39.054688 63.257812 33.875 64.324219 28.894531 C 64.230469 29.90625 63.792969 33.726562 66.203125 42.015625 L 65.03125 41.097656 " fill-opacity="1" fill-rule="nonzero"/></g></g></g><g clip-path="url(#d58a9421d0)"><g clip-path="url(#be7df6ba7d)"><g clip-path="url(#d4cb24bc08)"><path fill="#0cc0df" d="M 26.875 45.691406 L 36.398438 50.097656 L 36.703125 49.570312 L 27.121094 45.136719 C 27.039062 45.320312 26.957031 45.503906 26.875 45.691406 " fill-opacity="1" fill-rule="nonzero"/></g></g></g><g clip-path="url(#8f4ab6c0da)"><g clip-path="url(#cec3c959bb)"><g clip-path="url(#6e2eb6539e)"><path fill="#0cc0df" d="M 68.589844 43.894531 L 75.792969 36.265625 C 75.644531 36.125 75.5 35.980469 75.355469 35.839844 L 68.109375 43.515625 L 68.589844 43.894531 " fill-opacity="1" fill-rule="nonzero"/></g></g></g><g clip-path="url(#fa2999aebb)"><g clip-path="url(#60b3e29c6e)"><g clip-path="url(#5d28a61541)"><path fill="#fafcfd" d="M 48.539062 51.214844 L 56.488281 49.683594 L 58.019531 57.632812 L 50.070312 59.164062 Z M 48.539062 51.214844 " fill-opacity="1" fill-rule="nonzero"/></g></g></g><g clip-path="url(#bbdbfbb957)"><g clip-path="url(#c5bcc66d70)"><g clip-path="url(#c2e3931a7b)"><path fill="#fafcfd" d="M 46.519531 49.980469 L 52.210938 48.882812 L 53.308594 54.578125 L 47.617188 55.675781 Z M 46.519531 49.980469 " fill-opacity="1" fill-rule="nonzero"/></g></g></g><g clip-path="url(#a86a4967bc)"><g clip-path="url(#4b15092341)"><g clip-path="url(#1151db3880)"><path fill="#fafcfd" d="M 52.214844 51.933594 L 59.738281 50.480469 L 61.007812 57.058594 L 53.480469 58.507812 Z M 52.214844 51.933594 " fill-opacity="1" fill-rule="nonzero"/></g></g></g><g clip-path="url(#e42a3d9ab3)"><g clip-path="url(#61617f5f6c)"><g clip-path="url(#ee38842232)"><path fill="#0cc0df" d="M 37.476562 30.972656 C 42.667969 30.644531 48.460938 28.617188 52.726562 25.636719 C 53.375 27.492188 54.023438 29.347656 54.675781 31.203125 C 50.5 34.125 44.851562 36.117188 39.75 36.519531 C 38.992188 34.671875 38.234375 32.824219 37.476562 30.972656 " fill-opacity="1" fill-rule="nonzero"/></g></g></g><g clip-path="url(#eda7b99365)"><g clip-path="url(#1cf8c032c3)"><g clip-path="url(#81eca6a612)"><path fill="#5ce1e6" d="M 60.746094 26.746094 L 52.726562 25.636719 C 51.808594 28.570312 49.566406 31.046875 46.445312 32.140625 C 43.320312 33.230469 40.023438 32.695312 37.476562 30.972656 L 31.898438 36.839844 C 30.101562 38.863281 29.945312 38.035156 26.234375 51.597656 C 27.765625 52.296875 36.152344 54.625 36.152344 54.625 L 38.238281 49.351562 L 47.710938 76.425781 C 47.832031 76.769531 48.171875 76.992188 48.539062 76.957031 C 50.511719 76.773438 56.578125 75.621094 61.101562 74.039062 C 65.625 72.457031 71.085938 69.574219 72.742188 68.488281 C 73.050781 68.289062 73.179688 67.902344 73.058594 67.554688 L 63.589844 40.484375 L 68.507812 43.304688 C 68.507812 43.304688 73.613281 36.257812 74.375 34.757812 C 63.019531 26.460938 63.414062 27.210938 60.746094 26.746094 " fill-opacity="1" fill-rule="nonzero"/></g></g></g><g clip-path="url(#7b796fce80)"><g clip-path="url(#e51ed42e41)"><g clip-path="url(#e6b5c57dd2)"><path fill="#0cc0df" d="M 53.644531 25.765625 L 53.636719 25.792969 C 52.601562 29.234375 50.097656 31.875 46.757812 33.042969 C 43.421875 34.210938 39.816406 33.707031 36.863281 31.660156 L 36.839844 31.644531 L 36.402344 32.101562 L 36.519531 32.179688 C 39.636719 34.339844 43.445312 34.871094 46.96875 33.640625 C 50.492188 32.40625 53.136719 29.617188 54.230469 25.984375 L 54.269531 25.851562 L 53.644531 25.765625 " fill-opacity="1" fill-rule="nonzero"/></g></g></g><g clip-path="url(#c247088537)"><g clip-path="url(#eef680d8f0)"><g clip-path="url(#a579b6bc9d)"><path fill="#0cc0df" d="M 38.238281 49.351562 L 38.25 49.382812 C 37.617188 47.355469 36.136719 42.21875 32.710938 38.453125 C 33.304688 39.28125 35.605469 42.359375 37.691406 50.738281 L 38.238281 49.351562 " fill-opacity="1" fill-rule="nonzero"/></g></g></g><g clip-path="url(#7876199c17)"><g clip-path="url(#8fde63f029)"><g clip-path="url(#5c64f6973d)"><path fill="#0cc0df" d="M 63.589844 40.484375 L 63.597656 40.515625 C 62.828125 38.535156 60.785156 33.597656 61.113281 28.515625 C 61.167969 29.53125 61.289062 33.375 64.882812 41.226562 L 63.589844 40.484375 " fill-opacity="1" fill-rule="nonzero"/></g></g></g><g clip-path="url(#298eefe6a1)"><g clip-path="url(#2eb1b18432)"><g clip-path="url(#c1adda7170)"><path fill="#0cc0df" d="M 26.511719 50.589844 L 36.574219 53.5625 L 36.796875 52.992188 L 26.671875 50.003906 C 26.617188 50.195312 26.566406 50.390625 26.511719 50.589844 " fill-opacity="1" fill-rule="nonzero"/></g></g></g><g clip-path="url(#cc4142ee5e)"><g clip-path="url(#170c8a411a)"><g clip-path="url(#54932020e2)"><path fill="#0cc0df" d="M 67.515625 42.734375 L 73.53125 34.140625 C 73.363281 34.019531 73.199219 33.898438 73.039062 33.78125 L 66.988281 42.433594 L 67.515625 42.734375 " fill-opacity="1" fill-rule="nonzero"/></g></g></g><g clip-path="url(#60544c9ed1)"><g clip-path="url(#b558832000)"><g clip-path="url(#045f8f4c0a)"><path fill="#ededed" d="M 48.742188 52.898438 L 56.386719 50.226562 L 59.058594 57.867188 L 51.417969 60.542969 Z M 48.742188 52.898438 " fill-opacity="1" fill-rule="nonzero"/></g></g></g><g clip-path="url(#cbb5e2ae2a)"><g clip-path="url(#be86e682eb)"><g clip-path="url(#d0f9089c58)"><path fill="#ffffff" d="M 46.566406 51.972656 L 52.039062 50.058594 L 53.953125 55.53125 L 48.480469 57.445312 Z M 46.566406 51.972656 " fill-opacity="1" fill-rule="nonzero"/></g></g></g><g clip-path="url(#7f664cc738)"><g clip-path="url(#f1ca033092)"><g clip-path="url(#883dbe633b)"><path fill="#ffffff" d="M 52.484375 53.074219 L 59.71875 50.542969 L 61.929688 56.863281 L 54.695312 59.394531 Z M 52.484375 53.074219 " fill-opacity="1" fill-rule="nonzero"/></g></g></g><g clip-path="url(#cc5c944cc2)"><g clip-path="url(#ffd9e4e049)"><path stroke-linecap="butt" transform="matrix(0.747378, 0, 0, 0.747378, 2.851169, 2.469382)" fill="none" stroke-linejoin="miter" d="M 3.998882 -0.000846071 L 177.443877 -0.000846071 C 178.504878 -0.000846071 179.524067 0.422509 180.271472 1.169914 C 181.024103 1.922546 181.442232 2.936508 181.442232 3.997509 L 181.442232 179.125472 C 181.442232 180.186473 181.024103 181.205662 180.271472 181.953067 C 179.524067 182.705699 178.504878 183.123827 177.443877 183.123827 L 3.998882 183.123827 C 2.93788 183.123827 1.923918 182.705699 1.171287 181.953067 C 0.423882 181.205662 0.000526524 180.186473 0.000526524 179.125472 L 0.000526524 3.997509 C 0.000526524 2.936508 0.423882 1.922546 1.171287 1.169914 C 1.923918 0.422509 2.93788 -0.000846071 3.998882 -0.000846071 Z M 3.998882 -0.000846071 " stroke="#11c9f0" stroke-width="2" stroke-opacity="1" stroke-miterlimit="4"/></g></g><g clip-path="url(#5095d16f31)"><path fill="#cfcfcf" d="M 30.660156 100 L 30.660156 60.148438 C 30.660156 57.933594 32.457031 56.136719 34.671875 56.136719 L 74.503906 56.136719 C 76.71875 56.136719 78.511719 57.933594 78.511719 60.148438 L 78.511719 100 C 78.511719 100.738281 77.914062 101.335938 77.175781 101.335938 L 31.996094 101.335938 C 31.257812 101.335938 30.660156 100.738281 30.660156 100 Z M 62.828125 113.652344 C 62.828125 118.246094 59.101562 121.96875 54.507812 121.96875 C 49.917969 121.96875 46.191406 118.246094 46.191406 113.652344 C 46.191406 109.058594 49.917969 105.335938 54.507812 105.335938 C 59.101562 105.335938 62.828125 109.058594 62.828125 113.652344 Z M 58.667969 113.652344 C 58.667969 111.355469 56.804688 109.492188 54.507812 109.492188 C 52.214844 109.492188 50.351562 111.355469 50.351562 113.652344 C 50.351562 115.949219 52.214844 117.808594 54.507812 117.808594 C 56.804688 117.808594 58.667969 115.949219 58.667969 113.652344 Z M 47.347656 105.335938 L 28.710938 105.335938 C 27.972656 105.335938 27.375 105.933594 27.375 106.671875 L 27.375 110.726562 C 27.375 111.464844 27.972656 112.0625 28.710938 112.0625 L 43.648438 112.0625 C 44.039062 109.386719 45.390625 107.023438 47.347656 105.335938 Z M 106.339844 113.652344 C 106.339844 118.246094 102.617188 121.96875 98.023438 121.96875 C 93.429688 121.96875 89.707031 118.246094 89.707031 113.652344 C 89.707031 109.058594 93.429688 105.335938 98.023438 105.335938 C 102.617188 105.335938 106.339844 109.058594 106.339844 113.652344 Z M 102.179688 113.652344 C 102.179688 111.355469 100.320312 109.492188 98.023438 109.492188 C 95.726562 109.492188 93.863281 111.355469 93.863281 113.652344 C 93.863281 115.949219 95.726562 117.808594 98.023438 117.808594 C 100.320312 117.808594 102.179688 115.949219 102.179688 113.652344 Z M 121.042969 106.671875 L 121.042969 110.726562 C 121.042969 111.464844 120.441406 112.0625 119.703125 112.0625 L 108.882812 112.0625 C 108.109375 106.753906 103.542969 102.664062 98.023438 102.664062 C 92.503906 102.664062 87.933594 106.753906 87.160156 112.0625 L 65.371094 112.0625 C 64.980469 109.386719 63.628906 107.023438 61.671875 105.335938 L 82.332031 105.335938 L 82.332031 67.105469 C 82.332031 65.628906 83.53125 64.429688 85.007812 64.429688 L 97.625 64.429688 C 101.175781 64.429688 104.5 66.195312 106.488281 69.140625 L 114.621094 81.1875 C 115.8125 82.957031 116.453125 85.039062 116.453125 87.171875 L 116.453125 105.335938 L 119.703125 105.335938 C 120.441406 105.335938 121.042969 105.933594 121.042969 106.671875 Z M 107.480469 81.496094 L 100.976562 72.253906 C 100.726562 71.898438 100.320312 71.6875 99.882812 71.6875 L 89.738281 71.6875 C 89 71.6875 88.402344 72.285156 88.402344 73.023438 L 88.402344 82.265625 C 88.402344 83.003906 89 83.605469 89.738281 83.605469 L 106.390625 83.605469 C 107.472656 83.605469 108.105469 82.382812 107.484375 81.496094 Z M 107.480469 81.496094 " fill-opacity="1" fill-rule="nonzero"/></g><g fill="#ffffff" fill-opacity="1"><g transform="translate(35.167766, 79.273115)"><g><path d="M 0.71875 -3 C 0.59375 -3 0.492188 -3.035156 0.421875 -3.109375 C 0.347656 -3.179688 0.3125 -3.273438 0.3125 -3.390625 C 0.3125 -3.503906 0.347656 -3.597656 0.421875 -3.671875 C 0.492188 -3.742188 0.59375 -3.78125 0.71875 -3.78125 C 0.800781 -3.78125 0.875 -3.765625 0.9375 -3.734375 C 1 -3.703125 1.046875 -3.65625 1.078125 -3.59375 C 1.117188 -3.53125 1.140625 -3.460938 1.140625 -3.390625 C 1.140625 -3.316406 1.117188 -3.25 1.078125 -3.1875 C 1.046875 -3.125 1 -3.078125 0.9375 -3.046875 C 0.875 -3.015625 0.800781 -3 0.71875 -3 Z M 0.390625 0 L 0.390625 -2.671875 L 1.0625 -2.671875 L 1.0625 0 Z M 0.390625 0 "/></g></g></g><g fill="#ffffff" fill-opacity="1"><g transform="translate(36.607156, 79.273115)"><g><path d="M 0.390625 0 L 0.390625 -2.671875 L 1.03125 -2.671875 L 1.03125 -2.3125 L 1.078125 -2.3125 C 1.171875 -2.445312 1.273438 -2.550781 1.390625 -2.625 C 1.503906 -2.695312 1.65625 -2.734375 1.84375 -2.734375 C 2.039062 -2.734375 2.203125 -2.691406 2.328125 -2.609375 C 2.453125 -2.523438 2.539062 -2.40625 2.59375 -2.25 L 2.640625 -2.25 C 2.722656 -2.414062 2.828125 -2.535156 2.953125 -2.609375 C 3.085938 -2.691406 3.253906 -2.734375 3.453125 -2.734375 C 4.003906 -2.734375 4.28125 -2.421875 4.28125 -1.796875 L 4.28125 0 L 3.609375 0 L 3.609375 -1.71875 C 3.609375 -1.875 3.578125 -1.984375 3.515625 -2.046875 C 3.453125 -2.117188 3.351562 -2.15625 3.21875 -2.15625 C 2.851562 -2.15625 2.671875 -1.910156 2.671875 -1.421875 L 2.671875 0 L 2 0 L 2 -1.71875 C 2 -1.875 1.96875 -1.984375 1.90625 -2.046875 C 1.84375 -2.117188 1.742188 -2.15625 1.609375 -2.15625 C 1.429688 -2.15625 1.296875 -2.097656 1.203125 -1.984375 C 1.109375 -1.867188 1.0625 -1.6875 1.0625 -1.4375 L 1.0625 0 Z M 0.390625 0 "/></g></g></g><g fill="#ffffff" fill-opacity="1"><g transform="translate(41.23065, 79.273115)"><g><path d="M 0.390625 1.078125 L 0.390625 -2.671875 L 1.0625 -2.671875 L 1.0625 -2.328125 L 1.109375 -2.3125 C 1.191406 -2.445312 1.296875 -2.550781 1.421875 -2.625 C 1.554688 -2.695312 1.710938 -2.734375 1.890625 -2.734375 C 2.109375 -2.734375 2.296875 -2.679688 2.453125 -2.578125 C 2.617188 -2.472656 2.742188 -2.316406 2.828125 -2.109375 C 2.921875 -1.898438 2.96875 -1.644531 2.96875 -1.34375 C 2.96875 -1.03125 2.921875 -0.769531 2.828125 -0.5625 C 2.734375 -0.351562 2.597656 -0.195312 2.421875 -0.09375 C 2.253906 0 2.0625 0.046875 1.84375 0.046875 C 1.675781 0.046875 1.53125 0.0195312 1.40625 -0.03125 C 1.289062 -0.0820312 1.191406 -0.171875 1.109375 -0.296875 L 1.0625 -0.28125 L 1.0625 1.078125 Z M 1.65625 -0.515625 C 1.863281 -0.515625 2.015625 -0.578125 2.109375 -0.703125 C 2.210938 -0.835938 2.265625 -1.050781 2.265625 -1.34375 C 2.265625 -1.625 2.210938 -1.828125 2.109375 -1.953125 C 2.015625 -2.085938 1.863281 -2.15625 1.65625 -2.15625 C 1.46875 -2.15625 1.316406 -2.085938 1.203125 -1.953125 C 1.097656 -1.816406 1.046875 -1.613281 1.046875 -1.34375 C 1.046875 -1.0625 1.097656 -0.851562 1.203125 -0.71875 C 1.316406 -0.582031 1.46875 -0.515625 1.65625 -0.515625 Z M 1.65625 -0.515625 "/></g></g></g><g fill="#ffffff" fill-opacity="1"><g transform="translate(44.431717, 79.273115)"><g><path d="M 0.390625 0 L 0.390625 -2.671875 L 1.03125 -2.671875 L 1.03125 -2.28125 L 1.09375 -2.265625 C 1.15625 -2.410156 1.238281 -2.519531 1.34375 -2.59375 C 1.445312 -2.664062 1.578125 -2.703125 1.734375 -2.703125 C 1.878906 -2.703125 1.992188 -2.675781 2.078125 -2.625 L 1.953125 -2.046875 L 1.90625 -2.03125 C 1.863281 -2.050781 1.820312 -2.0625 1.78125 -2.0625 C 1.738281 -2.070312 1.691406 -2.078125 1.640625 -2.078125 C 1.453125 -2.078125 1.304688 -2.007812 1.203125 -1.875 C 1.109375 -1.75 1.0625 -1.539062 1.0625 -1.25 L 1.0625 0 Z M 0.390625 0 "/></g></g></g><g fill="#ffffff" fill-opacity="1"><g transform="translate(46.527798, 79.273115)"><g><path d="M 2.640625 -1.1875 L 0.921875 -1.1875 C 0.941406 -0.957031 1.007812 -0.785156 1.125 -0.671875 C 1.238281 -0.566406 1.394531 -0.515625 1.59375 -0.515625 C 1.738281 -0.515625 1.859375 -0.539062 1.953125 -0.59375 C 2.054688 -0.65625 2.132812 -0.742188 2.1875 -0.859375 L 2.234375 -0.859375 L 2.6875 -0.578125 C 2.601562 -0.390625 2.472656 -0.238281 2.296875 -0.125 C 2.117188 -0.0078125 1.882812 0.046875 1.59375 0.046875 C 1.3125 0.046875 1.066406 -0.00390625 0.859375 -0.109375 C 0.660156 -0.210938 0.503906 -0.367188 0.390625 -0.578125 C 0.285156 -0.785156 0.234375 -1.039062 0.234375 -1.34375 C 0.234375 -1.644531 0.289062 -1.898438 0.40625 -2.109375 C 0.519531 -2.316406 0.675781 -2.472656 0.875 -2.578125 C 1.070312 -2.679688 1.289062 -2.734375 1.53125 -2.734375 C 1.914062 -2.734375 2.207031 -2.628906 2.40625 -2.421875 C 2.601562 -2.222656 2.703125 -1.929688 2.703125 -1.546875 C 2.703125 -1.398438 2.703125 -1.289062 2.703125 -1.21875 Z M 2.0625 -1.625 C 2.0625 -1.820312 2.015625 -1.96875 1.921875 -2.0625 C 1.835938 -2.15625 1.707031 -2.203125 1.53125 -2.203125 C 1.195312 -2.203125 1 -2.007812 0.9375 -1.625 Z M 2.0625 -1.625 "/></g></g></g><g fill="#ffffff" fill-opacity="1"><g transform="translate(49.433233, 79.273115)"><g><path d="M 1.84375 -0.640625 L 2.015625 -0.140625 C 1.941406 -0.078125 1.847656 -0.03125 1.734375 0 C 1.628906 0.03125 1.507812 0.046875 1.375 0.046875 C 1.082031 0.046875 0.859375 -0.03125 0.703125 -0.1875 C 0.554688 -0.34375 0.484375 -0.570312 0.484375 -0.875 L 0.484375 -2.140625 L 0.078125 -2.140625 L 0.078125 -2.671875 L 0.484375 -2.671875 L 0.484375 -3.203125 L 1.15625 -3.3125 L 1.15625 -2.671875 L 1.921875 -2.671875 L 1.921875 -2.140625 L 1.15625 -2.140625 L 1.15625 -0.921875 C 1.15625 -0.785156 1.179688 -0.6875 1.234375 -0.625 C 1.296875 -0.570312 1.378906 -0.546875 1.484375 -0.546875 C 1.597656 -0.546875 1.703125 -0.578125 1.796875 -0.640625 Z M 1.84375 -0.640625 "/></g></g></g><g fill="#ffffff" fill-opacity="1"><g transform="translate(51.509928, 79.273115)"><g><path d="M 0.71875 -3 C 0.59375 -3 0.492188 -3.035156 0.421875 -3.109375 C 0.347656 -3.179688 0.3125 -3.273438 0.3125 -3.390625 C 0.3125 -3.503906 0.347656 -3.597656 0.421875 -3.671875 C 0.492188 -3.742188 0.59375 -3.78125 0.71875 -3.78125 C 0.800781 -3.78125 0.875 -3.765625 0.9375 -3.734375 C 1 -3.703125 1.046875 -3.65625 1.078125 -3.59375 C 1.117188 -3.53125 1.140625 -3.460938 1.140625 -3.390625 C 1.140625 -3.316406 1.117188 -3.25 1.078125 -3.1875 C 1.046875 -3.125 1 -3.078125 0.9375 -3.046875 C 0.875 -3.015625 0.800781 -3 0.71875 -3 Z M 0.390625 0 L 0.390625 -2.671875 L 1.0625 -2.671875 L 1.0625 0 Z M 0.390625 0 "/></g></g></g><g fill="#ffffff" fill-opacity="1"><g transform="translate(52.949318, 79.273115)"><g><path d="M 1.5625 0.046875 C 1.289062 0.046875 1.054688 -0.00390625 0.859375 -0.109375 C 0.660156 -0.210938 0.503906 -0.367188 0.390625 -0.578125 C 0.285156 -0.785156 0.234375 -1.039062 0.234375 -1.34375 C 0.234375 -1.632812 0.285156 -1.882812 0.390625 -2.09375 C 0.503906 -2.300781 0.660156 -2.457031 0.859375 -2.5625 C 1.054688 -2.675781 1.289062 -2.734375 1.5625 -2.734375 C 1.820312 -2.734375 2.050781 -2.675781 2.25 -2.5625 C 2.445312 -2.457031 2.597656 -2.300781 2.703125 -2.09375 C 2.816406 -1.882812 2.875 -1.632812 2.875 -1.34375 C 2.875 -1.039062 2.816406 -0.785156 2.703125 -0.578125 C 2.597656 -0.367188 2.445312 -0.210938 2.25 -0.109375 C 2.050781 -0.00390625 1.820312 0.046875 1.5625 0.046875 Z M 1.5625 -0.515625 C 1.96875 -0.515625 2.171875 -0.789062 2.171875 -1.34375 C 2.171875 -1.625 2.117188 -1.828125 2.015625 -1.953125 C 1.910156 -2.085938 1.757812 -2.15625 1.5625 -2.15625 C 1.144531 -2.15625 0.9375 -1.882812 0.9375 -1.34375 C 0.9375 -0.789062 1.144531 -0.515625 1.5625 -0.515625 Z M 1.5625 -0.515625 "/></g></g></g><g fill="#ffffff" fill-opacity="1"><g transform="translate(56.05588, 79.273115)"><g><path d="M 0.390625 0 L 0.390625 -2.671875 L 1.03125 -2.671875 L 1.03125 -2.28125 L 1.078125 -2.265625 C 1.242188 -2.578125 1.515625 -2.734375 1.890625 -2.734375 C 2.203125 -2.734375 2.429688 -2.644531 2.578125 -2.46875 C 2.722656 -2.300781 2.796875 -2.054688 2.796875 -1.734375 L 2.796875 0 L 2.125 0 L 2.125 -1.65625 C 2.125 -1.832031 2.085938 -1.957031 2.015625 -2.03125 C 1.941406 -2.113281 1.828125 -2.15625 1.671875 -2.15625 C 1.472656 -2.15625 1.320312 -2.09375 1.21875 -1.96875 C 1.113281 -1.84375 1.0625 -1.648438 1.0625 -1.390625 L 1.0625 0 Z M 0.390625 0 "/></g></g></g><g fill="#ffffff" fill-opacity="1"><g transform="translate(59.186673, 79.273115)"><g><path d="M 0.6875 0.015625 C 0.601562 0.015625 0.523438 0 0.453125 -0.03125 C 0.390625 -0.0625 0.335938 -0.109375 0.296875 -0.171875 C 0.265625 -0.234375 0.25 -0.304688 0.25 -0.390625 C 0.25 -0.460938 0.265625 -0.53125 0.296875 -0.59375 C 0.335938 -0.65625 0.390625 -0.703125 0.453125 -0.734375 C 0.523438 -0.773438 0.601562 -0.796875 0.6875 -0.796875 C 0.769531 -0.796875 0.84375 -0.773438 0.90625 -0.734375 C 0.976562 -0.703125 1.03125 -0.65625 1.0625 -0.59375 C 1.09375 -0.53125 1.109375 -0.460938 1.109375 -0.390625 C 1.109375 -0.265625 1.066406 -0.164062 0.984375 -0.09375 C 0.910156 -0.0195312 0.8125 0.015625 0.6875 0.015625 Z M 0.6875 0.015625 "/></g></g></g><g fill="#ffffff" fill-opacity="1"><g transform="translate(60.55579, 79.273115)"><g><path d="M 1.5625 0.046875 C 1.300781 0.046875 1.070312 -0.00390625 0.875 -0.109375 C 0.675781 -0.210938 0.519531 -0.367188 0.40625 -0.578125 C 0.289062 -0.785156 0.234375 -1.039062 0.234375 -1.34375 C 0.234375 -1.632812 0.289062 -1.882812 0.40625 -2.09375 C 0.519531 -2.300781 0.675781 -2.457031 0.875 -2.5625 C 1.070312 -2.675781 1.296875 -2.734375 1.546875 -2.734375 C 2.109375 -2.734375 2.46875 -2.523438 2.625 -2.109375 L 2.171875 -1.78125 L 2.125 -1.78125 C 2.0625 -1.90625 1.988281 -2 1.90625 -2.0625 C 1.820312 -2.125 1.703125 -2.15625 1.546875 -2.15625 C 1.347656 -2.15625 1.195312 -2.085938 1.09375 -1.953125 C 0.988281 -1.816406 0.9375 -1.613281 0.9375 -1.34375 C 0.9375 -1.0625 0.988281 -0.851562 1.09375 -0.71875 C 1.207031 -0.582031 1.363281 -0.515625 1.5625 -0.515625 C 1.707031 -0.515625 1.828125 -0.550781 1.921875 -0.625 C 2.023438 -0.707031 2.097656 -0.820312 2.140625 -0.96875 L 2.203125 -0.984375 L 2.671875 -0.71875 C 2.609375 -0.488281 2.484375 -0.300781 2.296875 -0.15625 C 2.109375 -0.0195312 1.863281 0.046875 1.5625 0.046875 Z M 1.5625 0.046875 "/></g></g></g><g fill="#ffffff" fill-opacity="1"><g transform="translate(63.310985, 79.273115)"><g><path d="M 1.5625 0.046875 C 1.289062 0.046875 1.054688 -0.00390625 0.859375 -0.109375 C 0.660156 -0.210938 0.503906 -0.367188 0.390625 -0.578125 C 0.285156 -0.785156 0.234375 -1.039062 0.234375 -1.34375 C 0.234375 -1.632812 0.285156 -1.882812 0.390625 -2.09375 C 0.503906 -2.300781 0.660156 -2.457031 0.859375 -2.5625 C 1.054688 -2.675781 1.289062 -2.734375 1.5625 -2.734375 C 1.820312 -2.734375 2.050781 -2.675781 2.25 -2.5625 C 2.445312 -2.457031 2.597656 -2.300781 2.703125 -2.09375 C 2.816406 -1.882812 2.875 -1.632812 2.875 -1.34375 C 2.875 -1.039062 2.816406 -0.785156 2.703125 -0.578125 C 2.597656 -0.367188 2.445312 -0.210938 2.25 -0.109375 C 2.050781 -0.00390625 1.820312 0.046875 1.5625 0.046875 Z M 1.5625 -0.515625 C 1.96875 -0.515625 2.171875 -0.789062 2.171875 -1.34375 C 2.171875 -1.625 2.117188 -1.828125 2.015625 -1.953125 C 1.910156 -2.085938 1.757812 -2.15625 1.5625 -2.15625 C 1.144531 -2.15625 0.9375 -1.882812 0.9375 -1.34375 C 0.9375 -0.789062 1.144531 -0.515625 1.5625 -0.515625 Z M 1.5625 -0.515625 "/></g></g></g><g fill="#ffffff" fill-opacity="1"><g transform="translate(66.417547, 79.273115)"><g><path d="M 0.390625 0 L 0.390625 -2.671875 L 1.03125 -2.671875 L 1.03125 -2.3125 L 1.078125 -2.3125 C 1.171875 -2.445312 1.273438 -2.550781 1.390625 -2.625 C 1.503906 -2.695312 1.65625 -2.734375 1.84375 -2.734375 C 2.039062 -2.734375 2.203125 -2.691406 2.328125 -2.609375 C 2.453125 -2.523438 2.539062 -2.40625 2.59375 -2.25 L 2.640625 -2.25 C 2.722656 -2.414062 2.828125 -2.535156 2.953125 -2.609375 C 3.085938 -2.691406 3.253906 -2.734375 3.453125 -2.734375 C 4.003906 -2.734375 4.28125 -2.421875 4.28125 -1.796875 L 4.28125 0 L 3.609375 0 L 3.609375 -1.71875 C 3.609375 -1.875 3.578125 -1.984375 3.515625 -2.046875 C 3.453125 -2.117188 3.351562 -2.15625 3.21875 -2.15625 C 2.851562 -2.15625 2.671875 -1.910156 2.671875 -1.421875 L 2.671875 0 L 2 0 L 2 -1.71875 C 2 -1.875 1.96875 -1.984375 1.90625 -2.046875 C 1.84375 -2.117188 1.742188 -2.15625 1.609375 -2.15625 C 1.429688 -2.15625 1.296875 -2.097656 1.203125 -1.984375 C 1.109375 -1.867188 1.0625 -1.6875 1.0625 -1.4375 L 1.0625 0 Z M 0.390625 0 "/></g></g></g></svg>