<svg xmlns="http://www.w3.org/2000/svg" xmlns:xlink="http://www.w3.org/1999/xlink" width="50" zoomAndPan="magnify" viewBox="0 0 37.5 37.499999" height="50" preserveAspectRatio="xMidYMid meet" version="1.0"><defs><clipPath id="68781da3ef"><path d="M 4 3 L 33 3 L 33 33 L 4 33 Z M 4 3 " clip-rule="nonzero"/></clipPath><clipPath id="e4dac59dad"><path d="M 13.8125 0 L 37.332031 10.859375 L 26.164062 35.050781 L 2.644531 24.191406 Z M 13.8125 0 " clip-rule="nonzero"/></clipPath><clipPath id="fbae27a09b"><path d="M 13.8125 0 L 37.332031 10.859375 L 26.164062 35.050781 L 2.644531 24.191406 Z M 13.8125 0 " clip-rule="nonzero"/></clipPath><clipPath id="23f228732d"><path d="M 7.324219 6.070312 L 32.488281 6.070312 L 32.488281 31.234375 L 7.324219 31.234375 Z M 7.324219 6.070312 " clip-rule="nonzero"/></clipPath></defs><g clip-path="url(#68781da3ef)"><g clip-path="url(#e4dac59dad)"><g clip-path="url(#fbae27a09b)"><path fill="#78dedb" d="M 19.21875 32.1875 C 19.179688 32.164062 19.136719 32.144531 19.09375 32.128906 C 18.910156 32.042969 18.726562 31.957031 18.542969 31.875 C 18.367188 31.792969 18.21875 31.679688 18.066406 31.566406 C 17.699219 31.289062 17.347656 30.996094 17.019531 30.675781 C 16.796875 30.457031 16.585938 30.230469 16.382812 30 C 15.917969 29.476562 15.480469 28.929688 15 28.421875 C 14.691406 28.097656 14.351562 27.800781 13.976562 27.558594 C 13.792969 27.4375 13.613281 27.324219 13.421875 27.222656 C 13.308594 27.160156 13.199219 27.09375 13.082031 27.046875 C 12.859375 26.960938 12.636719 26.875 12.410156 26.800781 C 12.144531 26.714844 11.878906 26.640625 11.609375 26.570312 C 11.390625 26.511719 11.167969 26.464844 10.945312 26.425781 C 10.535156 26.351562 10.121094 26.292969 9.703125 26.257812 C 9.214844 26.214844 8.730469 26.152344 8.25 26.050781 C 7.992188 25.996094 7.742188 25.917969 7.496094 25.828125 C 7.183594 25.71875 6.886719 25.574219 6.59375 25.429688 C 6.199219 25.242188 5.859375 24.976562 5.574219 24.644531 C 5.457031 24.507812 5.347656 24.363281 5.238281 24.214844 C 5.136719 24.074219 5.0625 23.914062 4.988281 23.757812 C 4.917969 23.605469 4.851562 23.449219 4.792969 23.289062 C 4.664062 22.941406 4.597656 22.578125 4.558594 22.214844 C 4.5 21.632812 4.519531 21.054688 4.597656 20.480469 C 4.636719 20.195312 4.707031 19.917969 4.804688 19.648438 C 4.835938 19.558594 4.867188 19.46875 4.90625 19.378906 C 4.976562 19.25 5.019531 19.109375 5.070312 18.972656 C 5.125 18.816406 5.242188 18.691406 5.296875 18.53125 C 5.402344 18.324219 5.535156 18.136719 5.671875 17.949219 C 5.835938 17.71875 6 17.492188 6.191406 17.28125 C 6.371094 17.085938 6.5625 16.898438 6.765625 16.722656 C 6.957031 16.554688 7.148438 16.386719 7.347656 16.230469 C 7.757812 15.910156 8.171875 15.601562 8.597656 15.300781 C 8.984375 15.03125 9.363281 14.75 9.75 14.480469 C 10.089844 14.242188 10.417969 13.992188 10.738281 13.726562 C 11.144531 13.386719 11.53125 13.023438 11.859375 12.601562 C 12.027344 12.386719 12.179688 12.160156 12.320312 11.925781 C 12.425781 11.746094 12.515625 11.5625 12.589844 11.371094 C 12.671875 11.167969 12.753906 10.964844 12.8125 10.753906 C 12.875 10.539062 12.953125 10.328125 13.023438 10.113281 C 13.082031 9.925781 13.136719 9.738281 13.195312 9.550781 C 13.261719 9.320312 13.328125 9.089844 13.398438 8.863281 C 13.457031 8.667969 13.511719 8.46875 13.574219 8.273438 C 13.621094 8.128906 13.664062 7.980469 13.722656 7.835938 C 13.84375 7.527344 13.949219 7.210938 14.09375 6.914062 C 14.40625 6.277344 14.796875 5.695312 15.324219 5.214844 C 15.601562 4.957031 15.902344 4.738281 16.214844 4.53125 C 16.503906 4.339844 16.808594 4.179688 17.128906 4.050781 C 17.539062 3.882812 17.964844 3.773438 18.394531 3.6875 C 19.003906 3.566406 19.621094 3.566406 20.234375 3.609375 C 20.707031 3.640625 21.179688 3.6875 21.648438 3.789062 C 21.871094 3.835938 22.089844 3.894531 22.304688 3.96875 C 22.570312 4.0625 22.832031 4.164062 23.089844 4.285156 C 23.300781 4.382812 23.5 4.5 23.703125 4.609375 C 23.878906 4.707031 24.042969 4.820312 24.210938 4.929688 C 24.410156 5.058594 24.589844 5.210938 24.757812 5.375 C 25 5.605469 25.214844 5.863281 25.414062 6.128906 C 25.589844 6.363281 25.757812 6.605469 25.933594 6.839844 C 26.101562 7.058594 26.28125 7.265625 26.453125 7.480469 C 26.742188 7.828125 27.066406 8.132812 27.402344 8.429688 C 27.664062 8.660156 27.953125 8.855469 28.234375 9.058594 C 28.359375 9.148438 28.496094 9.238281 28.65625 9.265625 C 28.6875 9.273438 28.714844 9.289062 28.742188 9.304688 C 28.925781 9.386719 29.109375 9.472656 29.292969 9.554688 C 29.539062 9.667969 29.773438 9.800781 30.011719 9.929688 C 30.191406 10.03125 30.375 10.136719 30.550781 10.242188 C 30.796875 10.394531 31.027344 10.570312 31.25 10.757812 C 31.523438 10.992188 31.785156 11.238281 32.011719 11.519531 C 32.269531 11.835938 32.511719 12.167969 32.699219 12.535156 C 32.917969 12.964844 33.003906 13.421875 32.992188 13.90625 C 32.984375 14.195312 32.949219 14.484375 32.863281 14.761719 C 32.78125 15.023438 32.667969 15.273438 32.53125 15.511719 C 32.296875 15.921875 31.972656 16.25 31.640625 16.574219 C 31.273438 16.933594 30.9375 17.316406 30.640625 17.730469 C 30.53125 17.878906 30.429688 18.035156 30.355469 18.207031 C 30.265625 18.410156 30.167969 18.605469 30.082031 18.8125 C 30.007812 18.984375 29.953125 19.167969 29.898438 19.347656 C 29.820312 19.589844 29.757812 19.835938 29.695312 20.082031 C 29.617188 20.402344 29.546875 20.722656 29.519531 21.050781 C 29.484375 21.472656 29.460938 21.890625 29.4375 22.3125 C 29.425781 22.480469 29.425781 22.652344 29.425781 22.824219 C 29.429688 23.140625 29.4375 23.457031 29.445312 23.773438 C 29.457031 24.144531 29.472656 24.511719 29.476562 24.878906 C 29.484375 25.347656 29.492188 25.8125 29.4375 26.28125 C 29.386719 26.679688 29.320312 27.074219 29.203125 27.460938 C 29.128906 27.707031 29.042969 27.953125 28.925781 28.1875 C 28.847656 28.355469 28.769531 28.523438 28.691406 28.695312 C 28.382812 29.335938 27.917969 29.84375 27.34375 30.253906 C 27 30.503906 26.625 30.6875 26.234375 30.855469 C 25.875 31.007812 25.515625 31.160156 25.144531 31.28125 C 24.863281 31.375 24.582031 31.472656 24.304688 31.585938 C 23.945312 31.726562 23.589844 31.878906 23.226562 32.011719 C 22.878906 32.140625 22.527344 32.238281 22.167969 32.316406 C 21.804688 32.398438 21.441406 32.460938 21.070312 32.476562 C 20.566406 32.5 20.066406 32.453125 19.582031 32.304688 C 19.460938 32.265625 19.339844 32.230469 19.21875 32.1875 Z M 19.21875 32.1875 " fill-opacity="1" fill-rule="nonzero"/></g></g></g><g clip-path="url(#23f228732d)"><path fill="#000000" d="M 31.746094 18.121094 L 20.429688 6.804688 C 19.96875 6.351562 19.339844 6.070312 18.648438 6.070312 L 9.839844 6.070312 C 8.449219 6.070312 7.324219 7.195312 7.324219 8.585938 L 7.324219 17.394531 C 7.324219 18.089844 7.609375 18.71875 8.066406 19.171875 L 19.390625 30.496094 C 19.84375 30.949219 20.472656 31.234375 21.164062 31.234375 C 21.855469 31.234375 22.492188 30.949219 22.945312 30.496094 L 31.753906 21.691406 C 32.207031 21.230469 32.488281 20.601562 32.488281 19.910156 C 32.488281 19.210938 32.207031 18.582031 31.746094 18.121094 Z M 11.730469 12.359375 C 10.683594 12.359375 9.839844 11.515625 9.839844 10.472656 C 9.839844 9.429688 10.683594 8.585938 11.730469 8.585938 C 12.773438 8.585938 13.617188 9.429688 13.617188 10.472656 C 13.617188 11.515625 12.773438 12.359375 11.730469 12.359375 Z M 11.730469 12.359375 " fill-opacity="1" fill-rule="nonzero"/></g></svg>