<svg xmlns="http://www.w3.org/2000/svg" xmlns:xlink="http://www.w3.org/1999/xlink" width="200" zoomAndPan="magnify" viewBox="0 0 150 67.499998" height="90" preserveAspectRatio="xMidYMid meet" version="1.0"><defs><g/><clipPath id="28134349fa"><path d="M 8.25 17.871094 L 14.648438 17.871094 L 14.648438 24.273438 L 8.25 24.273438 Z M 8.25 17.871094 " clip-rule="nonzero"/></clipPath><clipPath id="4073b505c1"><path d="M 11.449219 17.871094 C 9.679688 17.871094 8.25 19.304688 8.25 21.070312 C 8.25 22.839844 9.679688 24.273438 11.449219 24.273438 C 13.214844 24.273438 14.648438 22.839844 14.648438 21.070312 C 14.648438 19.304688 13.214844 17.871094 11.449219 17.871094 Z M 11.449219 17.871094 " clip-rule="nonzero"/></clipPath><clipPath id="4fbf891702"><path d="M 99.222656 17.871094 L 105.625 17.871094 L 105.625 24.273438 L 99.222656 24.273438 Z M 99.222656 17.871094 " clip-rule="nonzero"/></clipPath><clipPath id="4b3c97e7e0"><path d="M 102.425781 17.871094 C 100.65625 17.871094 99.222656 19.304688 99.222656 21.070312 C 99.222656 22.839844 100.65625 24.273438 102.425781 24.273438 C 104.191406 24.273438 105.625 22.839844 105.625 21.070312 C 105.625 19.304688 104.191406 17.871094 102.425781 17.871094 Z M 102.425781 17.871094 " clip-rule="nonzero"/></clipPath></defs><g fill="#000000" fill-opacity="1"><g transform="translate(7.266033, 40.314261)"><g><path d="M 6.21875 -17.515625 L 2.140625 -17.515625 L 2.140625 -21.296875 L 6.21875 -21.296875 Z M 6.21875 0 L 2.140625 0 L 2.140625 -15.40625 L 6.21875 -15.40625 Z M 6.21875 0 "/></g></g></g><g fill="#000000" fill-opacity="1"><g transform="translate(15.531921, 40.314261)"><g><path d="M 10.40625 -15.765625 C 12.40625 -15.765625 13.863281 -14.953125 14.78125 -13.328125 C 16.101562 -14.953125 17.664062 -15.765625 19.46875 -15.765625 C 21.175781 -15.765625 22.445312 -15.296875 23.28125 -14.359375 C 24.113281 -13.429688 24.53125 -12.035156 24.53125 -10.171875 L 24.53125 0 L 20.453125 0 L 20.453125 -9.21875 C 20.453125 -10.320312 20.304688 -11.164062 20.015625 -11.75 C 19.734375 -12.34375 19.15625 -12.640625 18.28125 -12.640625 C 17.445312 -12.640625 16.773438 -12.347656 16.265625 -11.765625 C 15.765625 -11.191406 15.457031 -10.453125 15.34375 -9.546875 C 15.257812 -8.828125 15.21875 -8.191406 15.21875 -7.640625 L 15.21875 0 L 11.15625 0 L 11.15625 -9.0625 C 11.15625 -10.3125 11.019531 -11.21875 10.75 -11.78125 C 10.476562 -12.351562 9.910156 -12.640625 9.046875 -12.640625 C 8.410156 -12.640625 7.835938 -12.46875 7.328125 -12.125 C 6.828125 -11.789062 6.476562 -11.328125 6.28125 -10.734375 C 6.039062 -10.015625 5.921875 -9.015625 5.921875 -7.734375 L 5.921875 0 L 1.84375 0 L 1.84375 -15.40625 L 5.625 -15.40625 L 5.671875 -13.328125 C 6.304688 -14.097656 6.972656 -14.695312 7.671875 -15.125 C 8.378906 -15.550781 9.289062 -15.765625 10.40625 -15.765625 Z M 10.40625 -15.765625 "/></g></g></g><g fill="#000000" fill-opacity="1"><g transform="translate(41.96493, 40.314261)"><g><path d="M 10.609375 -15.765625 C 11.742188 -15.765625 12.800781 -15.457031 13.78125 -14.84375 C 14.757812 -14.226562 15.550781 -13.304688 16.15625 -12.078125 C 16.757812 -10.847656 17.0625 -9.335938 17.0625 -7.546875 C 17.0625 -5.828125 16.769531 -4.367188 16.1875 -3.171875 C 15.601562 -1.984375 14.820312 -1.097656 13.84375 -0.515625 C 12.863281 0.0664062 11.773438 0.359375 10.578125 0.359375 C 8.835938 0.359375 7.34375 -0.351562 6.09375 -1.78125 L 6.09375 5.859375 L 2.015625 5.859375 L 2.015625 -15.40625 L 5.828125 -15.40625 L 5.828125 -13.140625 L 5.890625 -13.140625 C 6.359375 -13.859375 7.015625 -14.472656 7.859375 -14.984375 C 8.703125 -15.503906 9.617188 -15.765625 10.609375 -15.765625 Z M 6.390625 -9.984375 C 6.171875 -9.359375 6.0625 -8.488281 6.0625 -7.375 C 6.0625 -5.84375 6.382812 -4.691406 7.03125 -3.921875 C 7.675781 -3.148438 8.492188 -2.765625 9.484375 -2.765625 C 10.691406 -2.765625 11.554688 -3.238281 12.078125 -4.1875 C 12.609375 -5.144531 12.875 -6.328125 12.875 -7.734375 C 12.875 -9.378906 12.5625 -10.585938 11.9375 -11.359375 C 11.3125 -12.128906 10.535156 -12.515625 9.609375 -12.515625 C 8.910156 -12.515625 8.269531 -12.296875 7.6875 -11.859375 C 7.101562 -11.421875 6.671875 -10.796875 6.390625 -9.984375 Z M 6.390625 -9.984375 "/></g></g></g><g fill="#000000" fill-opacity="1"><g transform="translate(60.132051, 40.314261)"><g><path d="M 9.28125 -15.765625 C 9.71875 -15.765625 10.175781 -15.691406 10.65625 -15.546875 C 11.144531 -15.410156 11.578125 -15.234375 11.953125 -15.015625 L 10.671875 -11.453125 C 9.984375 -11.890625 9.347656 -12.109375 8.765625 -12.109375 C 7.992188 -12.109375 7.410156 -11.84375 7.015625 -11.3125 C 6.617188 -10.789062 6.351562 -10.054688 6.21875 -9.109375 C 6.09375 -8.171875 6.03125 -6.921875 6.03125 -5.359375 L 6.03125 0 L 1.96875 0 L 1.96875 -15.40625 L 5.734375 -15.40625 L 5.734375 -13.234375 L 5.796875 -13.234375 C 6.296875 -14.066406 6.789062 -14.695312 7.28125 -15.125 C 7.78125 -15.550781 8.445312 -15.765625 9.28125 -15.765625 Z M 9.28125 -15.765625 "/></g></g></g><g fill="#000000" fill-opacity="1"><g transform="translate(71.698346, 40.314261)"><g><path d="M 8.03125 -15.765625 C 10.488281 -15.765625 12.320312 -14.960938 13.53125 -13.359375 C 14.738281 -11.765625 15.34375 -9.492188 15.34375 -6.546875 L 5.109375 -6.546875 C 5.148438 -5.515625 5.453125 -4.625 6.015625 -3.875 C 6.585938 -3.132812 7.40625 -2.765625 8.46875 -2.765625 C 9.144531 -2.765625 9.695312 -2.9375 10.125 -3.28125 C 10.550781 -3.632812 10.863281 -4.175781 11.0625 -4.90625 L 15.140625 -4.21875 C 14.617188 -2.71875 13.78125 -1.578125 12.625 -0.796875 C 11.476562 -0.0234375 10.078125 0.359375 8.421875 0.359375 C 5.941406 0.359375 4.066406 -0.382812 2.796875 -1.875 C 2.203125 -2.5625 1.742188 -3.429688 1.421875 -4.484375 C 1.109375 -5.535156 0.953125 -6.578125 0.953125 -7.609375 C 0.953125 -9.015625 1.203125 -10.335938 1.703125 -11.578125 C 2.210938 -12.816406 3 -13.820312 4.0625 -14.59375 C 5.125 -15.375 6.445312 -15.765625 8.03125 -15.765625 Z M 5.203125 -9.046875 L 11.296875 -9.046875 C 11.273438 -10.285156 10.960938 -11.191406 10.359375 -11.765625 C 9.753906 -12.347656 9.046875 -12.640625 8.234375 -12.640625 C 7.285156 -12.640625 6.539062 -12.296875 6 -11.609375 C 5.46875 -10.921875 5.203125 -10.066406 5.203125 -9.046875 Z M 5.203125 -9.046875 "/></g></g></g><g fill="#000000" fill-opacity="1"><g transform="translate(88.230122, 40.314261)"><g><path d="M 6.421875 -15.40625 L 9.1875 -15.40625 L 9.1875 -12.15625 L 6.421875 -12.15625 L 6.421875 -5.375 C 6.421875 -4.726562 6.445312 -4.242188 6.5 -3.921875 C 6.550781 -3.609375 6.65625 -3.378906 6.8125 -3.234375 C 6.96875 -3.097656 7.210938 -3.03125 7.546875 -3.03125 C 7.960938 -3.03125 8.507812 -3.160156 9.1875 -3.421875 L 9.546875 -0.265625 C 9.128906 -0.0664062 8.625 0.0820312 8.03125 0.1875 C 7.4375 0.300781 6.867188 0.359375 6.328125 0.359375 C 5.554688 0.359375 4.875 0.226562 4.28125 -0.03125 C 3.6875 -0.289062 3.25 -0.640625 2.96875 -1.078125 C 2.675781 -1.566406 2.492188 -2.113281 2.421875 -2.71875 C 2.347656 -3.320312 2.3125 -4.082031 2.3125 -5 L 2.3125 -12.15625 L 0.453125 -12.15625 L 0.453125 -15.40625 L 2.3125 -15.40625 L 2.3125 -18.46875 L 6.421875 -20.875 Z M 6.421875 -15.40625 "/></g></g></g><g fill="#000000" fill-opacity="1"><g transform="translate(98.131355, 40.314261)"><g><path d="M 6.21875 -17.515625 L 2.140625 -17.515625 L 2.140625 -21.296875 L 6.21875 -21.296875 Z M 6.21875 0 L 2.140625 0 L 2.140625 -15.40625 L 6.21875 -15.40625 Z M 6.21875 0 "/></g></g></g><g fill="#000000" fill-opacity="1"><g transform="translate(106.397243, 40.314261)"><g><path d="M 9.125 -15.765625 C 10.789062 -15.765625 12.226562 -15.382812 13.4375 -14.625 C 14.644531 -13.875 15.554688 -12.882812 16.171875 -11.65625 C 16.785156 -10.425781 17.09375 -9.128906 17.09375 -7.765625 C 17.09375 -6.335938 16.769531 -5.003906 16.125 -3.765625 C 15.488281 -2.523438 14.566406 -1.523438 13.359375 -0.765625 C 12.160156 -0.015625 10.757812 0.359375 9.15625 0.359375 C 7.789062 0.359375 6.503906 0.078125 5.296875 -0.484375 C 4.085938 -1.054688 3.097656 -1.960938 2.328125 -3.203125 C 1.566406 -4.441406 1.1875 -6.007812 1.1875 -7.90625 C 1.1875 -9.238281 1.488281 -10.503906 2.09375 -11.703125 C 2.695312 -12.898438 3.597656 -13.875 4.796875 -14.625 C 5.992188 -15.382812 7.4375 -15.765625 9.125 -15.765625 Z M 5.375 -7.703125 C 5.375 -6.148438 5.734375 -4.972656 6.453125 -4.171875 C 7.179688 -3.367188 8.070312 -2.96875 9.125 -2.96875 C 10.175781 -2.96875 11.066406 -3.363281 11.796875 -4.15625 C 12.535156 -4.957031 12.90625 -6.148438 12.90625 -7.734375 C 12.90625 -9.203125 12.550781 -10.347656 11.84375 -11.171875 C 11.144531 -12.003906 10.226562 -12.421875 9.09375 -12.421875 C 8.0625 -12.421875 7.179688 -12.015625 6.453125 -11.203125 C 5.734375 -10.390625 5.375 -9.222656 5.375 -7.703125 Z M 5.375 -7.703125 "/></g></g></g><g fill="#000000" fill-opacity="1"><g transform="translate(124.564364, 40.314261)"><g><path d="M 11 -15.765625 C 11.914062 -15.765625 12.707031 -15.609375 13.375 -15.296875 C 14.050781 -14.992188 14.585938 -14.632812 14.984375 -14.21875 C 15.460938 -13.695312 15.773438 -13.082031 15.921875 -12.375 C 16.066406 -11.675781 16.140625 -10.898438 16.140625 -10.046875 L 16.140625 0 L 12.078125 0 L 12.078125 -8.421875 C 12.078125 -9.847656 11.914062 -10.90625 11.59375 -11.59375 C 11.28125 -12.289062 10.609375 -12.640625 9.578125 -12.640625 C 8.609375 -12.640625 7.851562 -12.359375 7.3125 -11.796875 C 6.78125 -11.242188 6.460938 -10.601562 6.359375 -9.875 C 6.304688 -9.394531 6.265625 -8.96875 6.234375 -8.59375 C 6.203125 -8.21875 6.1875 -7.789062 6.1875 -7.3125 L 6.1875 0 L 2.109375 0 L 2.109375 -15.40625 L 5.984375 -15.40625 L 5.984375 -13.140625 C 6.410156 -13.796875 7.054688 -14.394531 7.921875 -14.9375 C 8.785156 -15.488281 9.8125 -15.765625 11 -15.765625 Z M 11 -15.765625 "/></g></g></g><g clip-path="url(#28134349fa)"><g clip-path="url(#4073b505c1)"><path fill="#000000" d="M 8.25 17.871094 L 14.648438 17.871094 L 14.648438 24.273438 L 8.25 24.273438 Z M 8.25 17.871094 " fill-opacity="1" fill-rule="nonzero"/></g></g><g clip-path="url(#4fbf891702)"><g clip-path="url(#4b3c97e7e0)"><path fill="#000000" d="M 99.222656 17.871094 L 105.625 17.871094 L 105.625 24.273438 L 99.222656 24.273438 Z M 99.222656 17.871094 " fill-opacity="1" fill-rule="nonzero"/></g></g></svg>